<svg width="32" height="33" viewBox="0 0 32 33" fill="none" xmlns="http://www.w3.org/2000/svg">
<g id="Checkmark">
<g id="Layer 2">
<g id="checkmark-circle">
<path id="Vector" d="M12.9466 15.5532C12.6955 15.3021 12.355 15.161 11.9999 15.161C11.6449 15.161 11.3043 15.3021 11.0533 15.5532C10.8022 15.8042 10.6611 16.1448 10.6611 16.4998C10.6611 16.8549 10.8022 17.1954 11.0533 17.4465L15.0533 21.4465C15.1778 21.5701 15.3256 21.6678 15.488 21.7342C15.6505 21.8005 15.8244 21.8342 15.9999 21.8332C16.1825 21.8274 16.3618 21.7841 16.527 21.7062C16.6921 21.6282 16.8395 21.5171 16.9599 21.3798L26.2933 10.7132C26.5088 10.4456 26.6127 10.1052 26.5833 9.76287C26.554 9.42057 26.3936 9.10281 26.1357 8.87584C25.8778 8.64887 25.5422 8.53023 25.199 8.54463C24.8557 8.55904 24.5312 8.70538 24.2933 8.95316L15.9999 18.5532L12.9466 15.5532Z" fill="#FF6600"/>
<path id="Vector_2" d="M28.0004 15.1665C27.6468 15.1665 27.3076 15.307 27.0576 15.557C26.8075 15.8071 26.6671 16.1462 26.6671 16.4998C26.6671 19.3288 25.5433 22.0419 23.5429 24.0423C21.5425 26.0427 18.8294 27.1665 16.0004 27.1665C13.8939 27.1655 11.8348 26.5409 10.0828 25.3712C8.33075 24.2016 6.9643 22.5394 6.15571 20.5942C5.34712 18.649 5.13259 16.508 5.53919 14.441C5.94578 12.3741 6.95528 10.4738 8.4404 8.97984C9.428 7.97902 10.6053 7.18523 11.9034 6.64492C13.2015 6.10462 14.5943 5.82865 16.0004 5.83317C16.853 5.83851 17.7025 5.93687 18.5337 6.1265C18.7077 6.18031 18.8908 6.19792 19.0718 6.17824C19.2529 6.15856 19.4279 6.10201 19.5863 6.01207C19.7446 5.92214 19.8828 5.80073 19.9924 5.65533C20.102 5.50993 20.1807 5.34362 20.2236 5.16666C20.2665 4.98969 20.2726 4.80581 20.2417 4.62637C20.2108 4.44693 20.1435 4.27572 20.0439 4.12329C19.9442 3.97087 19.8145 3.84047 19.6625 3.74012C19.5106 3.63977 19.3397 3.57161 19.1604 3.53984C18.1246 3.29616 17.0645 3.17091 16.0004 3.1665C13.3662 3.18019 10.795 3.97386 8.61146 5.44737C6.42788 6.92088 4.7297 9.00819 3.73123 11.4459C2.73276 13.8836 2.47875 16.5624 3.00125 19.1443C3.52375 21.7262 4.79935 24.0955 6.66707 25.9532C9.14266 28.4299 12.4986 29.825 16.0004 29.8332C19.5366 29.8332 22.928 28.4284 25.4285 25.9279C27.929 23.4274 29.3337 20.0361 29.3337 16.4998C29.3337 16.1462 29.1933 15.8071 28.9432 15.557C28.6932 15.307 28.354 15.1665 28.0004 15.1665Z" fill="#FF6600"/>
</g>
</g>
</g>
</svg>
