<svg width="65" height="65" viewBox="0 0 65 65" fill="none" xmlns="http://www.w3.org/2000/svg">
<g id="Satellite Dish" clip-path="url(#clip0_1_465)">
<path id="Vector" d="M52.4835 40.9808C52.5835 40.8808 52.6335 40.7608 52.6335 40.6408C52.6335 40.5008 52.5835 40.3808 52.4835 40.2908L42.2235 30.0208L43.3035 19.3208C43.9935 19.2608 44.6635 18.9808 45.1835 18.4508C45.7535 17.8808 46.0735 17.1208 46.0735 16.3108C46.0735 15.5008 45.7535 14.7408 45.1835 14.1708C44.0035 12.9908 42.0835 12.9908 40.9035 14.1708C40.3935 14.6808 40.1035 15.3408 40.0435 16.0508L29.3435 17.1308L19.0735 6.87077C18.8935 6.68077 18.5635 6.68077 18.3835 6.87077C9.86349 15.4008 8.97349 28.8508 16.1735 38.4108C14.5735 39.3108 13.3635 40.8008 12.8335 42.7308L8.07349 60.0108H5.75349C5.47349 60.0108 5.26349 60.2308 5.26349 60.5008V64.0008C5.26349 64.2708 5.47349 64.4908 5.75349 64.4908H35.7735C36.0535 64.4908 36.2635 64.2708 36.2635 64.0008V60.5008C36.2635 60.2208 36.0435 60.0108 35.7735 60.0108H31.3835L27.7335 46.7508C30.2435 47.6008 32.8435 48.0408 35.4235 48.0408C41.7135 48.0408 47.8835 45.5708 52.4835 40.9808ZM41.6035 14.8708C41.9935 14.4708 42.5235 14.2708 43.0435 14.2708C43.5635 14.2708 44.0835 14.4708 44.4935 14.8708C44.8735 15.2508 45.0935 15.7708 45.0935 16.3108C45.0935 16.8608 44.8735 17.3708 44.4935 17.7608C43.6935 18.5508 42.4135 18.5508 41.6135 17.7708C41.6035 17.7608 41.6035 17.7508 41.5935 17.7408C41.2135 17.3608 41.0035 16.8508 41.0035 16.3108C41.0035 15.7708 41.2235 15.2608 41.6035 14.8708ZM41.2935 18.7708C41.6135 19.0008 41.9635 19.1508 42.3335 19.2408L41.3335 29.1108L36.1335 23.9208L41.2935 18.7708ZM40.1135 17.0408C40.2035 17.4108 40.3635 17.7608 40.5835 18.0708L35.4335 23.2308L30.2435 18.0408L40.1135 17.0408ZM35.2835 60.9908V63.5008H6.24349V60.9908H35.2835ZM30.3635 60.0108H9.10349L13.8035 43.0008C14.7235 39.6608 17.5735 38.4708 19.7435 38.4708C21.9135 38.4708 24.7535 39.6608 25.6835 43.0008L26.5635 46.1708C26.5635 46.1808 26.5635 46.1908 26.5635 46.1908L30.3635 60.0108ZM27.4135 45.6008L26.6135 42.7208C25.7335 39.5408 23.0335 37.4708 19.7335 37.4708C18.7835 37.4708 17.9035 37.6608 17.0835 37.9708C10.1335 28.9208 10.8335 16.1508 18.7235 7.91077L28.8135 17.9908C28.8135 18.0008 28.8235 18.0108 28.8335 18.0108L51.4335 40.6108C45.0635 46.7408 35.7035 48.6808 27.4135 45.6008Z" fill="white"/>
<path id="Vector_2" d="M45.0939 16.3108C45.0939 16.8608 44.8739 17.3708 44.4939 17.7608C43.6939 18.5508 42.4139 18.5508 41.6139 17.7708C41.6039 17.7608 41.6039 17.7508 41.5939 17.7408C41.2139 17.3608 41.0039 16.8508 41.0039 16.3108C41.0039 15.7708 41.2239 15.2608 41.6039 14.8708C41.9939 14.4708 42.5239 14.2708 43.0439 14.2708C43.5639 14.2708 44.0839 14.4708 44.4939 14.8708C44.8739 15.2608 45.0939 15.7708 45.0939 16.3108Z" fill="#FF6600"/>
<path id="Vector_3" d="M45.0739 16.5607C45.0239 17.0107 44.8139 17.4407 44.4939 17.7607C43.6939 18.5507 42.4139 18.5507 41.6139 17.7707C41.6039 17.7607 41.6039 17.7507 41.5939 17.7407C41.2139 17.3607 41.0039 16.8507 41.0039 16.3107C41.0039 16.0207 41.0639 15.7607 41.1839 15.5007C41.1639 15.5807 41.1639 15.6607 41.1639 15.7407C41.1639 16.2807 41.3739 16.7807 41.7539 17.1707C41.7639 17.1807 41.7639 17.1907 41.7739 17.2007C42.5739 17.9807 43.8539 17.9807 44.6539 17.1907C44.8339 17.0007 44.9739 16.7907 45.0739 16.5607Z" fill="#FF6600"/>
<path id="Vector_4" d="M45.0931 16.3108C45.0931 16.3908 45.0931 16.4808 45.0731 16.5608C44.9731 16.8008 44.8331 17.0008 44.6531 17.1908C43.8531 17.9808 42.5731 17.9808 41.7731 17.2008C41.7631 17.1908 41.7631 17.1808 41.7531 17.1708C41.3731 16.7908 41.1631 16.2808 41.1631 15.7408C41.1631 15.6608 41.1631 15.5808 41.1831 15.5008C41.2831 15.2608 41.4231 15.0608 41.6031 14.8708C41.6331 14.8408 41.6631 14.8108 41.6931 14.7908C41.7231 15.2808 41.9231 15.7408 42.2731 16.0908C42.2831 16.1008 42.2831 16.1108 42.2931 16.1208C43.0631 16.8708 44.2831 16.9008 45.0831 16.1808C45.0931 16.2208 45.0931 16.2708 45.0931 16.3108Z" fill="#FF8C40"/>
<path id="Vector_5" d="M35.2832 60.9907H6.24316V63.5007H35.2832V60.9907Z" fill="#FF8C40"/>
<path id="Vector_6" d="M35.283 60.9907H31.873V63.5007H35.283V60.9907Z" fill="#FFD9C0"/>
<path id="Vector_7" d="M9.65316 60.9907H6.24316V63.5007H9.65316V60.9907Z" fill="#FFB380"/>
<path id="Vector_8" d="M26.5537 46.1807C26.5537 46.1807 26.5537 46.1707 26.5537 46.1607L25.6738 42.9907C24.7438 39.6507 21.9038 38.4607 19.7338 38.4607C17.5638 38.4607 14.7137 39.6507 13.7937 42.9907L9.09375 60.0007H30.3638L26.5537 46.1807ZM19.7338 48.0407C18.1337 48.0407 16.8238 46.7307 16.8238 45.1307C16.8238 43.5207 18.1337 42.2207 19.7338 42.2207C21.3438 42.2207 22.6337 43.5207 22.6337 45.1307C22.6438 46.7307 21.3438 48.0407 19.7338 48.0407Z" fill="#FF8C40"/>
<path id="Vector_9" d="M30.3635 60.0107H26.8035L24.2635 46.1907C24.2635 46.1907 24.2635 46.1807 24.2635 46.1707L23.6835 43.0007C23.1135 39.8707 21.4135 38.6307 20.0235 38.4807C22.1535 38.5707 24.8035 39.8007 25.6835 43.0007L26.5635 46.1707C26.5635 46.1807 26.5635 46.1907 26.5635 46.1907L30.3635 60.0107Z" fill="#FF6600"/>
<path id="Vector_10" d="M19.4635 38.4807C18.0635 38.6307 16.3635 39.8707 15.7935 43.0007L12.6635 60.0107H9.10345L13.8035 43.0007C14.6735 39.7907 17.3335 38.5607 19.4635 38.4807Z" fill="#FF6600"/>
<path id="Vector_11" d="M51.4435 40.6208C45.0635 46.7308 35.7135 48.6708 27.4135 45.6008L26.6135 42.7208C25.7335 39.5408 23.0335 37.4708 19.7335 37.4708C18.7835 37.4708 17.9035 37.6608 17.0835 37.9708C10.1335 28.9208 10.8335 16.1508 18.7235 7.91077L28.8135 17.9908C28.8135 18.0008 28.8235 18.0108 28.8335 18.0108L51.4435 40.6208Z" fill="#FFD9C0"/>
<path id="Vector_12" d="M51.4435 40.6207C45.0635 46.7307 35.7135 48.6707 27.4135 45.6007L26.6135 42.7207C26.5135 42.3707 26.3935 42.0207 26.2535 41.7007C27.6535 42.5007 28.6035 42.9007 28.6035 42.9007C36.0235 45.6507 44.3035 44.3907 50.5235 39.7007L51.4435 40.6207ZM20.3835 37.5107C20.1635 37.4907 19.9535 37.4807 19.7335 37.4807C18.7835 37.4807 17.9035 37.6707 17.0835 37.9807C11.4935 30.7007 10.8535 21.0107 14.9135 13.2207C12.2435 20.4807 13.3035 28.8307 18.2735 35.2907C18.9235 36.0807 19.6435 36.8307 20.3835 37.5107Z" fill="#FFB380"/>
<path id="Vector_13" d="M50.5231 39.7107C44.3031 44.4007 36.0331 45.6607 28.6031 42.9107C28.6031 42.9107 27.6431 42.5107 26.2531 41.7107C25.2131 39.3107 23.0231 37.7307 20.3831 37.5207C19.6431 36.8407 18.9231 36.0907 18.2731 35.2907C13.3131 28.8307 12.2431 20.4807 14.9131 13.2207C15.6531 11.8007 16.5431 10.4507 17.5931 9.19067C15.4231 16.1607 16.6231 23.9907 21.3331 30.1107C25.3631 35.0207 31.6631 37.7307 31.6631 37.7307C37.1331 39.7607 43.0831 39.6007 48.3231 37.5007L50.5231 39.7107Z" fill="#FF8C40"/>
<path id="Vector_14" d="M43.8235 11.1807C46.2235 11.1807 48.1735 13.1307 48.1735 15.5307C48.1735 15.8007 48.3935 16.0207 48.6635 16.0207C48.9335 16.0207 49.1535 15.8007 49.1535 15.5307C49.1535 12.5907 46.7635 10.1907 43.8135 10.1907C43.5435 10.1907 43.3235 10.4107 43.3235 10.6807C43.3235 10.9607 43.5435 11.1807 43.8235 11.1807ZM44.0135 5.2207C43.7435 5.2207 43.5235 5.4407 43.5235 5.7107C43.5235 5.9807 43.7435 6.2007 44.0135 6.2007C49.0535 6.2007 53.1435 10.3007 53.1435 15.3307C53.1435 15.6007 53.3635 15.8207 53.6335 15.8207C53.9035 15.8207 54.1235 15.6007 54.1235 15.3307C54.1335 9.7607 49.5935 5.2207 44.0135 5.2207Z" fill="#FFFCFA"/>
<path id="Vector_15" d="M54.6335 4.73072C51.9035 1.99072 48.2635 0.490723 44.3935 0.490723C44.1235 0.490723 43.9035 0.710723 43.9035 0.980723C43.9035 1.25072 44.1235 1.47072 44.3935 1.47072C48.0035 1.47072 51.3835 2.87072 53.9335 5.42072C56.4835 7.97072 57.8835 11.3507 57.8835 14.9607C57.8835 15.2307 58.1035 15.4507 58.3735 15.4507C58.6435 15.4507 58.8635 15.2307 58.8635 14.9607C58.8635 11.0907 57.3635 7.46072 54.6335 4.73072ZM19.7335 42.2207C18.1335 42.2207 16.8235 43.5207 16.8235 45.1307C16.8235 46.7307 18.1335 48.0407 19.7335 48.0407C21.3435 48.0407 22.6335 46.7307 22.6335 45.1307C22.6435 43.5207 21.3435 42.2207 19.7335 42.2207ZM19.7335 47.0507C18.6735 47.0507 17.8035 46.1807 17.8035 45.1207C17.8035 44.0607 18.6735 43.2007 19.7335 43.2007C20.7935 43.2007 21.6535 44.0607 21.6535 45.1207C21.6535 46.1807 20.7935 47.0507 19.7335 47.0507Z" fill="#FFFCFA"/>
<path id="Vector_16" d="M21.6535 45.1207C21.6535 46.1807 20.7935 47.0507 19.7335 47.0507C18.6735 47.0507 17.8035 46.1807 17.8035 45.1207C17.8035 44.0607 18.6735 43.2007 19.7335 43.2007C20.7935 43.2007 21.6535 44.0607 21.6535 45.1207Z" fill="#FFD9C0"/>
</g>
<defs>
<clipPath id="clip0_1_465">
<rect width="64" height="64" fill="white" transform="translate(0.0634766 0.490723)"/>
</clipPath>
</defs>
</svg>
