<svg width="65" height="65" viewBox="0 0 65 65" fill="none" xmlns="http://www.w3.org/2000/svg">
<g id="Best Seller">
<g id="Best Seller_2">
<path id="Vector" d="M22.5039 51.4774L12.1573 61.8241L9.39726 55.2241L2.73059 52.3974L11.8506 43.2774L12.7439 43.9707C13.6976 44.4697 14.5589 45.1281 15.2906 45.9174C16.4506 47.2507 16.8506 48.9707 19.3973 50.4374C20.3537 50.9865 21.4097 51.3401 22.5039 51.4774ZM61.3973 52.3974L54.7306 55.2241L51.9039 61.8907L41.5573 51.5441C42.6515 51.4067 43.7075 51.0532 44.6639 50.5041C48.1439 48.4907 47.4373 46.2241 50.8506 44.3174C51.3255 44.037 51.7721 43.711 52.1839 43.3441L61.3973 52.3974Z" fill="#0F0E0E"/>
<path id="Vector_2" d="M18.5039 49.824L10.5039 57.824L9.37059 55.1574L6.73059 54.0907L15.1173 45.704C16.6239 47.2907 16.3839 48.2507 18.5039 49.824ZM57.3973 54.0907L54.7306 55.224L53.5973 57.8907L45.5973 49.8907C47.7573 48.2907 47.4773 47.3574 49.0239 45.7707L57.3973 54.0907Z" fill="#EFEFEF"/>
<path id="Vector_3" d="M36.2906 4.29069C37.5724 5.02892 39.0248 5.41958 40.5039 5.42402C41.9869 5.4201 43.4446 5.80761 44.7299 6.5474C46.0152 7.28719 47.0825 8.35306 47.8239 9.63736C48.5559 10.9296 49.6251 11.9987 50.9173 12.7307C52.2016 13.4722 53.2674 14.5394 54.0072 15.8247C54.747 17.11 55.1345 18.5677 55.1306 20.0507C55.135 21.5299 55.5257 22.9822 56.2639 24.264C57.0046 25.5495 57.3944 27.0071 57.3944 28.4907C57.3944 29.9743 57.0046 31.4318 56.2639 32.7174C55.5257 33.9992 55.135 35.4515 55.1306 36.9307C55.1345 38.4137 54.747 39.8714 54.0072 41.1567C53.2674 42.4419 52.2016 43.5092 50.9173 44.2507C49.6251 44.9827 48.5559 46.0518 47.8239 47.344C47.0825 48.6283 46.0152 49.6942 44.7299 50.434C43.4446 51.1738 41.9869 51.5613 40.5039 51.5574C39.0248 51.5618 37.5724 51.9525 36.2906 52.6907C35.0051 53.4313 33.5475 53.8212 32.0639 53.8212C30.5803 53.8212 29.1228 53.4313 27.8373 52.6907C26.5555 51.9525 25.1031 51.5618 23.6239 51.5574C22.141 51.5613 20.6832 51.1738 19.398 50.434C18.1127 49.6942 17.0454 48.6283 16.3039 47.344C15.572 46.0518 14.5028 44.9827 13.2106 44.2507C11.9263 43.5092 10.8604 42.4419 10.1206 41.1567C9.38085 39.8714 8.99335 38.4137 8.99727 36.9307C8.99283 35.4515 8.60216 33.9992 7.86393 32.7174C7.1233 31.4318 6.73346 29.9743 6.73346 28.4907C6.73346 27.0071 7.1233 25.5495 7.86393 24.264C8.60216 22.9822 8.99283 21.5299 8.99727 20.0507C8.99335 18.5677 9.38085 17.11 10.1206 15.8247C10.8604 14.5394 11.9263 13.4722 13.2106 12.7307C14.5028 11.9987 15.572 10.9296 16.3039 9.63736C17.0454 8.35306 18.1127 7.28719 19.398 6.5474C20.6832 5.80761 22.141 5.4201 23.6239 5.42402C25.1031 5.41958 26.5555 5.02892 27.8373 4.29069C29.1228 3.55006 30.5803 3.16022 32.0639 3.16022C33.5475 3.16022 35.0051 3.55006 36.2906 4.29069Z" fill="#0F0E0E"/>
<path id="Vector_4" d="M35.3976 9.38401C36.4111 9.96919 37.5607 10.2773 38.731 10.2773C39.9012 10.2774 41.0508 10.5854 42.0642 11.1705C43.0776 11.7557 43.9192 12.5972 44.5043 13.6107C45.0894 14.6241 45.9309 15.4656 46.9443 16.0507C47.9577 16.6358 48.7993 17.4773 49.3844 18.4908C49.9695 19.5042 50.2776 20.6538 50.2776 21.824C50.2777 22.9943 50.5858 24.1439 51.171 25.1573C51.7561 26.1708 52.0641 27.3204 52.0641 28.4907C52.0641 29.6609 51.7561 30.8105 51.171 31.824C50.5858 32.8375 50.2777 33.9871 50.2776 35.1573C50.2776 36.3276 49.9695 37.4772 49.3844 38.4906C48.7993 39.504 47.9577 40.3456 46.9443 40.9307C45.9309 41.5158 45.0894 42.3573 44.5043 43.3707C43.9192 44.3841 43.0776 45.2257 42.0642 45.8108C41.0508 46.3959 39.9012 46.704 38.731 46.704C37.5607 46.7041 36.4111 47.0122 35.3976 47.5973C34.3842 48.1825 33.2345 48.4905 32.0643 48.4905C30.894 48.4905 29.7444 48.1825 28.731 47.5973C27.7175 47.0122 26.5679 46.7041 25.3976 46.704C24.2274 46.704 23.0778 46.3959 22.0644 45.8108C21.051 45.2257 20.2094 44.3841 19.6243 43.3707C19.0392 42.3573 18.1977 41.5158 17.1843 40.9307C16.1708 40.3456 15.3293 39.504 14.7442 38.4906C14.159 37.4772 13.851 36.3276 13.851 35.1573C13.8509 33.9871 13.5428 32.8375 12.9576 31.824C12.3725 30.8105 12.0645 29.6609 12.0645 28.4907C12.0645 27.3204 12.3725 26.1708 12.9576 25.1573C13.5428 24.1439 13.8509 22.9943 13.851 21.824C13.851 20.6538 14.159 19.5042 14.7442 18.4908C15.3293 17.4773 16.1708 16.6358 17.1843 16.0507C18.1977 15.4656 19.0392 14.6241 19.6243 13.6107C20.2094 12.5972 21.051 11.7557 22.0644 11.1705C23.0778 10.5854 24.2274 10.2774 25.3976 10.2773C26.5679 10.2773 27.7175 9.96919 28.731 9.38401C29.7444 8.79889 30.894 8.49084 32.0643 8.49084C33.2345 8.49084 34.3842 8.79889 35.3976 9.38401Z" fill="#FFD9C0"/>
<path id="Vector_5" d="M62.3439 51.4507L54.1306 43.2507C55.6328 41.4872 56.4597 39.2473 56.4639 36.9307C56.4581 35.687 56.78 34.4638 57.3972 33.384C58.2497 31.8941 58.6982 30.2073 58.6982 28.4907C58.6982 26.7741 58.2497 25.0873 57.3972 23.5974C56.7707 22.5202 56.4396 21.2968 56.4372 20.0507C56.437 18.3356 55.9861 16.6507 55.1296 15.1647C54.2732 13.6787 53.0412 12.4439 51.5572 11.584C50.448 10.9468 49.5278 10.0266 48.8906 8.91738C48.0309 7.455 46.8058 6.24119 45.3355 5.39503C43.8652 4.54886 42.2003 4.0994 40.5039 4.09072C39.2602 4.09651 38.037 3.7746 36.9572 3.15738C35.4673 2.3049 33.7805 1.85645 32.0639 1.85645C30.3473 1.85645 28.6605 2.3049 27.1706 3.15738C26.0934 3.78392 24.87 4.11507 23.6239 4.11738C21.9088 4.11758 20.2238 4.56851 18.7379 5.42498C17.2519 6.28145 16.0171 7.5134 15.1572 8.99738C14.52 10.1066 13.5998 11.0268 12.4906 11.664C11.0282 12.5238 9.81439 13.7488 8.96822 15.2191C8.12205 16.6894 7.67259 18.3544 7.66391 20.0507C7.66971 21.2944 7.3478 22.5177 6.73058 23.5974C5.87809 25.0873 5.42964 26.7741 5.42964 28.4907C5.42964 30.2073 5.87809 31.8941 6.73058 33.384C7.35711 34.4612 7.68827 35.6846 7.69058 36.9307C7.69474 39.2473 8.52168 41.4872 10.0239 43.2507L1.78391 51.4507C1.62899 51.6054 1.51453 51.7958 1.45064 52.0051C1.38675 52.2145 1.37538 52.4364 1.41755 52.6512C1.45972 52.866 1.55413 53.0671 1.69243 53.2368C1.83074 53.4064 2.00869 53.5394 2.21058 53.624L8.31724 56.2907L10.9839 62.3974C11.0685 62.5993 11.2015 62.7772 11.3712 62.9155C11.5409 63.0538 11.742 63.1482 11.9568 63.1904C12.1716 63.2326 12.3934 63.2212 12.6028 63.1573C12.8122 63.0934 13.0026 62.979 13.1572 62.824L23.0639 52.904H23.6772C27.1439 52.904 27.7839 55.1707 32.1172 55.1707C36.4506 55.1707 37.0506 52.904 40.5572 52.904H41.1706L51.0772 62.824C51.2319 62.979 51.4223 63.0934 51.6317 63.1573C51.841 63.2212 52.0629 63.2326 52.2777 63.1904C52.4925 63.1482 52.6936 63.0538 52.8633 62.9155C53.033 62.7772 53.166 62.5993 53.2506 62.3974L55.9172 56.2907L62.0239 53.624C62.218 53.5287 62.3859 53.3877 62.5133 53.213C62.6407 53.0384 62.7237 52.8354 62.7552 52.6215C62.7867 52.4076 62.7657 52.1893 62.6941 51.9853C62.6224 51.7814 62.5022 51.5979 62.3439 51.4507ZM12.6106 59.4507C10.4372 54.3707 10.5172 54.2374 9.85058 53.9574L5.06391 51.944L11.9839 45.0241C13.2886 45.7195 14.3841 46.7505 15.1572 48.0107C16.2474 49.8848 17.9251 51.347 19.9306 52.1707L12.6106 59.4507ZM35.6239 51.4507C34.5407 52.073 33.3132 52.4005 32.0639 52.4005C30.8146 52.4005 29.5872 52.073 28.5039 51.4507C27.0242 50.5816 25.34 50.1214 23.6239 50.1174C22.3767 50.1163 21.1516 49.7883 20.0707 49.166C18.9898 48.5436 18.091 47.6488 17.4639 46.5707C16.5821 45.1432 15.3467 43.9675 13.8772 43.1574C12.7893 42.5246 11.8882 41.6153 11.2653 40.5217C10.6424 39.4281 10.3199 38.1892 10.3306 36.9307C10.3266 35.2146 9.8664 33.5304 8.99724 32.0507C8.37493 30.9675 8.04745 29.74 8.04745 28.4907C8.04745 27.2414 8.37493 26.014 8.99724 24.9307C9.8664 23.451 10.3266 21.7668 10.3306 20.0507C10.3316 18.8035 10.6597 17.5784 11.282 16.4975C11.9043 15.4166 12.7991 14.5178 13.8772 13.8907C15.3684 13.0327 16.6059 11.7952 17.4639 10.304C18.091 9.22596 18.9898 8.33112 20.0707 7.70881C21.1516 7.08649 22.3767 6.75844 23.6239 6.75738C25.34 6.75337 27.0242 6.29321 28.5039 5.42405C29.588 4.80431 30.8152 4.47833 32.0639 4.47833C33.3127 4.47833 34.5398 4.80431 35.6239 5.42405C37.1036 6.29321 38.7878 6.75337 40.5039 6.75738C41.7624 6.74672 43.0013 7.0692 44.0949 7.6921C45.1885 8.315 46.0978 9.21614 46.7306 10.304C47.5886 11.7952 48.8261 13.0327 50.3172 13.8907C51.3953 14.5178 52.2902 15.4166 52.9125 16.4975C53.5348 17.5784 53.8629 18.8035 53.8639 20.0507C53.8679 21.7668 54.3281 23.451 55.1972 24.9307C55.8196 26.014 56.147 27.2414 56.147 28.4907C56.147 29.74 55.8196 30.9675 55.1972 32.0507C54.3281 33.5304 53.8679 35.2146 53.8639 36.9307C53.8679 38.1958 53.5353 39.4391 52.9004 40.5333C52.2654 41.6275 51.3509 42.5331 50.2506 43.1574C48.7923 44.0062 47.5794 45.2191 46.7306 46.6774C46.1035 47.7555 45.2047 48.6503 44.1238 49.2726C43.0429 49.8949 41.8178 50.223 40.5706 50.224C38.8331 50.2121 37.1245 50.6681 35.6239 51.544V51.4507ZM54.2906 53.904C53.6372 54.1841 53.7572 54.1974 51.5306 59.3974L44.1972 52.1707C46.2027 51.347 47.8805 49.8848 48.9706 48.0107C49.7457 46.7521 50.8407 45.7216 52.1439 45.0241L59.0639 51.944L54.2906 53.904Z" fill="#CECECE"/>
<path id="Vector_6" d="M24.0639 19.2907L24.9439 20.8774L26.7305 21.224L25.4905 22.5574L25.7172 24.3574L24.0639 23.5974L22.4106 24.3574L22.6372 22.5574L21.3972 21.224L23.1839 20.8774L24.0639 19.2907ZM40.0639 19.2907L39.1839 20.8774L37.3972 21.224L38.6372 22.5574L38.4105 24.3574L40.0639 23.5974L41.7172 24.3574L41.4905 22.5574L42.7305 21.224L40.9439 20.8774L40.0639 19.2907ZM32.0639 15.2907L32.9439 16.8774L34.7305 17.224L33.4905 18.5574L33.7172 20.3574L32.0639 19.5974L30.4106 20.3574L30.6372 18.5574L29.3972 17.224L31.1839 16.8774L32.0639 15.2907Z" fill="#FF6600"/>
<path id="Vector_7" d="M25.3972 40.4907H26.7306L28.8372 41.5441C29.2058 41.7278 29.612 41.8236 30.0239 41.8241H37.7439C38.391 41.8304 39.0183 41.6013 39.5089 41.1794C39.9995 40.7574 40.32 40.1715 40.4106 39.5307C41.4772 32.0774 41.4239 32.5841 41.4239 32.3174C41.4239 31.9877 41.3585 31.6613 41.2316 31.357C41.1046 31.0528 40.9186 30.7767 40.6842 30.5449C40.4498 30.313 40.1718 30.1299 39.8662 30.0062C39.5606 29.8824 39.2335 29.8205 38.9039 29.8241H33.3972L34.1305 26.1307C34.6639 23.4641 31.0639 22.1307 30.4239 24.0641C29.1972 27.7707 29.8906 26.6641 26.7306 29.8241H25.3972V40.4907Z" fill="#FF6600"/>
<path id="Vector_8" d="M21.3972 28.4907H24.0639C24.4175 28.4907 24.7566 28.6312 25.0067 28.8812C25.2567 29.1313 25.3972 29.4704 25.3972 29.8241V40.4907C25.3972 40.8443 25.2567 41.1835 25.0067 41.4335C24.7566 41.6836 24.4175 41.8241 24.0639 41.8241H21.3972V28.4907Z" fill="#EFEFEF"/>
</g>
</g>
</svg>
