<svg width="65" height="65" viewBox="0 0 65 65" fill="none" xmlns="http://www.w3.org/2000/svg">
<g id="top rated" clip-path="url(#clip0_1_404)">
<path id="Vector" d="M33.1549 2.10668L35.2294 6.30981C35.3167 6.48675 35.4457 6.63982 35.6053 6.75582C35.7649 6.87182 35.9504 6.94727 36.1456 6.97568L40.7842 7.64968C41.009 7.68235 41.2201 7.77725 41.3937 7.92363C41.5673 8.07002 41.6965 8.26207 41.7667 8.47805C41.8369 8.69403 41.8452 8.92534 41.7908 9.14582C41.7364 9.3663 41.6214 9.56716 41.4587 9.72568L38.1022 12.9974C37.961 13.1352 37.8553 13.3052 37.7943 13.4929C37.7333 13.6805 37.7189 13.8802 37.7522 14.0747L38.5446 18.6944C38.583 18.9183 38.558 19.1483 38.4724 19.3587C38.3868 19.569 38.2441 19.7512 38.0604 19.8847C37.8767 20.0182 37.6593 20.0976 37.4328 20.114C37.2063 20.1304 36.9798 20.0831 36.7787 19.9774L32.6299 17.7963C32.4552 17.7045 32.2608 17.6565 32.0635 17.6565C31.8662 17.6565 31.6718 17.7045 31.4971 17.7963L27.3484 19.9776C27.1473 20.0832 26.9208 20.1306 26.6942 20.1142C26.4677 20.0978 26.2503 20.0184 26.0665 19.8849C25.8828 19.7514 25.7401 19.5692 25.6545 19.3588C25.569 19.1484 25.544 18.9183 25.5824 18.6944L26.3747 14.0747C26.4081 13.8802 26.3937 13.6805 26.3327 13.4929C26.2717 13.3052 26.166 13.1352 26.0247 12.9974L22.6682 9.72568C22.5056 9.56716 22.3906 9.3663 22.3362 9.14582C22.2818 8.92534 22.2901 8.69403 22.3603 8.47805C22.4305 8.26207 22.5597 8.07002 22.7333 7.92363C22.9069 7.77725 23.118 7.68235 23.3427 7.64968L27.9812 6.97568C28.1765 6.94729 28.362 6.87185 28.5216 6.75585C28.6813 6.63984 28.8103 6.48677 28.8976 6.30981L30.9721 2.10668C31.0726 1.90306 31.2281 1.73162 31.421 1.61175C31.6139 1.49187 31.8364 1.42834 32.0635 1.42834C32.2906 1.42834 32.5131 1.49187 32.706 1.61175C32.8989 1.73162 33.0543 1.90306 33.1549 2.10668Z" fill="#FF6600"/>
<path id="Vector_2" d="M41.4587 9.72568C41.6213 9.56716 41.7363 9.3663 41.7908 9.14582C41.8452 8.92534 41.8368 8.69404 41.7667 8.47805C41.6965 8.26207 41.5673 8.07003 41.3937 7.92364C41.2201 7.77725 41.0089 7.68235 40.7842 7.64968L36.1457 6.97568C35.9504 6.94729 35.765 6.87185 35.6053 6.75585C35.4457 6.63985 35.3167 6.48677 35.2293 6.30981L33.1547 2.10656C33.0542 1.90294 32.8987 1.7315 32.7058 1.61162C32.513 1.49175 32.2904 1.42822 32.0633 1.42822C31.8362 1.42822 31.6137 1.49175 31.4208 1.61162C31.228 1.7315 31.0725 1.90294 30.972 2.10656L30.6242 2.81131L32.6456 6.90718C32.7329 7.08412 32.862 7.23717 33.0216 7.35315C33.1812 7.46913 33.3667 7.54456 33.562 7.57293L38.2006 8.24693C38.4253 8.2796 38.6364 8.3745 38.8101 8.52089C38.9837 8.66728 39.1129 8.85932 39.183 9.0753C39.2532 9.29129 39.2616 9.52259 39.2071 9.74307C39.1527 9.96355 39.0377 10.1644 38.8751 10.3229L35.5186 13.5947C35.3773 13.7324 35.2716 13.9024 35.2106 14.0901C35.1497 14.2778 35.1352 14.4775 35.1686 14.6719L35.961 19.2918C35.976 19.3792 35.9818 19.468 35.9781 19.5567L36.7786 19.9774C36.9796 20.0831 37.2062 20.1304 37.4326 20.114C37.6591 20.0976 37.8765 20.0182 38.0602 19.8847C38.244 19.7512 38.3867 19.569 38.4722 19.3587C38.5578 19.1483 38.5828 18.9183 38.5445 18.6944L37.7521 14.0747C37.7187 13.8802 37.7332 13.6805 37.7941 13.4929C37.8551 13.3052 37.9608 13.1352 38.1021 12.9974L41.4587 9.72568Z" fill="#FFB380"/>
<path id="Vector_3" d="M10.8892 18.2838L12.7787 22.1126C12.8583 22.2738 12.9758 22.4132 13.1212 22.5189C13.2666 22.6245 13.4356 22.6932 13.6135 22.7191L17.8387 23.333C18.0434 23.3627 18.2357 23.4492 18.3939 23.5825C18.552 23.7158 18.6697 23.8908 18.7336 24.0875C18.7976 24.2843 18.8052 24.495 18.7556 24.6958C18.706 24.8966 18.6012 25.0796 18.4531 25.224L15.3956 28.2042C15.2669 28.3297 15.1706 28.4846 15.1151 28.6555C15.0596 28.8264 15.0464 29.0083 15.0768 29.1855L15.7986 33.3936C15.8336 33.5975 15.8108 33.8071 15.7329 33.9987C15.6549 34.1903 15.5249 34.3563 15.3576 34.4779C15.1902 34.5995 14.9922 34.6719 14.7859 34.6868C14.5796 34.7017 14.3732 34.6586 14.1901 34.5623L10.411 32.5755C10.2518 32.4918 10.0748 32.4481 9.89502 32.4481C9.71526 32.4481 9.53819 32.4918 9.37908 32.5755L5.59996 34.5623C5.41685 34.6586 5.21047 34.7017 5.00415 34.6868C4.79783 34.6719 4.5998 34.5995 4.43245 34.4779C4.2651 34.3563 4.13511 34.1903 4.05718 33.9987C3.97925 33.8071 3.95648 33.5975 3.99146 33.3936L4.71321 29.1855C4.7436 29.0083 4.73046 28.8264 4.67493 28.6555C4.61941 28.4846 4.52315 28.3297 4.39446 28.2042L1.33696 25.224C1.18882 25.0796 1.08403 24.8966 1.03445 24.6958C0.984869 24.495 0.992468 24.2843 1.05639 24.0875C1.12031 23.8908 1.238 23.7158 1.39615 23.5825C1.55431 23.4492 1.74662 23.3627 1.95133 23.333L6.17658 22.7191C6.35446 22.6932 6.5234 22.6245 6.66882 22.5189C6.81424 22.4132 6.93179 22.2738 7.01133 22.1126L8.90083 18.2838C8.99237 18.0983 9.134 17.9421 9.30969 17.8329C9.48539 17.7237 9.68814 17.6658 9.89502 17.6658C10.1019 17.6658 10.3047 17.7237 10.4803 17.8329C10.656 17.9421 10.7977 18.0983 10.8892 18.2838ZM55.2261 18.2838L57.1156 22.1126C57.1951 22.2738 57.3127 22.4132 57.4581 22.5189C57.6035 22.6245 57.7724 22.6932 57.9503 22.7191L62.1756 23.333C62.3803 23.3627 62.5726 23.4492 62.7308 23.5825C62.8889 23.7158 63.0066 23.8908 63.0705 24.0875C63.1344 24.2843 63.142 24.495 63.0925 24.6958C63.0429 24.8966 62.9381 25.0796 62.79 25.224L59.7325 28.2042C59.6038 28.3297 59.5075 28.4846 59.452 28.6555C59.3965 28.8264 59.3833 29.0083 59.4137 29.1855L60.1355 33.3936C60.1704 33.5975 60.1477 33.8071 60.0697 33.9987C59.9918 34.1903 59.8618 34.3563 59.6945 34.4779C59.5271 34.5995 59.3291 34.6719 59.1228 34.6868C58.9164 34.7017 58.7101 34.6586 58.527 34.5623L54.7478 32.5755C54.5887 32.4918 54.4117 32.4481 54.2319 32.4481C54.0521 32.4481 53.8751 32.4918 53.716 32.5755L49.9368 34.5623C49.7537 34.6586 49.5473 34.7017 49.341 34.6868C49.1347 34.6719 48.9367 34.5995 48.7693 34.4779C48.602 34.3563 48.472 34.1903 48.3941 33.9987C48.3161 33.8071 48.2934 33.5975 48.3283 33.3936L49.0501 29.1855C49.0805 29.0083 49.0673 28.8264 49.0118 28.6555C48.9563 28.4846 48.86 28.3297 48.7313 28.2042L45.6738 25.224C45.5257 25.0796 45.4209 24.8966 45.3713 24.6958C45.3217 24.495 45.3293 24.2843 45.3933 24.0875C45.4572 23.8908 45.5749 23.7158 45.733 23.5825C45.8912 23.4492 46.0835 23.3627 46.2882 23.333L50.5135 22.7191C50.6913 22.6932 50.8603 22.6245 51.0057 22.5189C51.1511 22.4132 51.2687 22.2738 51.3482 22.1126L53.2377 18.2838C53.3293 18.0983 53.4709 17.9421 53.6466 17.8329C53.8223 17.7237 54.025 17.6658 54.2319 17.6658C54.4388 17.6658 54.6415 17.7237 54.8172 17.8329C54.9929 17.9421 55.1345 18.0983 55.2261 18.2838Z" fill="#FF6600"/>
<path id="Vector_4" d="M18.4535 25.224C18.6016 25.0796 18.7064 24.8966 18.756 24.6958C18.8056 24.495 18.798 24.2843 18.7341 24.0875C18.6702 23.8908 18.5525 23.7158 18.3943 23.5825C18.2362 23.4492 18.0438 23.3627 17.8391 23.333L13.6139 22.7191C13.436 22.6932 13.2671 22.6245 13.1216 22.5189C12.9762 22.4132 12.8587 22.2738 12.7791 22.1126L10.8896 18.2838C10.7981 18.0983 10.6565 17.9421 10.4808 17.8329C10.3051 17.7237 10.1023 17.6658 9.89544 17.6658C9.68857 17.6658 9.48581 17.7237 9.31012 17.8329C9.13443 17.9421 8.9928 18.0983 8.90126 18.2838L8.58301 18.9288C8.60051 18.9578 8.61901 18.9856 8.63451 19.017L10.5241 22.8457C10.6037 23.0069 10.7212 23.1462 10.8666 23.2518C11.012 23.3574 11.1809 23.4261 11.3588 23.452L15.584 24.0661C15.7887 24.0959 15.981 24.1823 16.1391 24.3156C16.2972 24.449 16.4149 24.6239 16.4788 24.8206C16.5427 25.0173 16.5504 25.228 16.5008 25.4288C16.4512 25.6296 16.3465 25.8126 16.1984 25.957L13.141 28.9372C13.0123 29.0627 12.9161 29.2176 12.8605 29.3885C12.805 29.5594 12.7919 29.7413 12.8223 29.9185L13.5439 34.1266C13.5498 34.1608 13.5511 34.1941 13.5539 34.2276L14.1905 34.5623C14.3736 34.6586 14.58 34.7017 14.7863 34.6868C14.9926 34.6719 15.1907 34.5995 15.358 34.4779C15.5254 34.3563 15.6554 34.1903 15.7333 33.9987C15.8112 33.8071 15.834 33.5975 15.799 33.3936L15.0773 29.1855C15.0469 29.0083 15.06 28.8265 15.1155 28.6555C15.1711 28.4846 15.2673 28.3297 15.396 28.2042L18.4535 25.224Z" fill="#FFB380"/>
<path id="Vector_5" d="M20.5211 44.8338C20.5819 44.5943 20.7122 44.3781 20.8957 44.2126C22.7006 42.5793 24.4183 40.8521 26.0417 39.0382C28.0476 36.7969 29.9057 34.4276 31.6042 31.9453C31.9023 31.5154 32.3306 31.1925 32.8261 31.0244C33.3215 30.8562 33.8578 30.8516 34.3561 31.0112L34.4082 31.0275C34.7281 31.1269 35.0242 31.2907 35.2786 31.5087C35.5329 31.7268 35.7399 31.9945 35.8871 32.2954C36.0342 32.5963 36.1184 32.9241 36.1343 33.2587C36.1502 33.5933 36.0976 33.9277 35.9797 34.2412L33.8135 40.0023C33.7779 40.0969 33.7658 40.1987 33.7782 40.299C33.7906 40.3992 33.8271 40.495 33.8846 40.5781C33.9421 40.6612 34.0189 40.7291 34.1084 40.776C34.1979 40.8228 34.2974 40.8473 34.3985 40.8473H45.0393C46.5108 40.8473 47.7641 41.9916 47.8165 43.4622C47.8297 43.8267 47.7694 44.1901 47.6391 44.5307C47.5088 44.8714 47.3112 45.1823 47.058 45.4448C46.8049 45.7074 46.5014 45.9162 46.1657 46.0588C45.83 46.2015 45.4691 46.275 45.1043 46.275H45.0393C46.5108 46.275 47.7642 47.4192 47.8165 48.89C47.8297 49.2544 47.7694 49.6179 47.6391 49.9585C47.5088 50.2991 47.3112 50.61 47.058 50.8726C46.8049 51.1351 46.5014 51.344 46.1657 51.4866C45.83 51.6292 45.4691 51.7027 45.1043 51.7027H43.2301C44.7016 51.7027 45.955 52.847 46.0072 54.3176C46.0205 54.6821 45.9602 55.0455 45.8299 55.3861C45.6996 55.7267 45.5019 56.0376 45.2488 56.3002C44.9957 56.5627 44.6922 56.7715 44.3565 56.9142C44.0209 57.0568 43.6599 57.1303 43.2952 57.1303H41.486C42.2057 57.1303 42.8959 57.4163 43.4049 57.9252C43.9138 58.4341 44.1997 59.1244 44.1997 59.8441V60.1841C44.2004 60.8486 43.9575 61.4903 43.517 61.9879C43.0765 62.4854 42.4689 62.8043 41.8092 62.8841C33.697 63.8516 25.0448 64.0873 17.2205 61.3866C17.1755 61.3711 16.4055 61.1176 16.4083 61.1063L20.5211 44.8338ZM39.7206 61.3868C39.6756 61.3712 38.9056 61.1177 38.9083 61.1065L39.7206 61.3868Z" fill="#FFD9C0"/>
<path id="Vector_6" d="M0.0634766 42.9594H17.1514C17.5677 42.9593 17.98 43.0413 18.3647 43.2007C18.7494 43.36 19.0989 43.5935 19.3933 43.8879C19.6877 44.1823 19.9213 44.5319 20.0806 44.9165C20.24 45.3012 20.322 45.7135 20.322 46.1299V60.2505C20.322 60.6668 20.24 61.0791 20.0806 61.4638C19.9213 61.8485 19.6877 62.198 19.3933 62.4924C19.0989 62.7868 18.7494 63.0203 18.3647 63.1797C17.98 63.339 17.5677 63.421 17.1514 63.421H0.0634766" fill="#CECECE"/>
<path id="Vector_7" d="M14.5333 59.671C15.5689 59.671 16.4083 58.8316 16.4083 57.796C16.4083 56.7605 15.5689 55.921 14.5333 55.921C13.4978 55.921 12.6583 56.7605 12.6583 57.796C12.6583 58.8316 13.4978 59.671 14.5333 59.671Z" fill="white"/>
<path id="Vector_8" d="M25.3702 13.6686C25.4027 13.7002 25.427 13.7393 25.441 13.7824C25.4551 13.8255 25.4584 13.8714 25.4507 13.9161L24.6582 18.5361C24.5903 18.9323 24.6346 19.3397 24.7861 19.712C24.9375 20.0844 25.1902 20.407 25.5154 20.6433C25.8407 20.8796 26.2256 21.0202 26.6266 21.0492C27.0275 21.0782 27.4286 20.9944 27.7845 20.8073L31.9334 18.6261C31.9735 18.6049 32.0181 18.5939 32.0634 18.5939C32.1087 18.5939 32.1534 18.6049 32.1935 18.6261L36.3424 20.8073C36.6982 20.9944 37.0993 21.0782 37.5003 21.0492C37.9013 21.0202 38.2862 20.8796 38.6115 20.6433C38.9367 20.407 39.1894 20.0844 39.3408 19.712C39.4923 19.3396 39.5366 18.9322 39.4686 18.5359L38.6762 13.9159C38.6686 13.8713 38.6719 13.8255 38.6859 13.7824C38.6999 13.7393 38.7242 13.7003 38.7566 13.6687L42.1131 10.3969C42.401 10.1163 42.6046 9.76077 42.701 9.37046C42.7974 8.98015 42.7826 8.57066 42.6584 8.18831C42.5342 7.80595 42.3054 7.46599 41.9981 7.20685C41.6907 6.94771 41.317 6.77974 40.9191 6.72193L36.2805 6.04793C36.2356 6.04139 36.193 6.02403 36.1563 5.99736C36.1197 5.97068 36.09 5.93549 36.07 5.89481L33.9955 1.69168C33.8176 1.33116 33.5423 1.0276 33.2009 0.815345C32.8595 0.603089 32.4654 0.490601 32.0634 0.490601C31.6614 0.490601 31.2674 0.603089 30.9259 0.815345C30.5845 1.0276 30.3093 1.33116 30.1314 1.69168L28.0569 5.89493C28.0368 5.93557 28.0072 5.97073 27.9705 5.99739C27.9339 6.02404 27.8913 6.04139 27.8465 6.04793L23.208 6.72193C22.8101 6.77972 22.4364 6.94767 22.129 7.20681C21.8216 7.46594 21.5928 7.8059 21.4686 8.18826C21.3444 8.57062 21.3296 8.98011 21.4259 9.37043C21.5223 9.76075 21.7259 10.1163 22.0139 10.3969L25.3702 13.6686ZM23.2519 8.76756C23.2664 8.71705 23.2956 8.67199 23.3357 8.63812C23.3759 8.60424 23.4252 8.58308 23.4775 8.57731L28.1161 7.90331C28.4618 7.85313 28.7901 7.71962 29.0727 7.51429C29.3554 7.30896 29.5838 7.03797 29.7384 6.72468L31.8127 2.52143C31.8358 2.47464 31.8715 2.43524 31.9158 2.40768C31.9601 2.38013 32.0112 2.36553 32.0634 2.36553C32.1156 2.36553 32.1667 2.38013 32.211 2.40768C32.2553 2.43524 32.291 2.47464 32.3141 2.52143L34.3885 6.72468C34.543 7.038 34.7715 7.30902 35.0541 7.51438C35.3368 7.71973 35.6651 7.85325 36.0109 7.90343L40.6495 8.57743C40.7011 8.58492 40.7496 8.60671 40.7895 8.64033C40.8294 8.67396 40.8591 8.71808 40.8752 8.76771C40.8913 8.81733 40.8932 8.87048 40.8807 8.92113C40.8682 8.97178 40.8417 9.01791 40.8044 9.05431L37.4479 12.3262C37.1977 12.57 37.0106 12.871 36.9026 13.2032C36.7947 13.5354 36.7691 13.8889 36.8282 14.2332L37.6206 18.8529C37.6294 18.9043 37.6236 18.9572 37.604 19.0055C37.5843 19.0538 37.5516 19.0957 37.5094 19.1263C37.4672 19.157 37.4172 19.1752 37.3652 19.179C37.3132 19.1828 37.2612 19.1719 37.215 19.1477L33.0661 16.9664C32.7569 16.8039 32.4128 16.7189 32.0635 16.7189C31.7141 16.7189 31.3701 16.8039 31.0609 16.9664L26.912 19.1477C26.8658 19.172 26.8138 19.1829 26.7617 19.1791C26.7097 19.1754 26.6598 19.1571 26.6176 19.1265C26.5754 19.0958 26.5426 19.054 26.5229 19.0056C26.5033 18.9573 26.4975 18.9045 26.5064 18.8531L27.2987 14.2333C27.3578 13.889 27.3323 13.5355 27.2243 13.2033C27.1164 12.871 26.9293 12.57 26.6791 12.3262L23.3226 9.05431C23.2837 9.01894 23.2562 8.9728 23.2436 8.92176C23.231 8.87072 23.2339 8.81709 23.2519 8.76768V8.76756ZM63.4444 25.8952C63.7177 25.6287 63.911 25.291 64.0025 24.9203C64.0939 24.5497 64.0799 24.1609 63.9619 23.7978C63.8439 23.4347 63.6267 23.1119 63.3349 22.8658C63.043 22.6197 62.6881 22.4601 62.3104 22.4052L58.0852 21.7912C58.0577 21.7872 58.0316 21.7766 58.0092 21.7603C57.9867 21.744 57.9685 21.7225 57.9562 21.6976L56.0667 17.8688C55.8977 17.5265 55.6363 17.2383 55.3121 17.0368C54.9878 16.8352 54.6137 16.7284 54.2319 16.7284C53.8501 16.7284 53.476 16.8352 53.1518 17.0368C52.8275 17.2383 52.5661 17.5265 52.3971 17.8688L50.5075 21.6976C50.4952 21.7224 50.4771 21.744 50.4547 21.7603C50.4322 21.7766 50.4062 21.7873 50.3787 21.7913L46.1535 22.4052C45.7757 22.4601 45.4207 22.6196 45.1289 22.8657C44.837 23.1118 44.6198 23.4346 44.5018 23.7977C44.3838 24.1608 44.3698 24.5497 44.4612 24.9204C44.5527 25.291 44.7461 25.6287 45.0195 25.8952L48.0769 28.8754C48.0967 28.8948 48.1116 28.9187 48.1201 28.9451C48.1287 28.9715 48.1307 28.9996 48.126 29.0269L47.4042 33.2351C47.3397 33.6114 47.3818 33.9982 47.5256 34.3518C47.6695 34.7055 47.9094 35.0118 48.2183 35.2362C48.5272 35.4606 48.8927 35.5942 49.2735 35.6217C49.6543 35.6492 50.0352 35.5697 50.3731 35.3921L54.1522 33.4052C54.1768 33.3923 54.2041 33.3855 54.2318 33.3855C54.2596 33.3855 54.2869 33.3923 54.3115 33.4052L58.0907 35.3921C58.4287 35.5697 58.8096 35.6492 59.1903 35.6216C59.5711 35.5941 59.9366 35.4605 60.2454 35.2361C60.5543 35.0117 60.7942 34.7054 60.938 34.3518C61.0819 33.9982 61.124 33.6113 61.0595 33.2351L60.3377 29.0268C60.3331 28.9995 60.3351 28.9715 60.3437 28.9451C60.3523 28.9188 60.3671 28.8949 60.387 28.8756L63.4444 25.8952ZM59.0781 27.5328C58.8405 27.7644 58.6628 28.0502 58.5603 28.3657C58.4578 28.6813 58.4336 29.017 58.4897 29.3439L59.2115 33.5521C59.2169 33.5835 59.2133 33.6159 59.2013 33.6454C59.1893 33.675 59.1692 33.7006 59.1434 33.7194C59.1176 33.7381 59.087 33.7493 59.0552 33.7516C59.0233 33.7539 58.9915 33.7473 58.9632 33.7324L55.184 31.7456C54.8903 31.5912 54.5636 31.5105 54.2318 31.5105C53.9001 31.5105 53.5734 31.5912 53.2797 31.7456L49.5006 33.7324C49.4723 33.7473 49.4405 33.7539 49.4087 33.7516C49.3768 33.7493 49.3463 33.7381 49.3204 33.7194C49.2946 33.7006 49.2745 33.675 49.2625 33.6454C49.2505 33.6159 49.247 33.5835 49.2523 33.5521L49.9741 29.3439C50.0302 29.0169 50.006 28.6812 49.9035 28.3657C49.8009 28.0501 49.6232 27.7642 49.3856 27.5327L46.3282 24.5527C46.3054 24.5304 46.2892 24.5021 46.2816 24.4711C46.2739 24.4401 46.2751 24.4076 46.285 24.3772C46.2948 24.3468 46.313 24.3198 46.3374 24.2992C46.3618 24.2787 46.3915 24.2653 46.4231 24.2607L50.6483 23.6467C50.9766 23.599 51.2884 23.4722 51.5568 23.2772C51.8251 23.0822 52.0421 22.8249 52.1889 22.5274L54.0785 18.6987C54.0926 18.6701 54.1145 18.646 54.1416 18.6291C54.1687 18.6123 54.2 18.6033 54.2319 18.6033C54.2638 18.6033 54.2951 18.6123 54.3222 18.6291C54.3494 18.646 54.3712 18.6701 54.3854 18.6987L56.2749 22.5274C56.4217 22.8249 56.6386 23.0823 56.907 23.2772C57.1754 23.4722 57.4872 23.599 57.8155 23.6467L62.0407 24.2607C62.0723 24.2653 62.102 24.2786 62.1264 24.2992C62.1508 24.3198 62.169 24.3468 62.1789 24.3771C62.1888 24.4075 62.1899 24.44 62.1823 24.471C62.1746 24.502 62.1585 24.5303 62.1356 24.5526L59.0781 27.5328ZM3.73998 28.8754C3.75987 28.8948 3.77476 28.9187 3.78334 28.9451C3.79192 28.9715 3.79394 28.9996 3.78923 29.0269L3.0676 33.2351C3.00312 33.6113 3.04518 33.9982 3.18904 34.3518C3.3329 34.7054 3.57281 35.0117 3.88166 35.2361C4.19052 35.4605 4.55598 35.5941 4.93675 35.6216C5.31752 35.6492 5.69841 35.5697 6.03635 35.3921L9.81548 33.4052C9.84003 33.3923 9.86736 33.3855 9.8951 33.3855C9.92285 33.3855 9.95017 33.3923 9.97473 33.4052L13.754 35.3921C14.0919 35.5697 14.4728 35.6492 14.8536 35.6216C15.2343 35.5941 15.5998 35.4605 15.9087 35.2361C16.2175 35.0117 16.4574 34.7054 16.6013 34.3518C16.7451 33.9982 16.7872 33.6113 16.7227 33.2351L16.001 29.0268C15.9963 28.9995 15.9983 28.9715 16.0069 28.9451C16.0154 28.9188 16.0303 28.8949 16.0501 28.8756L19.1076 25.8952C19.3809 25.6287 19.5743 25.291 19.6657 24.9203C19.7572 24.5497 19.7431 24.1609 19.6252 23.7978C19.5072 23.4347 19.29 23.1119 18.9981 22.8658C18.7063 22.6197 18.3514 22.4601 17.9736 22.4052L13.7485 21.7912C13.721 21.7872 13.6949 21.7766 13.6725 21.7603C13.65 21.744 13.6319 21.7224 13.6196 21.6976L11.73 17.8688C11.5622 17.5255 11.3011 17.2365 10.9766 17.0347C10.6521 16.833 10.2773 16.7268 9.89523 16.7283C9.51311 16.7268 9.1383 16.833 8.81375 17.0347C8.48921 17.2364 8.22806 17.5255 8.06023 17.8688L6.17073 21.6976C6.15847 21.7224 6.14034 21.744 6.11791 21.7603C6.09549 21.7766 6.06943 21.7873 6.04198 21.7913L1.81673 22.4051C1.43889 22.4599 1.08394 22.6195 0.792032 22.8656C0.500122 23.1117 0.282892 23.4345 0.164908 23.7976C0.0469248 24.1608 0.0328942 24.5497 0.124403 24.9203C0.215912 25.291 0.40931 25.6287 0.682727 25.8952L3.73998 28.8754ZM1.9481 24.3771C1.95651 24.3459 1.97427 24.318 1.99898 24.2972C2.0237 24.2764 2.05418 24.2637 2.08635 24.2607L6.31148 23.6467C6.63978 23.599 6.95156 23.4722 7.21996 23.2772C7.48835 23.0823 7.7053 22.8249 7.8521 22.5274L9.74173 18.6987C9.75586 18.6701 9.77772 18.646 9.80484 18.6291C9.83195 18.6123 9.86324 18.6033 9.89516 18.6033C9.92709 18.6033 9.95838 18.6123 9.98549 18.6291C10.0126 18.646 10.0345 18.6701 10.0486 18.6987L11.9381 22.5274C12.0849 22.8249 12.3019 23.0822 12.5703 23.2772C12.8386 23.4722 13.1504 23.599 13.4787 23.6467L17.704 24.2607C17.7356 24.2653 17.7652 24.2786 17.7896 24.2992C17.814 24.3198 17.8322 24.3468 17.8421 24.3771C17.8519 24.4075 17.8531 24.44 17.8455 24.471C17.8379 24.502 17.8218 24.5302 17.799 24.5526L14.7415 27.5328C14.5039 27.7643 14.3262 28.0502 14.2236 28.3657C14.1211 28.6812 14.0969 29.017 14.153 29.3439L14.8747 33.5521C14.8801 33.5835 14.8766 33.6159 14.8646 33.6454C14.8525 33.675 14.8325 33.7006 14.8066 33.7194C14.7808 33.7381 14.7503 33.7493 14.7184 33.7516C14.6866 33.7539 14.6547 33.7473 14.6265 33.7324L10.8472 31.7456C10.5536 31.5912 10.2268 31.5105 9.8951 31.5105C9.56336 31.5105 9.2366 31.5912 8.94298 31.7456L5.16398 33.7324C5.13571 33.7473 5.10385 33.754 5.07199 33.7517C5.04013 33.7494 5.00955 33.7382 4.9837 33.7195C4.95786 33.7007 4.93778 33.6751 4.92575 33.6455C4.91371 33.6159 4.9102 33.5835 4.9156 33.5521L5.63735 29.3439C5.6935 29.0169 5.66926 28.6812 5.56674 28.3656C5.46421 28.0501 5.28648 27.7642 5.04885 27.5327L1.99148 24.5527C1.9672 24.5313 1.95005 24.503 1.94231 24.4717C1.93458 24.4403 1.93665 24.4072 1.94823 24.3771H1.9481ZM17.346 57.7958C17.346 57.2396 17.181 56.6958 16.872 56.2333C16.5629 55.7708 16.1237 55.4103 15.6098 55.1974C15.0959 54.9845 14.5304 54.9288 13.9848 55.0373C13.4392 55.1459 12.9381 55.4137 12.5447 55.8071C12.1514 56.2004 11.8835 56.7015 11.775 57.2471C11.6665 57.7927 11.7222 58.3582 11.9351 58.8721C12.1479 59.386 12.5084 59.8253 12.9709 60.1343C13.4334 60.4434 13.9772 60.6083 14.5335 60.6083C15.2791 60.6075 15.994 60.3109 16.5213 59.7836C17.0486 59.2564 17.3451 58.5415 17.346 57.7958ZM13.596 57.7958C13.596 57.6104 13.651 57.4291 13.754 57.275C13.857 57.1208 14.0034 57.0006 14.1747 56.9297C14.346 56.8587 14.5345 56.8401 14.7164 56.8763C14.8982 56.9125 15.0653 57.0018 15.1964 57.1329C15.3275 57.264 15.4168 57.4311 15.453 57.6129C15.4891 57.7948 15.4706 57.9833 15.3996 58.1546C15.3287 58.3259 15.2085 58.4723 15.0543 58.5753C14.9002 58.6783 14.7189 58.7333 14.5335 58.7333C14.2849 58.733 14.0466 58.6342 13.8709 58.4584C13.6951 58.2827 13.5962 58.0444 13.596 57.7958ZM48.753 43.4292C48.6854 41.4883 47.0196 39.9094 45.0399 39.9094H34.8498L36.8574 34.5704C37.0201 34.1373 37.0927 33.6754 37.0706 33.2132C37.0485 32.751 36.9322 32.2981 36.7289 31.8825C36.5255 31.4668 36.2394 31.0971 35.888 30.7959C35.5367 30.4948 35.1275 30.2686 34.6856 30.1313L34.6343 30.1154C33.9449 29.8941 33.2025 29.9011 32.5173 30.1354C31.8322 30.3697 31.2409 30.8188 30.8314 31.4159C29.1547 33.8639 27.3217 36.2011 25.3439 38.4128C23.7505 40.1918 22.0656 41.8866 20.296 43.4903C19.9111 43.0305 19.4301 42.6607 18.8868 42.407C18.3435 42.1532 17.7511 42.0218 17.1515 42.0218H1.00098C0.752336 42.0218 0.513879 42.1206 0.338064 42.2964C0.162249 42.4722 0.0634766 42.7107 0.0634766 42.9593C0.0634766 43.208 0.162249 43.4464 0.338064 43.6222C0.513879 43.798 0.752336 43.8968 1.00098 43.8968H17.1514C17.7434 43.8975 18.311 44.1329 18.7296 44.5516C19.1482 44.9702 19.3837 45.5378 19.3844 46.1298V60.2503C19.3837 60.8423 19.1482 61.4099 18.7296 61.8285C18.311 62.2472 17.7434 62.4827 17.1514 62.4833H1.00098C0.752336 62.4833 0.513879 62.5821 0.338064 62.7579C0.162249 62.9337 0.0634766 63.1722 0.0634766 63.4208C0.0634766 63.6695 0.162249 63.9079 0.338064 64.0837C0.513879 64.2595 0.752336 64.3583 1.00098 64.3583H17.1514C18.2229 64.3588 19.2519 63.9392 20.0175 63.1894C22.57 63.8286 26.2001 64.4827 31.6016 64.4826C35.0517 64.4641 38.4977 64.2413 41.9215 63.8152C42.8086 63.7075 43.6255 63.2786 44.218 62.6097C44.8105 61.9407 45.1375 61.0779 45.1372 60.1843V59.8443C45.1378 59.136 44.9311 58.443 44.5426 57.8508C45.2681 57.586 45.8911 57.0984 46.3225 56.4578C46.7539 55.8172 46.9715 55.0565 46.9441 54.2847C46.9216 53.6215 46.7161 52.9775 46.3504 52.4238C46.9444 52.2119 47.4728 51.8486 47.8834 51.3699C48.2939 50.8911 48.5724 50.3135 48.6913 49.6941C48.8101 49.0747 48.7652 48.4351 48.5611 47.8383C48.3569 47.2416 48.0005 46.7085 47.5271 46.2918C47.5975 46.2296 47.6656 46.1647 47.7311 46.0973C48.0733 45.745 48.3403 45.3268 48.5159 44.8682C48.6916 44.4095 48.7723 43.9199 48.753 43.4292ZM40.581 47.2132H45.0397C46.021 47.2132 46.8462 47.9798 46.8791 48.9228C46.8881 49.1615 46.8488 49.3995 46.7637 49.6226C46.6786 49.8457 46.5493 50.0494 46.3837 50.2215C46.218 50.3935 46.0194 50.5304 45.7997 50.6239C45.5799 50.7174 45.3435 50.7656 45.1047 50.7657H40.581C40.3323 50.7657 40.0939 50.8645 39.9181 51.0403C39.7422 51.2161 39.6435 51.4545 39.6435 51.7032C39.6435 51.9518 39.7422 52.1903 39.9181 52.3661C40.0939 52.5419 40.3323 52.6407 40.581 52.6407H43.2297C44.211 52.6407 45.0366 53.4082 45.0704 54.3516C45.0792 54.5902 45.0398 54.8282 44.9545 55.0513C44.8692 55.2744 44.7398 55.478 44.5741 55.6499C44.4083 55.8218 44.2096 55.9585 43.9898 56.0519C43.7699 56.1452 43.5336 56.1933 43.2947 56.1932H40.581C40.3323 56.1932 40.0939 56.292 39.9181 56.4678C39.7422 56.6436 39.6435 56.882 39.6435 57.1307C39.6435 57.3793 39.7422 57.6178 39.9181 57.7936C40.0939 57.9694 40.3323 58.0682 40.581 58.0682H41.486C41.9569 58.0687 42.4084 58.256 42.7414 58.589C43.0744 58.922 43.2617 59.3735 43.2622 59.8444V60.1844C43.2628 60.6194 43.104 61.0395 42.816 61.3654C42.5279 61.6914 42.1305 61.9005 41.6987 61.9534C36.3379 62.5927 28.4846 63.2159 21.0615 61.5084C21.1927 61.102 21.2595 60.6774 21.2594 60.2503V46.1298C21.2594 46.0174 21.2536 45.9066 21.2447 45.7964L21.4294 45.0662C21.4448 45.0049 21.4781 44.9495 21.525 44.9071C23.3539 43.2514 25.095 41.5011 26.7409 39.6633C28.773 37.3909 30.6563 34.9897 32.3789 32.4746C32.5633 32.2095 32.8284 32.011 33.1347 31.9087C33.4409 31.8063 33.7721 31.8055 34.0788 31.9063L34.13 31.9221C34.3279 31.9837 34.5111 32.0851 34.6684 32.22C34.8257 32.3549 34.9538 32.5206 35.0448 32.7068C35.1358 32.893 35.1879 33.0958 35.1978 33.3028C35.2076 33.5098 35.1751 33.7167 35.1022 33.9107L32.936 39.6718C32.8471 39.9082 32.8169 40.1627 32.8479 40.4133C32.8789 40.664 32.9702 40.9034 33.114 41.1111C33.2577 41.3188 33.4497 41.4885 33.6734 41.6057C33.8971 41.723 34.1459 41.7843 34.3985 41.7843H45.0397C46.021 41.7843 46.8461 42.5516 46.8791 43.4953C46.888 43.7339 46.8487 43.9719 46.7635 44.195C46.6783 44.4181 46.5491 44.6217 46.3834 44.7937C46.2178 44.9657 46.0192 45.1026 45.7995 45.1961C45.5798 45.2896 45.3435 45.3379 45.1047 45.3381H40.581C40.3323 45.3381 40.0939 45.4368 39.9181 45.6126C39.7422 45.7885 39.6435 46.0269 39.6435 46.2756C39.6435 46.5242 39.7422 46.7627 39.9181 46.9385C40.0939 47.1143 40.3323 47.2131 40.581 47.2131V47.2132Z" fill="#0F0E0E"/>
</g>
<defs>
<clipPath id="clip0_1_404">
<rect width="64" height="64" fill="white" transform="translate(0.0634766 0.490723)"/>
</clipPath>
</defs>
</svg>
