<svg width="65" height="65" viewBox="0 0 65 65" fill="none" xmlns="http://www.w3.org/2000/svg">
<g id="target" clip-path="url(#clip0_1_450)">
<path id="Vector" d="M30.1135 61.4407C45.0252 61.4407 57.1135 49.3524 57.1135 34.4407C57.1135 19.529 45.0252 7.44067 30.1135 7.44067C15.2018 7.44067 3.11346 19.529 3.11346 34.4407C3.11346 49.3524 15.2018 61.4407 30.1135 61.4407Z" fill="#FF6600"/>
<path id="Vector_2" d="M5.11426 34.4404C5.11735 27.4567 7.82841 20.7463 12.6773 15.7203C17.5262 10.6943 24.1351 7.74444 31.1143 7.49097C30.7797 7.47865 30.4519 7.44043 30.1143 7.44043C22.9534 7.44043 16.0859 10.2851 11.0224 15.3485C5.95889 20.412 3.11426 27.2796 3.11426 34.4404C3.11426 41.6013 5.95889 48.4688 11.0224 53.5323C16.0859 58.5958 22.9534 61.4404 30.1143 61.4404C30.4519 61.4404 30.7797 61.4022 31.1143 61.3899C24.1351 61.1364 17.5262 58.1866 12.6773 53.1606C7.82838 48.1346 5.11733 41.4242 5.11426 34.4404Z" fill="#FFB380"/>
<path id="Vector_3" d="M30.1135 55.4407C41.7114 55.4407 51.1135 46.0387 51.1135 34.4407C51.1135 22.8427 41.7114 13.4407 30.1135 13.4407C18.5155 13.4407 9.11346 22.8427 9.11346 34.4407C9.11346 46.0387 18.5155 55.4407 30.1135 55.4407Z" fill="#FFFCFA"/>
<path id="Vector_4" d="M45.123 34.4307C45.123 34.7716 45.103 35.1122 45.063 35.4507C44.8707 38.7308 43.5817 41.8512 41.403 44.3107C40.9705 44.8232 40.4955 45.2982 39.983 45.7307C37.5187 47.8988 34.3998 49.1801 31.123 49.3707C30.4588 49.4506 29.7873 49.4506 29.123 49.3707C25.5017 49.1495 22.086 47.6124 19.5187 45.0488C16.9514 42.4852 15.4095 39.0718 15.183 35.4507C15.1431 35.1122 15.1231 34.7716 15.123 34.4307C15.1231 34.1031 15.1431 33.7759 15.183 33.4507C15.3715 30.1638 16.6607 27.0358 18.843 24.5707C19.2634 24.0538 19.7322 23.5783 20.243 23.1507C22.7102 20.9716 25.8369 19.6829 29.123 19.4907C29.7873 19.4106 30.4588 19.4106 31.123 19.4907C34.7493 19.7175 38.1677 21.2616 40.735 23.8326C43.3023 26.4036 44.8415 29.8242 45.063 33.4507C45.103 33.7759 45.123 34.1031 45.123 34.4307Z" fill="#FF6600"/>
<path id="Vector_5" d="M34.6143 35.4409H32.1143C31.849 35.4409 31.5947 35.3356 31.4072 35.148C31.2196 34.9605 31.1143 34.7061 31.1143 34.4409C31.1143 34.1757 31.2196 33.9213 31.4072 33.7338C31.5947 33.5463 31.849 33.4409 32.1143 33.4409H34.6143C34.8795 33.4409 35.1338 33.5463 35.3214 33.7338C35.5089 33.9213 35.6143 34.1757 35.6143 34.4409C35.6143 34.7061 35.5089 34.9605 35.3214 35.148C35.1338 35.3356 34.8795 35.4409 34.6143 35.4409ZM30.1143 33.4409C29.9829 33.441 29.8528 33.4152 29.7315 33.365C29.6101 33.3147 29.4999 33.2411 29.407 33.1482C29.3141 33.0553 29.2405 32.9451 29.1902 32.8237C29.14 32.7023 29.1142 32.5723 29.1143 32.4409V28.9409C29.1143 28.6757 29.2196 28.4213 29.4072 28.2338C29.5947 28.0463 29.849 27.9409 30.1143 27.9409C30.3795 27.9409 30.6338 28.0463 30.8214 28.2338C31.0089 28.4213 31.1143 28.6757 31.1143 28.9409V32.4409C31.1143 32.5723 31.0885 32.7023 31.0383 32.8237C30.9881 32.9451 30.9144 33.0553 30.8215 33.1482C30.7287 33.2411 30.6184 33.3147 30.497 33.365C30.3757 33.4152 30.2456 33.441 30.1143 33.4409Z" fill="#CECECE"/>
<path id="Vector_6" d="M31.3399 36.0201C32.2122 35.3425 32.3701 34.0861 31.6925 33.2138C31.0149 32.3414 29.7584 32.1836 28.8861 32.8612C28.0138 33.5388 27.856 34.7953 28.5336 35.6676C29.2112 36.5399 30.4676 36.6977 31.3399 36.0201Z" fill="#FFFCFA"/>
<path id="Vector_7" d="M30.1143 10.4409C29.9829 10.441 29.8528 10.4152 29.7315 10.365C29.6101 10.3147 29.4999 10.2411 29.407 10.1482C29.3141 10.0553 29.2405 9.94505 29.1902 9.82369C29.14 9.70233 29.1142 9.57226 29.1143 9.44092V5.44092C29.1143 5.1757 29.2196 4.92135 29.4072 4.73381C29.5947 4.54627 29.849 4.44092 30.1143 4.44092C30.3795 4.44092 30.6338 4.54627 30.8214 4.73381C31.0089 4.92135 31.1143 5.1757 31.1143 5.44092V9.44092C31.1143 9.57226 31.0885 9.70233 31.0383 9.82369C30.9881 9.94505 30.9144 10.0553 30.8215 10.1482C30.7287 10.2411 30.6184 10.3147 30.497 10.365C30.3757 10.4152 30.2456 10.441 30.1143 10.4409ZM30.1143 64.4409C29.9829 64.441 29.8528 64.4152 29.7315 64.365C29.6101 64.3147 29.4999 64.2411 29.407 64.1482C29.3141 64.0553 29.2405 63.9451 29.1902 63.8237C29.14 63.7023 29.1142 63.5723 29.1143 63.4409V59.4409C29.1143 59.1757 29.2196 58.9213 29.4072 58.7338C29.5947 58.5463 29.849 58.4409 30.1143 58.4409C30.3795 58.4409 30.6338 58.5463 30.8214 58.7338C31.0089 58.9213 31.1143 59.1757 31.1143 59.4409V63.4409C31.1143 63.5723 31.0885 63.7023 31.0383 63.8237C30.9881 63.9451 30.9144 64.0553 30.8215 64.1482C30.7287 64.2411 30.6184 64.3147 30.497 64.365C30.3757 64.4152 30.2456 64.441 30.1143 64.4409ZM5.11426 35.4409H1.11426C0.849041 35.4409 0.594687 35.3356 0.407151 35.148C0.219615 34.9605 0.114258 34.7061 0.114258 34.4409C0.114258 34.1757 0.219615 33.9213 0.407151 33.7338C0.594687 33.5463 0.849041 33.4409 1.11426 33.4409H5.11426C5.37947 33.4409 5.63383 33.5463 5.82136 33.7338C6.0089 33.9213 6.11426 34.1757 6.11426 34.4409C6.11426 34.7061 6.0089 34.9605 5.82136 35.148C5.63383 35.3356 5.37947 35.4409 5.11426 35.4409ZM59.1143 35.4409H55.1143C54.849 35.4409 54.5947 35.3356 54.4072 35.148C54.2196 34.9605 54.1143 34.7061 54.1143 34.4409C54.1143 34.1757 54.2196 33.9213 54.4072 33.7338C54.5947 33.5463 54.849 33.4409 55.1143 33.4409H59.1143C59.3795 33.4409 59.6338 33.5463 59.8214 33.7338C60.0089 33.9213 60.1143 34.1757 60.1143 34.4409C60.1143 34.7061 60.0089 34.9605 59.8214 35.148C59.6338 35.3356 59.3795 35.4409 59.1143 35.4409ZM31.1235 47.4507V51.3707C30.4592 51.4506 29.7878 51.4506 29.1235 51.3707V47.4507C29.1222 47.319 29.1472 47.1884 29.197 47.0665C29.2467 46.9446 29.3204 46.8338 29.4135 46.7407C29.5066 46.6476 29.6174 46.574 29.7393 46.5242C29.8612 46.4744 29.9918 46.4494 30.1235 46.4507C30.3885 46.4515 30.6423 46.5571 30.8297 46.7445C31.0171 46.9319 31.1227 47.1857 31.1235 47.4507ZM31.1235 17.4907V21.4507C31.1193 21.7146 31.0126 21.9666 30.826 22.1532C30.6393 22.3398 30.3874 22.4465 30.1235 22.4507C29.8585 22.45 29.6046 22.3444 29.4172 22.157C29.2298 21.9696 29.1242 21.7157 29.1235 21.4507V17.4907C29.7877 17.4106 30.4592 17.4106 31.1235 17.4907ZM21.6241 44.3443L18.8522 47.1162C18.326 46.703 17.8512 46.2282 17.438 45.702L20.2099 42.9301C20.3021 42.8361 20.4121 42.7614 20.5335 42.7104C20.6549 42.6594 20.7853 42.6331 20.917 42.6331C21.0487 42.6331 21.179 42.6594 21.3005 42.7104C21.4219 42.7614 21.5319 42.8361 21.6241 42.9301C21.8109 43.118 21.9158 43.3722 21.9158 43.6372C21.9158 43.9022 21.8109 44.1564 21.6241 44.3443ZM43.1435 33.4307H47.0635C47.1434 34.095 47.1434 34.7664 47.0635 35.4307H43.1435C43.0118 35.432 42.8812 35.407 42.7593 35.3572C42.6373 35.3074 42.5266 35.2338 42.4335 35.1407C42.3404 35.0476 42.2667 34.9368 42.2169 34.8149C42.1672 34.693 42.1422 34.5624 42.1435 34.4307C42.1443 34.1657 42.2499 33.9119 42.4372 33.7245C42.6246 33.5371 42.8785 33.4315 43.1435 33.4307ZM13.1836 33.4307H17.1435C17.4074 33.4349 17.6593 33.5416 17.846 33.7282C18.0326 33.9149 18.1393 34.1668 18.1435 34.4307C18.1427 34.6957 18.0371 34.9496 17.8498 35.137C17.6624 35.3244 17.4085 35.43 17.1435 35.4307H13.1835C13.1034 34.7665 13.1035 34.095 13.1836 33.4307ZM40.0372 42.9301L42.8091 45.702C42.3959 46.2282 41.9211 46.703 41.3948 47.1162L38.623 44.3443C38.5289 44.2521 38.4542 44.1421 38.4032 44.0207C38.3523 43.8993 38.326 43.7689 38.326 43.6372C38.326 43.5055 38.3523 43.3751 38.4032 43.2537C38.4542 43.1323 38.5289 43.0223 38.623 42.9301C38.8109 42.7433 39.0651 42.6384 39.3301 42.6384C39.5951 42.6384 39.8493 42.7433 40.0372 42.9301ZM18.8523 21.7452L21.6524 24.5453C21.8361 24.7349 21.9388 24.9885 21.9388 25.2524C21.9388 25.5164 21.8361 25.77 21.6524 25.9595C21.4645 26.1464 21.2103 26.2513 20.9453 26.2513C20.6803 26.2513 20.4261 26.1464 20.2382 25.9595L17.4381 23.1594C17.8512 22.6331 18.326 22.1583 18.8523 21.7452Z" fill="#CECECE"/>
<path id="Vector_8" d="M30.1231 13.4307C25.9696 13.4307 21.9095 14.6623 18.4561 16.9698C15.0026 19.2773 12.311 22.5571 10.7216 26.3943C9.13215 30.2316 8.71628 34.454 9.52657 38.5276C10.3369 42.6012 12.3369 46.343 15.2738 49.2799C18.2107 52.2168 21.9526 54.2169 26.0262 55.0272C30.0998 55.8374 34.3222 55.4216 38.1594 53.8321C41.9967 52.2427 45.2764 49.5511 47.5839 46.0976C49.8914 42.6442 51.1231 38.5841 51.1231 34.4307C51.1204 28.8619 48.907 23.5221 44.9693 19.5844C41.0316 15.6467 35.6918 13.4334 30.1231 13.4307ZM41.4031 44.3107C40.9706 44.8231 40.4955 45.2982 39.9831 45.7307C37.5187 47.8987 34.3998 49.1801 31.1231 49.3707C30.4588 49.4506 29.7873 49.4506 29.1231 49.3707C25.5017 49.1494 22.086 47.6124 19.5187 45.0488C16.9514 42.4852 15.4095 39.0717 15.1831 35.4507C15.1431 35.1121 15.1231 34.7715 15.1231 34.4307C15.1231 34.1031 15.1431 33.7758 15.1831 33.4507C15.3715 30.1637 16.6607 27.0358 18.8431 24.5707C19.2634 24.0538 19.7322 23.5783 20.2431 23.1507C22.7102 20.9716 25.8369 19.6829 29.1231 19.4907C29.7873 19.4106 30.4588 19.4106 31.1231 19.4907C34.7493 19.7174 38.1677 21.2615 40.735 23.8325C43.3023 26.4035 44.8415 29.8241 45.0631 33.4507C45.103 33.7758 45.123 34.1031 45.1231 34.4307C45.123 34.7715 45.103 35.1121 45.0631 35.4507C44.8707 38.7308 43.5817 41.8511 41.4031 44.3107Z" fill="#FFFCFA"/>
<path id="Vector_9" d="M34.1142 31.4409C33.9165 31.4409 33.7232 31.3822 33.5587 31.2723C33.3943 31.1625 33.2662 31.0063 33.1905 30.8236C33.1148 30.6409 33.095 30.4398 33.1336 30.2459C33.1722 30.0519 33.2674 29.8737 33.4072 29.7339L54.4072 8.73388C54.5954 8.54949 54.8487 8.4468 55.1121 8.44813C55.3756 8.44946 55.6278 8.5547 55.8141 8.74098C56.0004 8.92726 56.1056 9.17953 56.107 9.44297C56.1083 9.70641 56.0056 9.95973 55.8212 10.1479L34.8212 31.1479C34.7285 31.2409 34.6183 31.3147 34.497 31.365C34.3756 31.4152 34.2456 31.4411 34.1142 31.4409Z" fill="#CECECE"/>
<path id="Vector_10" d="M58.7715 11.4408H53.1135V5.78277L57.3555 1.54077L58.7715 5.78277L63.0135 7.19877L58.7715 11.4408Z" fill="#FF6600"/>
</g>
<defs>
<clipPath id="clip0_1_450">
<rect width="64" height="64" fill="white" transform="translate(0.0634766 0.490723)"/>
</clipPath>
</defs>
</svg>
