<svg width="65" height="65" viewBox="0 0 65 65" fill="none" xmlns="http://www.w3.org/2000/svg">
<g id="staff 1 (traced)" clip-path="url(#clip0_1_417)">
<g id="Gray">
<path id="Vector" d="M34.0635 54.8657V60.4907H33.0635H32.0635V62.4907V64.4907H38.626H45.1885V59.2532C45.1885 53.5157 45.1635 53.2532 44.401 51.9532C43.9635 51.2157 42.8385 50.2032 42.026 49.8282C41.0135 49.3407 40.126 49.2407 36.976 49.2407H34.0635V54.8657Z" fill="#FF8C40"/>
</g>
<g id="Gray_2">
<path id="Vector_2" d="M23.851 49.3782C22.2385 49.5782 20.476 50.8032 19.7635 52.2157C19.101 53.5282 19.0635 53.8657 19.0635 59.3907V64.4907H25.5635H32.0635V62.4907V60.4907H31.126H30.1885V54.8657V49.2407L27.4135 49.2532C25.876 49.2657 24.276 49.3157 23.851 49.3782Z" fill="#FFB380"/>
</g>
<g id="Gray_3">
<path id="Vector_3" d="M32.0635 8.5032V16.5532L34.851 13.7657C36.376 12.2407 37.6885 10.9907 37.751 10.9907C37.826 10.9907 38.4635 11.5782 39.1885 12.3032L40.501 13.6157L36.276 17.8407L32.0635 22.0532V28.1657V34.2782L33.476 34.2032C36.9885 34.0157 40.426 32.5657 43.351 30.0407C46.051 27.7157 48.0385 24.2157 48.776 20.5157C49.076 19.0032 49.076 15.7157 48.776 14.2032C47.2635 6.6407 40.8635 0.928196 33.476 0.528198L32.0635 0.453197V8.5032Z" fill="#FF6600"/>
</g>
<g id="Silver">
<path id="Vector_4" d="M29.1255 0.70322C27.738 0.95322 25.7505 1.64072 24.413 2.32822C19.663 4.77822 16.413 9.20322 15.413 14.5532C15.1755 15.8657 15.213 19.1907 15.4755 20.4782C16.638 25.9282 19.8255 30.1157 24.688 32.5532C26.5755 33.5032 29.463 34.2407 31.2755 34.2407H32.063V28.1532V22.0657L31.213 22.9032C30.7505 23.3657 30.313 23.7407 30.2505 23.7407C30.1755 23.7407 28.688 22.3032 26.938 20.5532L23.7505 17.3657L25.063 16.0532C25.788 15.3282 26.4255 14.7407 26.5005 14.7407C26.5755 14.7407 27.438 15.5532 28.438 16.5532L30.2505 18.3657L31.1505 17.4657L32.063 16.5657V8.52822V0.490723L31.1005 0.503223C30.563 0.51572 29.6755 0.603222 29.1255 0.70322Z" fill="#FFB380"/>
</g>
<g id="Silver_2">
<path id="Vector_5" d="M34.8135 13.8282L32.001 16.6782L34.851 13.8657C37.4885 11.2532 37.751 10.9907 37.651 10.9907C37.6385 10.9907 36.3635 12.2657 34.8135 13.8282Z" fill="#FF6600"/>
<path id="Vector_6" d="M39.0635 12.2782L40.376 13.6157L36.1885 17.8407L32.001 22.0532L36.251 17.8407L40.501 13.6157L39.126 12.2782L37.751 10.9282L39.0635 12.2782Z" fill="#FF6600"/>
</g>
<g id="Silver_3">
<path id="Vector_7" d="M25.0635 16.0532L23.751 17.3657L27.001 20.5907L30.251 23.8032L27.0635 20.5907L23.876 17.3657L25.1885 16.0532C25.9135 15.3282 26.4635 14.7407 26.4385 14.7407C26.401 14.7407 25.7885 15.3282 25.0635 16.0532Z" fill="#FF8C40"/>
<path id="Vector_8" d="M28.3131 16.5532C29.3131 17.5532 30.1506 18.3657 30.1881 18.3657C30.2131 18.3657 29.4381 17.5532 28.4381 16.5532C27.4381 15.5532 26.6006 14.7407 26.5631 14.7407C26.5381 14.7407 27.3131 15.5532 28.3131 16.5532Z" fill="#FF8C40"/>
<path id="Vector_9" d="M31.126 17.5157L30.251 18.4282L31.1635 17.5532C32.001 16.7532 32.126 16.6157 32.026 16.6157C32.0135 16.6157 31.601 17.0282 31.126 17.5157Z" fill="#FF8C40"/>
<path id="Vector_10" d="M31.126 22.8907L30.251 23.8032L31.1635 22.9282C32.001 22.1282 32.126 21.9907 32.026 21.9907C32.0135 21.9907 31.601 22.4032 31.126 22.8907Z" fill="#FF8C40"/>
</g>
<g id="Silver_4">
<path id="Vector_11" d="M13.4385 41.7282V49.2407H13.9385C14.8135 49.2407 17.1885 48.4907 17.1885 48.2157C17.1885 48.1657 17.276 48.1157 17.376 48.1157C17.476 48.1157 17.5635 48.0782 17.5635 48.0157C17.5635 47.9657 17.801 47.7657 18.101 47.5657C19.426 46.6657 20.5885 44.5532 20.8385 42.5782C21.076 40.6657 20.7135 39.2407 19.526 37.4532C18.926 36.5532 18.526 36.1657 17.4635 35.4407C16.5135 34.8032 15.3885 34.4032 14.2385 34.2907L13.4385 34.2032V41.7282Z" fill="#9C9C9C"/>
<path id="Vector_12" d="M32.1885 41.7282V49.2407H32.6885C33.5635 49.2407 35.9385 48.4907 35.9385 48.2157C35.9385 48.1657 36.026 48.1157 36.126 48.1157C36.226 48.1157 36.3135 48.0782 36.3135 48.0157C36.3135 47.9657 36.551 47.7657 36.851 47.5657C38.176 46.6657 39.3385 44.5532 39.5885 42.5782C39.826 40.6657 39.4635 39.2407 38.276 37.4532C37.676 36.5532 37.276 36.1657 36.2135 35.4407C35.2635 34.8032 34.1385 34.4032 32.9885 34.2907L32.1885 34.2032V41.7282Z" fill="#9C9C9C"/>
<path id="Vector_13" d="M50.9385 41.7282V49.2407H51.4385C52.3135 49.2407 54.6885 48.4907 54.6885 48.2157C54.6885 48.1657 54.776 48.1157 54.876 48.1157C54.976 48.1157 55.0635 48.0782 55.0635 48.0157C55.0635 47.9657 55.301 47.7657 55.601 47.5657C56.926 46.6657 58.0885 44.5532 58.3385 42.5782C58.576 40.6657 58.2135 39.2407 57.026 37.4532C56.426 36.5532 56.026 36.1657 54.9635 35.4407C54.0135 34.8032 52.8885 34.4032 51.7385 34.2907L50.9385 34.2032V41.7282Z" fill="#9C9C9C"/>
</g>
<g id="LightGray">
<path id="Vector_14" d="M11.4388 34.4407C8.71378 35.1532 6.58878 37.4282 5.98878 40.2532C5.07628 44.5157 8.26378 48.8657 12.5388 49.2032L13.4388 49.2782V41.7532V34.2407L12.7888 34.2532C12.4263 34.2532 11.8138 34.3407 11.4388 34.4407Z" fill="#ADADAD" fill-opacity="0.64"/>
<path id="Vector_15" d="M30.1888 34.4407C27.4638 35.1532 25.3388 37.4282 24.7388 40.2532C23.8263 44.5157 27.0138 48.8657 31.2888 49.2032L32.1888 49.2782V41.7532V34.2407L31.5388 34.2532C31.1763 34.2532 30.5638 34.3407 30.1888 34.4407Z" fill="#ADADAD" fill-opacity="0.64"/>
<path id="Vector_16" d="M48.9388 34.4407C46.2138 35.1532 44.0888 37.4282 43.4888 40.2532C42.5763 44.5157 45.7638 48.8657 50.0388 49.2032L50.9388 49.2782V41.7532V34.2407L50.2888 34.2532C49.9263 34.2532 49.3138 34.3407 48.9388 34.4407Z" fill="#ADADAD" fill-opacity="0.64"/>
</g>
<g id="LightGray_2">
<path id="Vector_17" d="M34.001 14.7407L30.251 18.4907L28.376 16.6157L26.501 14.7407L25.1885 16.0532L23.876 17.3657L27.0635 20.5532L30.251 23.7407L35.3135 18.6782L40.376 13.6157L39.0635 12.3032L37.751 10.9907L34.001 14.7407Z" fill="white"/>
<path id="Vector_18" d="M8.11348 49.2407L4.23848 49.3032L3.30098 49.7657C2.25098 50.2907 1.26348 51.2032 0.763477 52.1032C0.100977 53.3282 0.0634766 53.7282 0.0634766 59.3282V64.4907H9.50098H18.9385V59.4282C18.9385 56.1907 18.9885 54.1407 19.076 53.7157C19.2885 52.7282 19.751 51.8282 20.4635 51.0532C21.1635 50.2907 21.8135 49.8532 22.8385 49.4907L23.501 49.2532L17.751 49.2157C14.5885 49.1907 10.251 49.2032 8.11348 49.2407Z" fill="#FFD9C0"/>
<path id="Vector_19" d="M45.0635 49.2407C42.6885 49.2782 40.8635 49.3157 40.9885 49.3407C41.1135 49.3532 41.626 49.5657 42.126 49.8032C43.651 50.5282 44.8135 52.0282 45.176 53.7157C45.2635 54.1532 45.3135 56.1407 45.3135 59.4282V64.4907H54.6885H64.0635V59.3282C64.0635 53.7282 64.026 53.3282 63.3635 52.1032C62.8635 51.2032 61.876 50.2907 60.826 49.7657L59.8885 49.3032L54.6385 49.2407C51.7385 49.2032 47.4385 49.2032 45.0635 49.2407Z" fill="#FFD9C0"/>
</g>
</g>
<defs>
<clipPath id="clip0_1_417">
<rect width="64" height="64" fill="white" transform="translate(0.0634766 0.490723)"/>
</clipPath>
</defs>
</svg>
