<svg width="65" height="65" viewBox="0 0 65 65" fill="none" xmlns="http://www.w3.org/2000/svg">
<g id="Group 8">
<rect x="0.19043" y="0.18457" width="64" height="64" rx="32" fill="#FFEEE3" fill-opacity="0.17"/>
<g id="Black">
<g id="Vector">
<mask id="path-2-outside-1_1_251" maskUnits="userSpaceOnUse" x="14.6932" y="14.1516" width="35" height="36" fill="black">
<rect fill="white" x="14.6932" y="14.1516" width="35" height="36"/>
<path d="M17.3194 15.2586C16.7154 15.4445 16.1711 15.9357 15.879 16.5597L15.6932 16.9579V32.1587V47.3594L15.8525 47.7444C16.0582 48.2621 16.5826 48.7865 17.1004 48.9923L17.4854 49.1516H29.1017C40.0608 49.1516 40.7511 49.145 41.2822 49.0321C44.5745 48.3285 47.1567 46.0252 48.2187 42.8589C48.836 41.0202 48.8427 38.9293 48.2453 37.084C47.6811 35.3448 46.473 33.6455 45.0325 32.5636C43.7514 31.5944 42.0654 30.9041 40.6516 30.7581L40.2201 30.7116L40.2068 23.8348L40.1869 16.9579L40.001 16.5597C39.7754 16.0817 39.3771 15.6503 38.9257 15.4113L38.5938 15.2321L28.0396 15.2188C22.2315 15.2122 17.4124 15.2321 17.3194 15.2586ZM38.5805 16.3871C38.7664 16.5132 38.9456 16.6924 39.0386 16.8716L39.1912 17.1571L39.2111 23.9012L39.2244 30.6519L38.7465 30.6983C36.3967 30.9107 34.5049 31.7869 32.8852 33.4132C31.0598 35.2386 30.1704 37.4159 30.1836 39.9913C30.1903 43.224 31.79 46.0916 34.5447 47.824L35.1288 48.1891H26.5063C20.4459 48.1891 17.804 48.1692 17.6181 48.1161C17.2199 48.0033 16.8216 47.5585 16.722 47.1138C16.6689 46.8549 16.6557 42.8788 16.6689 31.9529L16.6888 17.1438L16.888 16.8252C17.0207 16.6128 17.1867 16.4535 17.3792 16.3473L17.6713 16.1946H27.9732H38.2686L38.5805 16.3871ZM41.1494 31.8533C43.2934 32.3379 45.0989 33.5725 46.3004 35.378C48.4643 38.6306 48.0793 42.8456 45.3578 45.6667C42.8819 48.2356 39.0784 48.9259 35.8657 47.3926C33.9539 46.4765 32.3874 44.7507 31.6572 42.7527C31.0399 41.06 31.0001 39.1085 31.5577 37.4026C32.5467 34.3757 35.182 32.1852 38.3947 31.7272C39.0054 31.6343 40.5055 31.7073 41.1494 31.8533Z"/>
</mask>
<path d="M17.3194 15.2586C16.7154 15.4445 16.1711 15.9357 15.879 16.5597L15.6932 16.9579V32.1587V47.3594L15.8525 47.7444C16.0582 48.2621 16.5826 48.7865 17.1004 48.9923L17.4854 49.1516H29.1017C40.0608 49.1516 40.7511 49.145 41.2822 49.0321C44.5745 48.3285 47.1567 46.0252 48.2187 42.8589C48.836 41.0202 48.8427 38.9293 48.2453 37.084C47.6811 35.3448 46.473 33.6455 45.0325 32.5636C43.7514 31.5944 42.0654 30.9041 40.6516 30.7581L40.2201 30.7116L40.2068 23.8348L40.1869 16.9579L40.001 16.5597C39.7754 16.0817 39.3771 15.6503 38.9257 15.4113L38.5938 15.2321L28.0396 15.2188C22.2315 15.2122 17.4124 15.2321 17.3194 15.2586ZM38.5805 16.3871C38.7664 16.5132 38.9456 16.6924 39.0386 16.8716L39.1912 17.1571L39.2111 23.9012L39.2244 30.6519L38.7465 30.6983C36.3967 30.9107 34.5049 31.7869 32.8852 33.4132C31.0598 35.2386 30.1704 37.4159 30.1836 39.9913C30.1903 43.224 31.79 46.0916 34.5447 47.824L35.1288 48.1891H26.5063C20.4459 48.1891 17.804 48.1692 17.6181 48.1161C17.2199 48.0033 16.8216 47.5585 16.722 47.1138C16.6689 46.8549 16.6557 42.8788 16.6689 31.9529L16.6888 17.1438L16.888 16.8252C17.0207 16.6128 17.1867 16.4535 17.3792 16.3473L17.6713 16.1946H27.9732H38.2686L38.5805 16.3871ZM41.1494 31.8533C43.2934 32.3379 45.0989 33.5725 46.3004 35.378C48.4643 38.6306 48.0793 42.8456 45.3578 45.6667C42.8819 48.2356 39.0784 48.9259 35.8657 47.3926C33.9539 46.4765 32.3874 44.7507 31.6572 42.7527C31.0399 41.06 31.0001 39.1085 31.5577 37.4026C32.5467 34.3757 35.182 32.1852 38.3947 31.7272C39.0054 31.6343 40.5055 31.7073 41.1494 31.8533Z" fill="white"/>
<path d="M17.3194 15.2586L17.0254 14.3029L17.035 14.2999L17.0447 14.2971L17.3194 15.2586ZM15.879 16.5597L14.9728 16.1368L14.9733 16.1357L15.879 16.5597ZM15.6932 16.9579H14.6932V16.7361L14.787 16.5351L15.6932 16.9579ZM15.6932 47.3594L14.7691 47.7417L14.6932 47.5581V47.3594H15.6932ZM15.8525 47.7444L16.7766 47.362L16.7818 47.375L15.8525 47.7444ZM17.1004 48.9923L17.4698 48.0629L17.4827 48.0683L17.1004 48.9923ZM17.4854 49.1516V50.1516H17.2867L17.103 50.0756L17.4854 49.1516ZM41.2822 49.0321L41.4911 50.01L41.49 50.0103L41.2822 49.0321ZM48.2187 42.8589L47.2706 42.5409L47.2707 42.5406L48.2187 42.8589ZM48.2453 37.084L49.1965 36.7754L49.1967 36.776L48.2453 37.084ZM45.0325 32.5636L44.432 33.3631L44.4292 33.3611L45.0325 32.5636ZM40.6516 30.7581L40.5488 31.7528L40.5445 31.7523L40.6516 30.7581ZM40.2201 30.7116L40.113 31.7059L39.2218 31.6099L39.2201 30.7135L40.2201 30.7116ZM40.2068 23.8348L41.2068 23.8319L41.2068 23.8328L40.2068 23.8348ZM40.1869 16.9579L41.0931 16.5351L41.1863 16.7347L41.1869 16.955L40.1869 16.9579ZM40.001 16.5597L40.9053 16.1327L40.9072 16.1368L40.001 16.5597ZM38.9257 15.4113L38.4578 16.2951L38.4506 16.2912L38.9257 15.4113ZM38.5938 15.2321L38.5951 14.2321L38.8472 14.2324L39.069 14.3522L38.5938 15.2321ZM28.0396 15.2188L28.0407 14.2188H28.0409L28.0396 15.2188ZM38.5805 16.3871L39.1056 15.536L39.1241 15.5474L39.142 15.5596L38.5805 16.3871ZM39.0386 16.8716L38.1567 17.3433L38.1508 17.332L39.0386 16.8716ZM39.1912 17.1571L40.073 16.6854L40.1905 16.905L40.1912 17.1541L39.1912 17.1571ZM39.2111 23.9012L40.2111 23.8982L40.2111 23.8992L39.2111 23.9012ZM39.2244 30.6519L40.2244 30.6499L40.2262 31.5592L39.3212 31.6472L39.2244 30.6519ZM38.7465 30.6983L38.8433 31.6937L38.8365 31.6943L38.7465 30.6983ZM32.8852 33.4132L33.5938 34.1189L33.5924 34.1203L32.8852 33.4132ZM30.1836 39.9913L31.1836 39.9862L31.1836 39.9893L30.1836 39.9913ZM34.5447 47.824L34.0147 48.672L34.0123 48.6705L34.5447 47.824ZM35.1288 48.1891L35.6588 47.3411L38.6156 49.1891H35.1288V48.1891ZM17.6181 48.1161L17.8908 47.154L17.8929 47.1546L17.6181 48.1161ZM16.722 47.1138L15.7462 47.3323L15.7442 47.3235L15.7424 47.3147L16.722 47.1138ZM16.6689 31.9529L15.6689 31.9517L15.6689 31.9515L16.6689 31.9529ZM16.6888 17.1438L15.6888 17.1425L15.6892 16.8564L15.8408 16.6138L16.6888 17.1438ZM17.3792 16.3473L16.8961 15.4717L16.906 15.4662L16.9159 15.461L17.3792 16.3473ZM17.6713 16.1946L17.208 15.3084L17.4257 15.1946H17.6713V16.1946ZM38.2686 16.1946V15.1946H38.5522L38.7937 15.3435L38.2686 16.1946ZM41.1494 31.8533L40.9289 32.8287L40.9282 32.8286L41.1494 31.8533ZM46.3004 35.378L47.1329 34.824L47.133 34.8241L46.3004 35.378ZM45.3578 45.6667L44.6378 44.9728L44.6381 44.9724L45.3578 45.6667ZM35.8657 47.3926L35.4349 48.2951L35.4335 48.2944L35.8657 47.3926ZM31.6572 42.7527L30.718 43.0959L30.7178 43.0953L31.6572 42.7527ZM31.5577 37.4026L32.5082 37.7132L32.5082 37.7133L31.5577 37.4026ZM38.3947 31.7272L38.5451 32.7159L38.5358 32.7172L38.3947 31.7272ZM17.6135 16.2144C17.3048 16.3094 16.9689 16.59 16.7847 16.9836L14.9733 16.1357C15.3732 15.2814 16.126 14.5796 17.0254 14.3029L17.6135 16.2144ZM16.7852 16.9826L16.5993 17.3808L14.787 16.5351L14.9728 16.1368L16.7852 16.9826ZM16.6932 16.9579V32.1587H14.6932V16.9579H16.6932ZM16.6932 32.1587V47.3594H14.6932V32.1587H16.6932ZM16.6172 46.977L16.7765 47.362L14.9285 48.1267L14.7691 47.7417L16.6172 46.977ZM16.7818 47.375C16.8859 47.637 17.2077 47.9589 17.4697 48.063L16.7311 49.9216C15.9575 49.6142 15.2306 48.8872 14.9232 48.1137L16.7818 47.375ZM17.4827 48.0683L17.8677 48.2276L17.103 50.0756L16.718 49.9163L17.4827 48.0683ZM17.4854 48.1516H29.1017V50.1516H17.4854V48.1516ZM29.1017 48.1516C34.5841 48.1516 37.49 48.1499 39.0926 48.1342C40.732 48.1182 40.9271 48.0853 41.0743 48.054L41.49 50.0103C41.1062 50.0918 40.6905 50.1187 39.1122 50.1341C37.4972 50.15 34.5783 50.1516 29.1017 50.1516V48.1516ZM41.0732 48.0542C44.0218 47.4241 46.3216 45.3701 47.2706 42.5409L49.1668 43.1769C47.9917 46.6802 45.1273 49.233 41.4911 50.01L41.0732 48.0542ZM47.2707 42.5406C47.8194 40.9065 47.8259 39.0351 47.2939 37.392L49.1967 36.776C49.8595 38.8234 49.8527 41.1339 49.1667 43.1772L47.2707 42.5406ZM47.2941 37.3926C46.7924 35.8463 45.7053 34.3196 44.432 33.3631L45.6331 31.764C47.2406 32.9715 48.5697 34.8434 49.1965 36.7754L47.2941 37.3926ZM44.4292 33.3611C43.2768 32.4893 41.7608 31.878 40.5488 31.7528L40.7543 29.7634C42.37 29.9302 44.226 30.6996 45.6359 31.7661L44.4292 33.3611ZM40.5445 31.7523L40.113 31.7059L40.3272 29.7174L40.7586 29.7638L40.5445 31.7523ZM39.2201 30.7135L39.2068 23.8367L41.2068 23.8328L41.2201 30.7097L39.2201 30.7135ZM39.2068 23.8377L39.1869 16.9608L41.1869 16.955L41.2068 23.8319L39.2068 23.8377ZM39.2807 17.3808L39.0949 16.9826L40.9072 16.1368L41.0931 16.5351L39.2807 17.3808ZM39.0968 16.9867C38.9561 16.6888 38.7037 16.4253 38.4578 16.2951L39.3936 14.5275C40.0505 14.8753 40.5946 15.4747 40.9053 16.1327L39.0968 16.9867ZM38.4506 16.2912L38.1187 16.112L39.069 14.3522L39.4009 14.5314L38.4506 16.2912ZM38.5926 16.2321L28.0383 16.2188L28.0409 14.2188L38.5951 14.2321L38.5926 16.2321ZM28.0385 16.2188C25.1356 16.2155 22.4805 16.2188 20.5402 16.2263C19.5697 16.23 18.7794 16.2348 18.2268 16.2402C17.95 16.243 17.7355 16.2459 17.5887 16.2488C17.5146 16.2503 17.4624 16.2518 17.4296 16.253C17.4124 16.2537 17.4072 16.254 17.4096 16.2539C17.4103 16.2538 17.4207 16.2532 17.4365 16.2514C17.4443 16.2506 17.4597 16.2488 17.4793 16.2456C17.4931 16.2435 17.5379 16.2363 17.5942 16.2202L17.0447 14.2971C17.1371 14.2707 17.2171 14.2635 17.218 14.2634C17.2413 14.2608 17.2615 14.2593 17.2741 14.2585C17.3006 14.2567 17.3284 14.2554 17.353 14.2545C17.404 14.2525 17.4704 14.2508 17.5483 14.2492C17.7056 14.2461 17.9282 14.2431 18.207 14.2403C18.7656 14.2348 19.5605 14.23 20.5325 14.2263C22.4769 14.2188 25.1354 14.2155 28.0407 14.2188L28.0385 16.2188ZM39.142 15.5596C39.4183 15.7471 39.7343 16.0411 39.9263 16.4113L38.1508 17.332C38.1593 17.3483 38.1551 17.3354 38.123 17.302C38.0933 17.2711 38.056 17.2396 38.019 17.2146L39.142 15.5596ZM39.9203 16.4L40.073 16.6854L38.3094 17.6287L38.1568 17.3433L39.9203 16.4ZM40.1912 17.1541L40.2111 23.8982L38.2111 23.9041L38.1912 17.16L40.1912 17.1541ZM40.2111 23.8992L40.2244 30.6499L38.2244 30.6538L38.2111 23.9031L40.2111 23.8992ZM39.3212 31.6472L38.8433 31.6936L38.6497 29.703L39.1276 29.6566L39.3212 31.6472ZM38.8365 31.6943C36.7134 31.8862 35.0427 32.664 33.5938 34.1189L32.1767 32.7076C33.967 30.9099 36.08 29.9353 38.6565 29.7024L38.8365 31.6943ZM33.5924 34.1203C31.9566 35.756 31.1717 37.6764 31.1836 39.9862L29.1836 39.9965C29.169 37.1553 30.163 34.7212 32.1781 32.7061L33.5924 34.1203ZM31.1836 39.9893C31.1896 42.875 32.6095 45.4256 35.0771 46.9775L34.0123 48.6705C30.9705 46.7575 29.191 43.573 29.1836 39.9934L31.1836 39.9893ZM35.0747 46.976L35.6588 47.3411L34.5988 49.0371L34.0147 48.672L35.0747 46.976ZM35.1288 49.1891H26.5063V47.1891H35.1288V49.1891ZM26.5063 49.1891C23.4759 49.1891 21.2968 49.1841 19.8512 49.1725C19.1291 49.1667 18.5851 49.1592 18.2078 49.1496C18.02 49.1448 17.8663 49.1394 17.7497 49.133C17.692 49.1298 17.6352 49.1259 17.5838 49.1208C17.5571 49.1182 17.4524 49.1088 17.3434 49.0776L17.8929 47.1546C17.8071 47.1301 17.7449 47.127 17.7802 47.1305C17.7909 47.1316 17.8158 47.1336 17.86 47.136C17.9471 47.1408 18.0777 47.1457 18.2584 47.1502C18.618 47.1593 19.1481 47.1668 19.8673 47.1726C21.3042 47.1841 23.4762 47.1891 26.5063 47.1891V49.1891ZM17.3455 49.0782C16.9161 48.9565 16.563 48.6858 16.3127 48.4061C16.0586 48.122 15.8398 47.7502 15.7462 47.3323L17.6979 46.8953C17.6999 46.9043 17.7072 46.9289 17.7268 46.9649C17.7461 47.0004 17.7723 47.038 17.8034 47.0727C17.8347 47.1077 17.8643 47.1325 17.8863 47.1474C17.9094 47.1631 17.9123 47.1601 17.8907 47.154L17.3455 49.0782ZM15.7424 47.3147C15.7148 47.1801 15.7087 46.9879 15.7046 46.8711C15.6988 46.7062 15.6939 46.479 15.6896 46.1868C15.681 45.6011 15.6747 44.7338 15.6706 43.537C15.6623 41.1422 15.6623 37.4145 15.6689 31.9517L17.6689 31.9541C17.6623 37.4172 17.6623 41.1405 17.6706 43.53C17.6747 44.7253 17.6809 45.5834 17.6894 46.1575C17.6936 46.4452 17.6983 46.6565 17.7034 46.8012C17.7101 46.9941 17.716 46.9828 17.7016 46.9128L15.7424 47.3147ZM15.6689 31.9515L15.6888 17.1425L17.6888 17.1451L17.6689 31.9542L15.6689 31.9515ZM15.8408 16.6138L16.04 16.2952L17.736 17.3552L17.5368 17.6738L15.8408 16.6138ZM16.04 16.2952C16.2541 15.9525 16.5406 15.6678 16.8961 15.4717L17.8623 17.2228C17.8328 17.2391 17.7873 17.273 17.736 17.3552L16.04 16.2952ZM16.9159 15.461L17.208 15.3084L18.1345 17.0808L17.8424 17.2335L16.9159 15.461ZM17.6713 15.1946H27.9732V17.1946H17.6713V15.1946ZM27.9732 15.1946H38.2686V17.1946H27.9732V15.1946ZM38.7937 15.3435L39.1056 15.536L38.0554 17.2381L37.7435 17.0456L38.7937 15.3435ZM41.3698 30.8779C43.7603 31.4182 45.7868 32.8012 47.1329 34.824L45.4679 35.932C44.4111 34.3439 42.8265 33.2576 40.9289 32.8287L41.3698 30.8779ZM47.133 34.8241C49.558 38.4692 49.1238 43.2033 46.0775 46.361L44.6381 44.9724C47.0349 42.488 47.3706 38.792 45.4678 35.9319L47.133 34.8241ZM46.0778 46.3607C43.3037 49.2389 39.0369 50.0142 35.4349 48.2951L36.2964 46.4901C39.1199 47.8377 42.46 47.2323 44.6378 44.9728L46.0778 46.3607ZM35.4335 48.2944C33.2858 47.2653 31.5376 45.3387 30.718 43.0959L32.5965 42.4095C33.2372 44.1627 34.6221 45.6878 36.2978 46.4908L35.4335 48.2944ZM30.7178 43.0953C30.0248 41.1952 29.979 39.0136 30.6072 37.0919L32.5082 37.7133C32.0211 39.2034 32.0551 40.9249 32.5967 42.4101L30.7178 43.0953ZM30.6071 37.092C31.7171 33.6951 34.6719 31.2478 38.2535 30.7372L38.5358 32.7172C35.692 33.1226 33.3764 35.0563 32.5082 37.7132L30.6071 37.092ZM38.2442 30.7386C38.6534 30.6763 39.2645 30.6764 39.8063 30.7017C40.3543 30.7274 40.9609 30.7852 41.3706 30.8781L40.9282 32.8286C40.694 32.7754 40.2286 32.7237 39.7128 32.6996C39.191 32.6751 38.7467 32.6852 38.5451 32.7158L38.2442 30.7386Z" fill="white" mask="url(#path-2-outside-1_1_251)"/>
</g>
<path id="Vector_2" d="M27.6015 18.3784L27.4422 18.5045L27.4223 24.472C27.409 28.5144 27.4223 30.5124 27.4754 30.6718C27.5816 31.0568 28.0264 31.1696 28.3052 30.8908C28.3914 30.7979 28.4047 30.0279 28.4047 24.6247V18.4581L28.2587 18.3585C28.0596 18.2191 27.7874 18.2258 27.6015 18.3784Z" fill="white"/>
<path id="Vector_3" d="M17.9899 18.6905C17.804 18.9228 17.8173 19.1485 18.0164 19.3476L18.1757 19.5135H22.2846C26.3403 19.5135 26.4 19.5135 26.5726 19.3742C26.7917 19.2016 26.8116 18.8498 26.6125 18.6506C26.4797 18.5179 26.3934 18.5179 22.3045 18.5179H18.1226L17.9899 18.6905Z" fill="white"/>
<path id="Vector_4" d="M29.2677 18.6506C29.0686 18.8498 29.0885 19.2016 29.3075 19.3742C29.4801 19.5135 29.5399 19.5135 33.5956 19.5135H37.7045L37.8638 19.3476C38.0629 19.1485 38.0762 18.9228 37.8903 18.6905L37.7576 18.5179H33.5757C29.4868 18.5179 29.4005 18.5179 29.2677 18.6506Z" fill="white"/>
<path id="Vector_5" d="M18.0363 22.3678C17.8106 22.5072 17.8305 23.0183 18.0761 23.1776C18.1159 23.2042 20.0343 23.2307 22.3443 23.2307H26.5394L26.639 23.0847C26.785 22.8855 26.7717 22.547 26.6257 22.4143C26.5128 22.3147 26.1212 22.3014 22.3244 22.3014C19.7356 22.3014 18.1093 22.328 18.0363 22.3678Z" fill="white"/>
<path id="Vector_6" d="M29.2476 22.4209C29.0949 22.5868 29.1016 22.9851 29.2542 23.1179C29.3671 23.2174 29.7587 23.2307 33.5556 23.2307C35.8523 23.2307 37.764 23.2042 37.8038 23.1776C37.91 23.1046 38.0295 22.859 38.0295 22.7063C38.0295 22.6267 37.9697 22.5072 37.8967 22.4342C37.764 22.3014 37.6777 22.3014 33.5622 22.3014C29.5728 22.3014 29.3472 22.308 29.2476 22.4209Z" fill="white"/>
<path id="Vector_7" d="M18.0165 26.1845C17.9235 26.2708 17.8505 26.4235 17.8505 26.5164C17.8505 26.6094 17.9235 26.762 18.0165 26.8483L18.1758 27.0143H22.3311C26.3934 27.0143 26.4797 27.0143 26.6125 26.8815C26.8116 26.6824 26.7917 26.3306 26.5727 26.158C26.4001 26.0186 26.3403 26.0186 22.2846 26.0186H18.1758L18.0165 26.1845Z" fill="white"/>
<path id="Vector_8" d="M29.3075 26.158C29.0885 26.3306 29.0686 26.6824 29.2677 26.8815C29.4005 27.0143 29.4868 27.0143 33.5491 27.0143H37.7045L37.8638 26.8483C37.9567 26.762 38.0297 26.6094 38.0297 26.5164C38.0297 26.4235 37.9567 26.2708 37.8638 26.1845L37.7045 26.0186H33.5956C29.5399 26.0186 29.4801 26.0186 29.3075 26.158Z" fill="white"/>
<path id="Vector_9" d="M17.9899 29.9747C17.8173 30.1938 17.8106 30.4062 17.9766 30.6053L18.1027 30.7646H22.2846C26.3005 30.7646 26.4731 30.758 26.6058 30.6385C26.785 30.4726 26.7917 30.1141 26.6124 29.9349C26.4797 29.8022 26.3934 29.8022 22.3045 29.8022H18.1226L17.9899 29.9747Z" fill="white"/>
<path id="Vector_10" d="M29.2675 29.9349C29.0883 30.1141 29.0949 30.4726 29.2741 30.6385C29.4069 30.758 29.5728 30.7647 32.5466 30.7846C35.6465 30.8045 35.6863 30.7978 35.8589 30.6651C35.9983 30.5522 36.0381 30.4659 36.0381 30.2734C36.0381 29.7822 36.1842 29.8022 32.5997 29.8022C29.4865 29.8022 29.3936 29.8088 29.2675 29.9349Z" fill="white"/>
<path id="Vector_11" d="M18.0429 33.3799C17.9301 33.4662 17.8902 33.5724 17.8902 33.7517C17.8902 33.9309 17.9301 34.0371 18.0429 34.1234C18.1889 34.2429 18.4412 34.2495 24.5347 34.2495H30.8673L31.0266 34.0836C31.239 33.8778 31.239 33.6256 31.0266 33.4198L30.8673 33.2538H24.5347C18.4412 33.2538 18.1889 33.2605 18.0429 33.3799Z" fill="white"/>
<path id="Vector_12" d="M18.0231 37.1437C17.7642 37.3959 17.8372 37.8473 18.1558 37.9668C18.2687 38.0132 20.2468 38.0265 23.7051 38.0199L29.0818 38L29.2079 37.8407C29.3738 37.6415 29.3672 37.3362 29.2013 37.1702C29.0685 37.0375 28.9822 37.0375 23.5989 37.0375C18.7134 37.0375 18.116 37.0508 18.0231 37.1437Z" fill="white"/>
<path id="Vector_13" d="M18.0164 40.9206C17.8173 41.1198 17.804 41.3455 17.9899 41.5778L18.1226 41.7504H23.486H28.8494L28.9888 41.5977C29.1813 41.3919 29.1747 41.1198 28.9689 40.9206L28.8096 40.7547H23.4927H18.1757L18.0164 40.9206Z" fill="white"/>
<path id="Vector_14" d="M17.9834 44.7175C17.8108 44.9365 17.844 45.2419 18.0564 45.4145C18.1891 45.5273 18.5741 45.5339 24.1367 45.5339H30.0709L30.2302 45.368C30.436 45.1689 30.4427 44.8834 30.2634 44.6843L30.124 44.5383H24.1234H18.1228L17.9834 44.7175Z" fill="white"/>
<path id="Vector_15" d="M41.1295 35.0263C40.9503 35.2254 36.9012 44.6512 36.9012 44.8702C36.9012 45.2685 37.3791 45.4809 37.6844 45.2154C37.8504 45.076 41.9459 35.6237 41.9459 35.3847C41.9459 35.0926 41.7734 34.9134 41.4879 34.9134C41.3353 34.9134 41.1959 34.9599 41.1295 35.0263Z" fill="white"/>
<path id="Vector_16" d="M36.1909 35.0461C35.2816 35.2319 34.6443 36.0085 34.6377 36.9379C34.631 37.5684 34.797 37.9933 35.2019 38.3982C35.6068 38.8097 36.0051 38.9624 36.6423 38.9624C37.2397 38.9624 37.8106 38.677 38.169 38.2057C38.4876 37.7875 38.5872 37.4224 38.5474 36.8117C38.5142 36.2674 38.3416 35.909 37.95 35.5306C37.5318 35.1257 36.7883 34.9266 36.1909 35.0461ZM37.0074 36.1148C37.3658 36.2873 37.565 36.5927 37.565 36.9777C37.565 37.7477 36.7153 38.2322 36.1046 37.8141C35.4342 37.3693 35.4873 36.4267 36.1976 36.1015C36.5494 35.9422 36.6622 35.9422 37.0074 36.1148Z" fill="white"/>
<path id="Vector_17" d="M41.6273 42.1154C41.0232 42.3013 40.5055 42.8323 40.3462 43.4364C40.24 43.828 40.3063 44.5847 40.4723 44.9033C40.7511 45.4543 41.375 45.8857 41.9924 45.972C43.5788 46.1778 44.7338 44.5515 44.0302 43.0978C43.6253 42.2548 42.5632 41.8234 41.6273 42.1154ZM42.6694 43.1111C43.1673 43.3634 43.3664 43.8811 43.1474 44.3723C42.915 44.9033 42.3575 45.1158 41.853 44.8702C41.4813 44.6909 41.2821 44.3922 41.2821 44.0006C41.2821 43.2771 42.0455 42.7859 42.6694 43.1111Z" fill="white"/>
</g>
</g>
</svg>
