<svg width="65" height="65" viewBox="0 0 65 65" fill="none" xmlns="http://www.w3.org/2000/svg">
<g id="Group 4">
<rect x="0.480469" y="0.18457" width="64" height="64" rx="32" fill="#FFEEE3" fill-opacity="0.17"/>
<g id="Black">
<path id="Vector" d="M30.5215 13.9824C27.6682 14.1835 24.7255 15.0849 22.3638 16.4706C18.0205 19.0259 14.9139 23.2873 13.8039 28.2191C13.4761 29.6719 13.4239 30.2604 13.4314 32.3017C13.4314 33.963 13.4537 34.3728 13.5953 35.1699C14.1764 38.4255 15.4801 41.3385 17.4394 43.7299C18.1844 44.6462 18.4005 44.8027 19.0039 44.8399C19.7117 44.8846 20.2332 44.5717 20.5013 43.9459C20.7472 43.3499 20.6131 42.821 20.032 42.1281C19.138 41.0554 18.5942 40.2284 18.0056 39.0439C17.2755 37.5762 16.8583 36.2949 16.5454 34.5367C16.3815 33.6203 16.3592 31.0576 16.5082 30.1412C16.9626 27.3252 18.0652 24.7847 19.7787 22.6392C21.7306 20.1956 24.7553 18.2363 27.765 17.4764C29.4711 17.0443 31.6762 16.8729 33.2407 17.0592C38.3365 17.6552 42.6947 20.6202 45.1084 25.1125C45.4362 25.7309 46.1216 27.3401 46.0695 27.3922C46.062 27.3997 45.615 27.5412 45.0861 27.7126C44.5497 27.8764 44.0431 28.0701 43.9462 28.1372C43.7451 28.2787 43.7302 28.614 43.9164 28.7853C43.9835 28.8449 45.0339 29.5378 46.2408 30.32C48.297 31.6536 48.4609 31.743 48.7887 31.743C49.0494 31.743 49.191 31.6983 49.3251 31.5716C49.5709 31.3556 51.5303 26.6472 51.5303 26.2747C51.5303 25.783 51.3217 25.7756 49.8615 26.23C49.4592 26.3492 49.0867 26.4535 49.042 26.4535C48.9973 26.4535 48.893 26.2747 48.8185 26.0587C48.3566 24.7326 47.5222 23.0936 46.6729 21.8569C43.7376 17.5881 38.9995 14.7199 33.8293 14.0941C33.129 14.0047 31.1175 13.9451 30.5215 13.9824Z" fill="white"/>
<path id="Vector_2" d="M25.4631 26.7144C24.3903 26.9081 23.474 27.5264 23.0642 28.3235C22.8333 28.778 22.5353 29.9923 22.647 30.037C22.6545 30.0445 23.325 30.1041 24.1296 30.1711L25.6046 30.2903L25.694 29.888C25.8579 29.143 26.2528 28.7556 26.886 28.7109C27.1989 28.6886 27.3405 28.7184 27.5714 28.8525C28.1823 29.2101 28.3388 29.7018 28.0482 30.3425C27.8247 30.8267 27.3703 31.2737 26.0889 32.272C24.219 33.7247 23.4367 34.5517 22.9078 35.617C22.6694 36.1087 22.4012 36.9952 22.4012 37.3081V37.4795H26.8339H31.2666V36.213V34.9465H29.054H26.8488L27.0276 34.7528C27.1244 34.6411 27.713 34.1792 28.3239 33.7247C30.1789 32.339 30.7302 31.7282 31.0431 30.7224C31.5199 29.1654 30.8792 27.6754 29.4414 27.0049C28.6368 26.6324 26.7072 26.4909 25.4631 26.7144Z" fill="white"/>
<path id="Vector_3" d="M34.8499 29.7837L32.168 32.9723L32.1605 34.2164V35.468H34.8425H37.5245V36.4738V37.4795H38.8654H40.2064V36.4738V35.468H40.8397H41.4729V34.276V33.084H40.8397H40.2064V29.8433V26.6026H38.8654H37.5319L34.8499 29.7837ZM37.5245 31.5196V33.084H36.2133C35.4906 33.084 34.917 33.0542 34.9319 33.017C34.9542 32.9574 37.4723 29.97 37.5096 29.9625C37.517 29.9551 37.5245 30.6554 37.5245 31.5196Z" fill="white"/>
<path id="Vector_4" d="M47.2615 35.4829C46.673 35.6394 46.2856 36.213 45.9801 37.3901C45.779 38.1426 46.0695 38.8801 46.673 39.1856C47.3062 39.4984 47.9022 39.4314 48.4088 38.977C48.6547 38.7535 48.7515 38.5896 48.9303 38.0383C49.2358 37.1145 49.2656 36.809 49.1166 36.4067C48.9601 36.0044 48.5131 35.5798 48.1257 35.4755C47.7905 35.3786 47.6415 35.3861 47.2615 35.4829Z" fill="white"/>
<path id="Vector_5" d="M44.6912 40.6159C44.3932 40.7053 44.0058 41.0852 43.529 41.7557C43.2161 42.1952 43.164 42.3144 43.1342 42.7242C43.1044 43.0743 43.1267 43.2531 43.2236 43.4468C43.5141 44.013 43.9984 44.3334 44.5795 44.3334C45.1457 44.3259 45.4958 44.1248 45.9875 43.5064C46.5611 42.7838 46.6878 42.523 46.6878 42.0388C46.6878 40.9809 45.7491 40.3104 44.6912 40.6159Z" fill="white"/>
<path id="Vector_6" d="M40.8694 44.5569C40.5788 44.6091 39.7072 45.0933 39.3049 45.4286C38.6344 45.9948 38.6344 47.1421 39.2974 47.7008C39.8636 48.1701 40.5192 48.1701 41.3238 47.6933C41.6144 47.522 41.972 47.2762 42.1135 47.1495C43.2608 46.1363 42.3743 44.3036 40.8694 44.5569Z" fill="white"/>
<path id="Vector_7" d="M23.0642 45.8085C22.6619 46.0618 22.498 46.3002 22.3937 46.7695C22.2149 47.5518 22.5725 48.1031 23.6229 48.6395C24.2264 48.9449 24.3604 48.9822 24.8 48.9896C25.2321 48.9896 25.3364 48.9598 25.612 48.7661C26.2155 48.3415 26.439 47.5667 26.1335 46.9036C25.9547 46.5013 25.6269 46.2406 24.8745 45.8905C24.055 45.518 23.5708 45.4956 23.0642 45.8085Z" fill="white"/>
<path id="Vector_8" d="M34.9543 47.0974C34.2838 47.2613 33.9784 47.4401 33.7176 47.82C33.5686 48.0435 33.5388 48.1776 33.5388 48.6619C33.5388 49.1908 33.5537 49.2579 33.7698 49.5261C34.0529 49.8837 34.5595 50.1444 34.9543 50.1444C35.4683 50.137 36.5933 49.8166 36.8913 49.5857C37.7182 48.9599 37.599 47.5369 36.6752 47.0899C36.2804 46.9037 35.7514 46.9037 34.9543 47.0974Z" fill="white"/>
<path id="Vector_9" d="M28.7708 47.4028C28.376 47.5443 28.1525 47.7529 27.9588 48.1478C27.4894 49.0939 28.0035 50.0698 29.0837 50.2933C29.8212 50.4498 30.6631 50.4274 31.0058 50.2486C32.1978 49.6303 31.937 47.7529 30.6258 47.4773C30.0298 47.3506 29.0166 47.3059 28.7708 47.4028Z" fill="white"/>
</g>
</g>
</svg>
