<svg width="64" height="65" viewBox="0 0 64 65" fill="none" xmlns="http://www.w3.org/2000/svg">
<g id="Group 9">
<rect y="0.18457" width="64" height="64" rx="32" fill="#FFEEE3" fill-opacity="0.17"/>
<g id="Black">
<path id="Vector" d="M27.2362 17.5771C26.9665 17.6401 24.9711 18.2243 22.8139 18.8715L18.877 20.0489L16.8367 19.5096C15.7041 19.213 14.6795 18.9703 14.5446 18.9703C14.1671 18.9703 13.8615 19.1501 13.7177 19.4647C13.6368 19.6265 12.5402 22.4938 11.2819 25.8374C9.76284 29.8642 8.98984 32.0304 8.98984 32.2551C8.98984 32.4439 9.05276 32.6775 9.12466 32.7854C9.19657 32.8843 10.1493 33.4865 11.2459 34.1157C13.1784 35.2392 13.2233 35.2662 13.1514 35.4999C13.1155 35.6257 13.0795 36.0931 13.0885 36.5425C13.0885 37.1627 13.1335 37.4504 13.2863 37.7739C13.7177 38.7357 14.7424 39.4727 15.812 39.6076C16.3513 39.6705 16.4502 39.7424 16.4502 40.0929C16.4502 40.4435 16.9355 41.3603 17.313 41.7378C18.1669 42.5917 19.4343 42.8613 20.6837 42.4748C20.7736 42.4479 20.8634 42.5108 20.9264 42.6546C21.1331 43.104 21.8342 43.7512 22.4094 44.0118C22.8858 44.2366 23.0746 44.2725 23.7307 44.2635C24.2251 44.2635 24.6116 44.2096 24.8273 44.1197L25.1599 43.9669L25.3396 44.2545C25.6362 44.7309 26.1755 45.1983 26.7418 45.45C27.6676 45.8814 29.0788 45.7556 29.7889 45.1803L30.0585 44.9736L31.3618 45.7376C33.1235 46.7623 33.501 46.9151 34.31 46.9241C35.101 46.9241 35.7751 46.6904 36.3863 46.214C36.8537 45.8455 37.3301 45.0455 37.4379 44.4703C37.5009 44.1736 37.5278 44.1377 37.6986 44.2006C37.7975 44.2366 38.2918 44.2725 38.7862 44.2725C39.5951 44.2725 39.739 44.2455 40.1614 44.0208C41.0513 43.5534 41.7254 42.6276 41.8512 41.7108L41.9051 41.2884L42.5074 41.2255C43.8826 41.0996 45.069 40.066 45.2937 38.8076C45.3477 38.502 45.3926 38.4391 45.5364 38.4571C45.6263 38.466 46.0218 38.484 46.3993 38.493C46.9836 38.493 47.1723 38.4571 47.6667 38.2234C48.7183 37.738 49.3655 36.8481 49.5003 35.6976L49.5722 35.1224L52.0889 34.1876C54.8484 33.1539 55.0101 33.064 55.0101 32.4439C55.0101 32.2102 54.2551 29.9451 52.808 25.8194C50.471 19.1591 50.471 19.1501 49.9048 19.1501C49.7699 19.1501 48.6374 19.3568 47.397 19.6085L45.123 20.0579L41.1951 18.8894C36.0987 17.3704 36.2784 17.4153 35.2358 17.4603C34.319 17.4962 33.8965 17.649 32.4944 18.458L31.955 18.7726L31.191 18.3142C30.0765 17.658 29.4293 17.4423 28.4945 17.4513C28.0721 17.4513 27.5058 17.5142 27.2362 17.5771ZM29.4473 19.5456C29.699 19.6624 29.9327 19.7973 29.9596 19.8332C29.9866 19.8782 29.2406 20.3545 28.3148 20.8938C26.4991 21.9455 26.1306 22.2421 25.7351 23.0151C25.5104 23.4555 25.4834 23.5993 25.4834 24.4083C25.4834 25.2082 25.5104 25.361 25.7351 25.8105C26.3463 27.0598 27.7485 27.7609 29.1507 27.5093C29.4563 27.4463 30.1754 27.1857 30.7416 26.925C31.3079 26.6643 32.0719 26.3228 32.4404 26.17L33.1056 25.8914L34.8223 26.925C36.2155 27.7609 36.602 27.9587 36.8807 27.9587C37.3211 27.9587 37.5368 27.8418 37.7076 27.5093C37.8784 27.1767 37.8784 26.943 37.7076 26.6194C37.5188 26.2509 33.6718 23.9139 33.2584 23.9139C32.9258 23.9139 31.3708 24.5161 29.9327 25.1992C28.899 25.6846 28.4676 25.7565 27.9732 25.4959C27.344 25.1723 27.1283 24.3184 27.5328 23.7341C27.6856 23.5094 28.5664 22.9522 31.236 21.4062L34.7414 19.3748L35.5054 19.3838C36.2155 19.3838 36.5391 19.4737 40.4041 20.6332C42.6781 21.3163 44.7005 21.8915 44.9072 21.9185C45.114 21.9365 46.0667 21.7927 47.1813 21.568C48.2959 21.3433 49.1138 21.2264 49.1587 21.2713C49.2396 21.3612 52.8529 31.6439 52.8529 31.7787C52.8529 31.8326 51.9541 32.2012 50.8665 32.6056L48.8801 33.3517L48.5385 33.0551C48.0172 32.6236 44.296 30.3945 43.9725 30.3316C43.595 30.2507 43.1635 30.4395 43.0107 30.754C42.813 31.1316 42.8399 31.6169 43.0826 31.8506C43.1905 31.9585 44.1792 32.5967 45.2758 33.2528C47.0465 34.3224 47.2892 34.5022 47.4689 34.8348C47.6217 35.1224 47.6487 35.2842 47.6038 35.5358C47.5139 35.9942 47.0824 36.4706 46.642 36.5875C46.1566 36.7223 46.1836 36.7313 40.8984 33.6753C37.9323 31.9585 36.3683 31.1046 36.1975 31.1046C35.4515 31.1046 35.0111 31.8506 35.3616 32.5247C35.4605 32.7045 36.4402 33.3157 39.1457 34.8707C41.1591 36.0302 42.9208 37.0728 43.0646 37.1897C44.0803 38.0436 43.0107 39.7783 41.7973 39.257C41.6265 39.1851 39.7839 38.1515 37.7166 36.956C35.6403 35.7606 33.8336 34.7539 33.6988 34.7269C33.3572 34.664 32.8449 34.9246 32.7191 35.2482C32.5932 35.5448 32.6561 36.1111 32.8359 36.2909C32.8988 36.3538 34.4268 37.2616 36.2335 38.3043C38.0312 39.3379 39.5951 40.2997 39.703 40.4345C40.1344 40.9558 40.0805 41.558 39.5592 42.0883C39.2536 42.3939 39.1637 42.4299 38.7682 42.4299C38.3637 42.4299 38.1031 42.2951 35.1549 40.5963C32.6831 39.1671 31.9371 38.6908 31.7573 38.4391C31.2989 37.8009 30.1214 37.2167 29.2945 37.2167C29.0788 37.2167 29.0518 37.1717 28.9979 36.8302C28.7912 35.4549 27.5687 34.3494 26.1396 34.2685L25.5464 34.2325L25.4385 33.8281C25.2138 32.9112 24.6565 32.2102 23.8026 31.7607C23.3712 31.536 23.2453 31.5091 22.3825 31.5091C21.5286 31.5091 21.3937 31.536 20.9893 31.7518C20.7466 31.8866 20.423 32.0933 20.2792 32.2102L20.0185 32.4169L19.65 32.0484C18.5085 30.9158 16.549 30.8529 15.3446 31.9135C15.1558 32.0753 14.8143 32.5158 14.5806 32.9023L14.1581 33.5944L12.6301 32.7135C11.7672 32.2102 11.1111 31.7787 11.1201 31.7158C11.156 31.572 15.0929 21.1006 15.1379 21.0646C15.1558 21.0466 15.9378 21.2354 16.8726 21.4871C17.8164 21.7297 18.7152 21.9365 18.886 21.9365C19.1017 21.9365 26.7778 19.7343 27.8204 19.3748C28.153 19.258 29.0338 19.3478 29.4473 19.5456ZM18.122 33.2708C18.4905 33.4955 18.7332 33.9988 18.6703 34.4213C18.6074 34.8707 17.2232 37.2526 16.8906 37.4953C16.3063 37.9088 15.5423 37.756 15.1199 37.1268C14.7693 36.6144 14.8682 36.201 15.6502 34.8527C16.4771 33.4236 16.585 33.2888 17.0344 33.127C17.4389 32.9921 17.7085 33.0281 18.122 33.2708ZM23.1015 33.5854C23.2543 33.7202 23.4341 33.9359 23.506 34.0797C23.7846 34.619 23.7217 34.7898 22.1308 37.5492C21.2949 38.9874 20.5578 40.2367 20.4859 40.3266C20.414 40.4075 20.1893 40.5603 19.9826 40.6502C19.668 40.794 19.5332 40.803 19.2455 40.7221C18.5894 40.5513 18.113 39.7334 18.3377 39.1581C18.4995 38.7267 21.232 34.0348 21.4746 33.7651C21.7623 33.4505 21.969 33.3607 22.4454 33.3607C22.724 33.3517 22.8858 33.4146 23.1015 33.5854ZM26.6609 36.4167C26.7868 36.5335 26.9485 36.7403 27.0205 36.8751C27.2811 37.3874 27.2002 37.6211 26.0138 39.6885C24.6385 42.0794 24.6296 42.0973 24.2161 42.2951C23.4161 42.6726 22.4723 42.0434 22.4723 41.1356C22.4723 40.848 22.6881 40.4165 23.6139 38.7986C24.7464 36.8122 25.052 36.3718 25.3936 36.219C25.7171 36.0751 26.4092 36.183 26.6609 36.4167ZM29.9237 39.3559C30.3192 39.6525 30.5169 39.9941 30.5169 40.3895C30.5169 40.6952 30.3821 41.0008 29.8158 41.9805C29.4203 42.6456 29.0069 43.3018 28.872 43.4456C28.2878 44.0568 27.3081 43.904 26.9126 43.131C26.6519 42.6276 26.7418 42.2681 27.4699 40.9828C27.8474 40.3176 28.2429 39.6795 28.3507 39.5626C28.7642 39.0952 29.4563 39.0053 29.9237 39.3559ZM35.1819 42.8703C36.0807 43.6523 35.4245 45.1624 34.2381 45.0185C33.8965 44.9736 32.6921 44.3534 31.3888 43.5445L31.191 43.4096L31.4697 42.9422C31.6225 42.6906 31.8831 42.1872 32.0539 41.8367L32.3685 41.1895L33.6898 41.9535C34.4179 42.376 35.083 42.7894 35.1819 42.8703Z" fill="white"/>
<path id="Vector_2" d="M39.748 28.4531C39.4065 28.7407 39.3166 29.1002 39.4964 29.5137C39.8829 30.4575 41.2581 30.1699 41.2581 29.1542C41.2581 28.3362 40.3772 27.9228 39.748 28.4531Z" fill="white"/>
</g>
</g>
</svg>
