<svg width="64" height="65" viewBox="0 0 64 65" fill="none" xmlns="http://www.w3.org/2000/svg">
<g id="Group 5">
<rect y="0.18457" width="64" height="64" rx="32" fill="#FFEEE3" fill-opacity="0.17"/>
<g id="Black">
<path id="Vector" d="M30.5138 17.0404C28.8831 17.214 26.739 17.9161 25.3272 18.7391C22.481 20.4 20.3822 22.9744 19.3479 26.0698C19.0912 26.8474 18.827 28.0478 18.7364 28.8556L18.6911 29.2859L18.1475 29.4143C16.0638 29.9125 14.1991 31.4527 13.2931 33.408C12.8175 34.4423 12.6967 35.0765 12.6967 36.4732C12.6967 37.5377 12.7193 37.8095 12.8703 38.353C13.5875 40.9954 15.7316 43.0338 18.3438 43.5774C18.9704 43.7057 19.4008 43.7208 22.5339 43.7208H26.0218V42.4751V41.2294H22.6622C20.4955 41.2294 19.1667 41.1992 18.91 41.1464C17.9814 40.9501 16.9094 40.2933 16.2601 39.5081C14.2444 37.0998 15.0899 33.4684 17.9814 32.1321C18.5326 31.8679 19.0082 31.7546 19.8462 31.6791C20.3898 31.6263 20.722 31.4602 20.9862 31.0978C21.107 30.9317 21.1523 30.7128 21.1976 30.0409C21.3033 28.5007 21.5147 27.557 22.028 26.2963C22.9793 23.9559 24.7837 22.0081 27.0939 20.8077C32.4314 18.0445 39.0374 20.2263 41.7024 25.6394C42.0799 26.4019 42.2007 26.7492 42.6235 28.2139C42.85 28.999 43.0462 29.1576 44.0503 29.4067C45.9755 29.8672 47.3722 30.9393 48.1875 32.5851C48.6481 33.5137 48.8217 34.2611 48.8217 35.2652C48.8217 38.0284 46.9645 40.3914 44.2617 41.0785C43.7182 41.2143 43.4237 41.2294 40.8417 41.2294H38.0257V42.4751V43.7208H40.8795C42.48 43.7208 43.9371 43.6831 44.2164 43.6378C47.8327 43.064 50.7167 40.1574 51.2376 36.5562C51.366 35.6805 51.298 33.9667 51.1017 33.2268C50.3392 30.3504 48.3461 28.1686 45.6509 27.2551L44.8959 26.9984L44.6996 26.3566C43.4313 22.1817 40.1547 18.8901 35.9496 17.5764C34.651 17.1687 33.8583 17.0555 32.288 17.0328C31.4802 17.0177 30.6799 17.0253 30.5138 17.0404Z" fill="#FF6600"/>
<path id="Vector_2" d="M31.8728 31.6187C31.7898 31.6338 31.6388 31.664 31.5331 31.6866C31.3368 31.7319 26.3238 36.6619 26.3238 36.8129C26.3238 36.8506 26.7089 37.2658 27.1694 37.7339L28.0225 38.587L29.3965 37.213L30.7781 35.8314V41.5918V47.3446H32.0238H33.2695V41.6295V35.9069L34.6284 37.2658L35.9874 38.6248L36.8707 37.7339L37.7615 36.8506L35.2701 34.3517C33.8961 32.9852 32.7108 31.8225 32.6278 31.7772C32.4315 31.664 32.0615 31.5885 31.8728 31.6187Z" fill="#FF6600"/>
</g>
</g>
</svg>
