<svg width="29" height="29" viewBox="0 0 29 29" fill="none" xmlns="http://www.w3.org/2000/svg">
<g id="Component 1">
<path id="Vector" d="M12.8667 16.7464L10.3292 14.2089C10.1153 13.995 9.85282 13.8881 9.54171 13.8881C9.2306 13.8881 8.95837 14.0047 8.72504 14.2381C8.51115 14.452 8.40421 14.7242 8.40421 15.0547C8.40421 15.3853 8.51115 15.6575 8.72504 15.8714L12.05 19.1964C12.2639 19.4103 12.5362 19.5172 12.8667 19.5172C13.1973 19.5172 13.4695 19.4103 13.6834 19.1964L20.3042 12.5756C20.5181 12.3617 20.625 12.0992 20.625 11.7881C20.625 11.477 20.5084 11.2047 20.275 10.9714C20.0612 10.7575 19.7889 10.6506 19.4584 10.6506C19.1278 10.6506 18.8556 10.7575 18.6417 10.9714L12.8667 16.7464ZM14.5 26.3131C12.8862 26.3131 11.3695 26.0066 9.95004 25.3937C8.5306 24.7816 7.29587 23.9506 6.24587 22.9006C5.19587 21.8506 4.36482 20.6158 3.75271 19.1964C3.13982 17.777 2.83337 16.2603 2.83337 14.6464C2.83337 13.0325 3.13982 11.5158 3.75271 10.0964C4.36482 8.67696 5.19587 7.44224 6.24587 6.39224C7.29587 5.34224 8.5306 4.51079 9.95004 3.8979C11.3695 3.28579 12.8862 2.97974 14.5 2.97974C16.1139 2.97974 17.6306 3.28579 19.05 3.8979C20.4695 4.51079 21.7042 5.34224 22.7542 6.39224C23.8042 7.44224 24.6353 8.67696 25.2474 10.0964C25.8603 11.5158 26.1667 13.0325 26.1667 14.6464C26.1667 16.2603 25.8603 17.777 25.2474 19.1964C24.6353 20.6158 23.8042 21.8506 22.7542 22.9006C21.7042 23.9506 20.4695 24.7816 19.05 25.3937C17.6306 26.0066 16.1139 26.3131 14.5 26.3131Z" fill="#FF6600"/>
</g>
</svg>
