<svg width="32" height="33" viewBox="0 0 32 33" fill="none" xmlns="http://www.w3.org/2000/svg">
<path d="M12.04 23.3765L23.1234 16.2515L12.04 9.12655V23.3765ZM15.9984 32.0849C13.8081 32.0849 11.7498 31.669 9.82337 30.8372C7.89698 30.0065 6.22129 28.8786 4.79629 27.4536C3.37129 26.0286 2.24343 24.3529 1.41271 22.4265C0.580928 20.5002 0.165039 18.4418 0.165039 16.2515C0.165039 14.0613 0.580928 12.0029 1.41271 10.0765C2.24343 8.15016 3.37129 6.47446 4.79629 5.04946C6.22129 3.62446 7.89698 2.49607 9.82337 1.6643C11.7498 0.833574 13.8081 0.418213 15.9984 0.418213C18.1887 0.418213 20.247 0.833574 22.1734 1.6643C24.0998 2.49607 25.7755 3.62446 27.2005 5.04946C28.6255 6.47446 29.7533 8.15016 30.584 10.0765C31.4158 12.0029 31.8317 14.0613 31.8317 16.2515C31.8317 18.4418 31.4158 20.5002 30.584 22.4265C29.7533 24.3529 28.6255 26.0286 27.2005 27.4536C25.7755 28.8786 24.0998 30.0065 22.1734 30.8372C20.247 31.669 18.1887 32.0849 15.9984 32.0849Z" fill="#FF6600"/>
</svg>
