<svg width="25" height="25" viewBox="0 0 25 25" fill="none" xmlns="http://www.w3.org/2000/svg">
<g id="material-symbols:search">
<path id="Vector" d="M19.8531 21.6846L13.5531 15.3846C13.0531 15.7846 12.4781 16.1012 11.8281 16.3346C11.1781 16.5679 10.4864 16.6846 9.75305 16.6846C7.93639 16.6846 6.39905 16.0556 5.14105 14.7976C3.88239 13.5389 3.25305 12.0012 3.25305 10.1846C3.25305 8.3679 3.88239 6.83024 5.14105 5.57157C6.39905 4.31357 7.93639 3.68457 9.75305 3.68457C11.5697 3.68457 13.1074 4.31357 14.3661 5.57157C15.6241 6.83024 16.2531 8.3679 16.2531 10.1846C16.2531 10.9179 16.1364 11.6096 15.9031 12.2596C15.6697 12.9096 15.3531 13.4846 14.9531 13.9846L21.2531 20.2846L19.8531 21.6846ZM9.75305 14.6846C11.0031 14.6846 12.0657 14.2472 12.9411 13.3726C13.8157 12.4972 14.2531 11.4346 14.2531 10.1846C14.2531 8.93457 13.8157 7.8719 12.9411 6.99657C12.0657 6.1219 11.0031 5.68457 9.75305 5.68457C8.50305 5.68457 7.44038 6.1219 6.56505 6.99657C5.69038 7.8719 5.25305 8.93457 5.25305 10.1846C5.25305 11.4346 5.69038 12.4972 6.56505 13.3726C7.44038 14.2472 8.50305 14.6846 9.75305 14.6846Z" fill="white"/>
</g>
</svg>
