<svg width="80" height="81" viewBox="0 0 80 81" fill="none" xmlns="http://www.w3.org/2000/svg">
<g id="image 19 (traced)">
<rect y="0.492676" width="80" height="80" rx="40" fill="#A3A3A3"/>
<g id="Black">
<path id="Vector" d="M36.6301 12.5553C34.969 12.7198 31.2507 13.4001 31.8448 13.422C31.9328 13.422 32.4608 13.3562 32.9999 13.2574C34.463 13.0161 37.3452 12.9393 39.3144 13.1038C48.1811 13.806 55.5186 18.6882 59.1929 26.3242C59.886 27.7614 60.458 29.429 60.7771 30.9321C61.0741 32.3583 61.1841 35.1231 61.0081 36.681C60.568 40.3783 58.8519 44.4267 56.5747 47.0817C56.2557 47.4657 55.7717 48.0252 55.4966 48.3434C55.0016 48.9249 55.0016 48.9249 55.8597 48.1569C59.2919 45.1288 61.6461 41.234 62.6032 37.0211C62.8782 35.7813 62.9442 31.6562 62.7132 30.2848C62.2072 27.3116 60.9531 24.3054 59.1929 21.8808C58.3899 20.7727 56.4207 18.7101 55.2876 17.7995C51.9214 15.1006 47.895 13.3781 43.3407 12.7089C42.0096 12.5114 37.9942 12.4236 36.6301 12.5553Z" fill="white"/>
<path id="Vector_2" d="M35.1996 15.5943C32.2294 15.8466 28.5991 16.9657 25.5739 18.5565C23.0437 19.884 21.3825 21.1348 19.2484 23.318C15.9481 26.6972 13.6489 30.57 12.7029 34.3222C12.5378 34.9914 12.3728 35.7813 12.3288 36.0885C12.2738 36.5493 12.3178 36.4615 12.6259 35.54C13.6489 32.49 15.9591 28.9682 18.7643 26.1705C20.6675 24.2725 22.8347 22.6707 25.0018 21.5736C31.0523 18.5017 38.2469 18.381 44.0443 21.2664C48.8627 23.6581 52.515 28.0357 53.8131 32.9617C54.0331 33.7846 54.0991 34.366 54.1431 35.7813C54.2091 37.8329 54.0881 38.9081 53.6041 40.4222C52.218 44.7777 48.6317 48.2556 44.2974 49.4295C43.0543 49.7696 40.4361 49.8464 39.259 49.5831C35.7717 48.8151 33.5825 46.0394 34.0226 42.9455C34.2866 41.1243 35.1336 39.5445 36.6848 37.9975C37.4988 37.1856 37.8068 36.9662 38.7859 36.4835C40.172 35.8033 40.9641 35.5948 42.1412 35.5948C42.8673 35.5948 43.0873 35.6387 43.3183 35.8142C43.9673 36.3299 43.9893 37.5258 43.3623 38.8204C42.5372 40.5209 40.4801 41.8923 39.754 41.234C39.567 41.0695 39.545 41.0804 39.479 41.3547C39.38 41.7497 39.578 41.8704 40.238 41.8045C41.1401 41.7058 41.9212 41.2669 42.8342 40.3344C44.6164 38.5241 45.1224 36.3518 44.0333 35.1999C43.5713 34.7062 42.9663 34.5635 41.5581 34.6294C40.6011 34.6732 40.161 34.75 39.281 35.0463C35.9037 36.1873 33.0875 39.1276 32.2734 42.386C31.9544 43.6696 32.0094 45.3921 32.4274 46.5441C33.2195 48.7822 35.4637 50.8448 38.0709 51.7115C40.6891 52.5892 43.9893 52.5673 46.7946 51.6457C48.9397 50.9545 50.7989 49.8245 52.515 48.1569C55.2982 45.4579 57.1684 42.0569 57.9935 38.1182C58.3015 36.67 58.2685 33.2141 57.9384 31.5574C57.2454 28.1234 55.7383 25.0844 53.4391 22.5062C50.1058 18.754 45.0344 16.1977 39.853 15.6382C38.8629 15.5285 36.2337 15.5065 35.1996 15.5943Z" fill="#FF6600"/>
<path id="Vector_3" d="M38.9948 26.7191C41.448 26.9276 43.4832 27.4871 45.0783 28.3977C46.9485 29.4619 48.2466 30.7894 49.0606 32.468C49.7097 33.8284 49.8307 34.399 49.8307 36.1434C49.8197 37.3941 49.7757 37.7891 49.5337 38.6668C48.8516 41.1133 47.5535 43.154 45.7384 44.5802C44.7043 45.4031 44.6823 45.447 45.4304 45.0301C47.8725 43.7025 49.7427 41.5302 50.6448 38.974C51.0298 37.8659 51.0408 37.811 51.0408 36.1434C51.0408 34.6623 51.0078 34.3331 50.7878 33.62C49.7207 30.2409 47.1795 27.9588 43.3072 26.9056C42.5921 26.7081 42.0971 26.6752 40.1499 26.6423C38.1148 26.6204 37.9828 26.6313 38.9948 26.7191Z" fill="white"/>
<path id="Vector_4" d="M36.2447 28.6939C33.8355 28.9682 31.3823 29.8569 29.3911 31.1844C27.818 32.2267 25.9148 34.2563 24.6387 36.2531C23.9347 37.3393 22.9116 39.4896 22.5596 40.6087C21.9325 42.6054 21.7895 43.6038 21.7895 45.9626C21.7785 48.4421 21.9655 49.6599 22.6696 51.8103C25.2988 59.8632 33.4174 65.4585 42.4602 65.4585C46.6735 65.4585 49.9627 64.6357 54.1651 62.5402C56.6183 61.3004 58.4774 59.9619 60.5126 57.9322C62.7678 55.6722 64.3519 53.4779 65.727 50.6803C66.7061 48.6945 67.1571 47.4547 67.4761 45.7542C67.7622 44.317 67.7622 44.0866 67.4871 45.0411C67.0361 46.6209 65.859 48.9358 64.5389 50.8448C61.5797 55.1455 57.6084 58.4369 53.241 60.2143C46.1234 63.0997 37.9168 62.0026 32.3394 57.4166C29.0611 54.7177 26.5969 50.7022 25.9478 46.95C25.6838 45.447 25.7828 42.5506 26.1569 41.2999C26.7509 39.2483 27.433 37.8549 28.5551 36.3738C30.5022 33.7956 33.3514 32.0072 36.5747 31.3599C37.6968 31.1405 40.106 31.1954 41.129 31.4806C42.6912 31.9085 44.1543 32.9179 45.0454 34.1905C45.8374 35.3206 45.9584 35.7594 45.9034 37.4929C45.8594 38.8423 45.8374 38.9959 45.4964 39.8078C45.0014 40.9488 44.2423 42.0679 43.3732 42.9126C42.4712 43.8013 42.0971 44.0756 41.052 44.6022C39.919 45.1837 39.1599 45.3592 37.8838 45.3592C36.8387 45.3592 36.8057 45.3482 36.5417 45.0301C36.0246 44.4157 36.0576 43.1979 36.6187 42.0788C37.4108 40.5319 39.6549 39.0398 40.205 39.709C40.381 39.9175 40.535 39.8188 40.535 39.4896C40.535 39.1495 40.106 39.0508 39.3689 39.2483C37.8068 39.6542 36.2337 41.2231 35.5846 43.0224C35.1556 44.2072 35.4196 45.5457 36.1787 46.0065C37.0147 46.5222 38.8189 46.5222 40.502 46.0065C42.2951 45.458 44.4293 44.0098 45.7384 42.4518C46.5635 41.4754 47.5206 39.5664 47.7516 38.4474C48.0046 37.2625 47.9166 35.3315 47.5756 34.4538C46.3435 31.2612 43.2192 29.0999 39.2149 28.683C38.0158 28.5623 37.4108 28.5623 36.2447 28.6939Z" fill="#FF6600"/>
<path id="Vector_5" d="M23.2304 33.7626C21.4373 35.5619 20.6562 36.5713 19.5672 38.4693C18.3461 40.6087 17.598 42.7152 17.257 45.063C17.004 46.7526 17.092 49.8903 17.433 51.4483C18.8081 57.8335 23.0324 63.0448 29.2589 66.04C31.7121 67.2249 33.8463 67.8393 37.0475 68.3C39.6327 68.6731 44.2311 68.4866 46.7503 67.8941C47.2674 67.7734 47.3114 67.7515 46.9263 67.8063C40.1718 68.5963 33.9123 67.2907 28.9839 64.0761C27.4988 63.0997 26.4647 62.2439 25.0676 60.8177C22.0644 57.7348 20.0292 54.0375 19.1931 50.1207C18.8961 48.7384 18.7751 45.7542 18.9621 44.1963C19.3031 41.3218 20.4692 38.1511 22.1304 35.5948C22.7904 34.5855 23.3955 33.8285 24.4075 32.7643C24.7596 32.3912 25.0236 32.084 24.9796 32.084C24.9356 32.084 24.1435 32.8411 23.2304 33.7626Z" fill="#FF6600"/>
<path id="Vector_6" d="M33.6375 36.5493C29.6662 39.2044 27.939 43.8562 29.4351 47.9265C30.5572 50.9875 32.9994 53.0501 36.6847 54.0484C37.3668 54.2349 37.9058 54.2788 39.765 54.3008C41.0081 54.3117 41.7011 54.3117 41.3051 54.2898C37.6528 54.0814 34.8916 53.0391 32.8014 51.0752C30.7992 49.1882 29.9852 47.1805 30.1172 44.4815C30.2602 41.618 31.4263 39.0618 33.5825 36.9333C34.0885 36.4396 34.4735 36.0337 34.4515 36.0337C34.4405 36.0337 34.0665 36.2641 33.6375 36.5493Z" fill="#FF6600"/>
<path id="Vector_7" d="M39.6996 40.3679C39.6557 40.4665 39.6776 40.5979 39.7435 40.6636C39.9193 40.8389 40.2597 40.7184 40.2597 40.4775C40.2597 40.1927 39.7985 40.1051 39.6996 40.3679Z" fill="#FF6600"/>
</g>
</g>
</svg>
