<svg width="80" height="81" viewBox="0 0 80 81" fill="none" xmlns="http://www.w3.org/2000/svg">
<rect y="0.18457" width="80" height="80" rx="40" fill="#A3A3A3"/>
<g clip-path="url(#clip0_1_279)">
<path d="M50.7651 32.5908C51.3318 33.8249 51.9643 35.0282 52.5265 36.2645C53.6085 38.6439 54.4302 41.1562 54.7716 43.7474C55.1129 46.3386 54.9644 49.0145 54.1551 51.499C53.2398 54.3036 51.5024 56.7988 49.3736 58.8409C46.8553 61.2568 43.6227 63.1193 40.1355 63.2568C37.8634 63.3462 35.6013 62.6966 33.5891 61.6375C31.8981 60.7475 30.3544 59.5615 29.1227 58.1006C27.8911 56.6397 26.9766 54.9001 26.5531 53.0366C26.0316 50.742 26.2676 48.306 27.0568 46.0892C27.6213 44.5039 28.458 43.0278 29.0536 41.454C29.7046 39.7343 30.0681 37.8979 30.9305 36.2739C31.7121 34.8014 32.8845 33.5436 33.5073 31.9973C33.8793 31.0737 34.0406 30.0817 34.2809 29.1154C34.5211 28.149 34.8573 27.1756 35.5115 26.4249C36.2999 25.5203 37.4858 25.03 38.6776 24.8923C39.8694 24.7546 41.0758 24.9405 42.2455 25.2074C43.1767 25.4197 44.0966 25.6834 44.9965 26.0035C45.7647 26.2768 46.5258 26.595 47.19 27.0677C48.0951 27.7117 48.7844 28.6186 49.3336 29.5843C49.8827 30.55 50.3031 31.5816 50.7668 32.591L50.7651 32.5908Z" fill="#020204"/>
<path d="M40.7587 63.2787C41.716 63.3344 42.6716 63.4274 43.6202 63.5706C44.4544 63.6973 45.2825 63.8606 46.1023 64.0601C47.3864 64.3713 48.6659 64.7681 49.9866 64.8057C50.3342 64.8157 50.6829 64.8002 51.024 64.7246C51.3652 64.6491 51.6928 64.5114 51.9648 64.2947C52.3704 63.9715 52.6263 63.4839 52.7232 62.9741C52.8202 62.4643 52.7594 61.9339 52.6101 61.4372C52.3116 60.444 51.6702 59.5965 51.1415 58.7051C50.8378 58.1948 50.5671 57.6642 50.2382 57.1699C49.9092 56.6756 49.5158 56.2126 49.0163 55.8905C48.3256 55.4453 47.4692 55.3001 46.6516 55.3816C45.8341 55.4631 45.0503 55.7584 44.3206 56.1363C43.2979 56.6658 42.3351 57.393 41.7776 58.4008C41.5835 58.7516 41.4425 59.1284 41.2777 59.4939C41.1129 59.8595 40.9198 60.2191 40.6407 60.5066C40.3291 60.8272 39.9249 61.0434 39.6027 61.3531C39.4417 61.5097 39.3007 61.6881 39.2198 61.8958C39.1389 62.1035 39.1168 62.3407 39.1919 62.5511C39.2436 62.6956 39.3382 62.8223 39.4548 62.9219C39.5714 63.0214 39.7093 63.0942 39.8539 63.1447C40.1428 63.2463 40.4544 63.2613 40.7602 63.2791L40.7587 63.2787Z" fill="#020204"/>
<path d="M37.913 63.2169C37.1151 63.2353 36.3255 63.3781 35.5458 63.5396C34.7987 63.694 34.0551 63.866 33.3171 64.0597C32.0719 64.3866 30.8251 64.778 29.5379 64.8054C29.1992 64.8123 28.858 64.794 28.5278 64.7176C28.1976 64.6412 27.8781 64.5053 27.6131 64.294C27.2084 63.9713 26.9512 63.4846 26.856 62.976C26.7608 62.4674 26.8189 61.9379 26.9665 61.4418C27.2619 60.4497 27.8953 59.6003 28.414 58.7045C28.7087 58.1954 28.9687 57.6661 29.2874 57.1716C29.6061 56.6771 29.9899 56.2131 30.4815 55.8898C31.1513 55.4494 31.9866 55.3003 32.7843 55.3788C33.582 55.4573 34.3465 55.7513 35.05 56.1356C36.0432 56.6781 36.9502 57.4247 37.5245 58.3984C37.9274 59.0824 38.1598 59.8648 38.6308 60.5042C38.8844 60.8484 39.2052 61.1457 39.4141 61.5177C39.5196 61.7036 39.5968 61.9085 39.6148 62.1217C39.6327 62.3349 39.5887 62.5565 39.4686 62.7335C39.3894 62.8507 39.2793 62.9454 39.1565 63.0152C39.0336 63.0849 38.898 63.1309 38.7596 63.1596C38.4811 63.2174 38.1974 63.2084 37.9145 63.2153L37.913 63.2169ZM33.4546 29.9914C33.3425 28.6424 33.3676 27.286 33.3188 25.9332C33.2704 24.6324 33.1507 23.3324 33.1944 22.0314C33.2389 20.7086 33.4607 19.3683 34.0497 18.1795C34.6387 16.9907 35.5954 15.9849 36.7624 15.3559C37.859 14.7641 39.1237 14.5112 40.3714 14.5247C42.0633 14.5432 43.7593 15.0542 45.1292 16.0467C45.9882 16.6685 46.7105 17.47 47.2804 18.3642C47.7665 19.1274 48.1442 19.961 48.3813 20.8358C48.8675 22.6286 48.7521 24.5169 48.8467 26.3702C48.9364 28.1269 49.2175 29.8793 49.1218 31.6356C49.1009 32.0185 49.0598 32.4074 48.8897 32.7496C48.724 33.0829 48.4427 33.3509 48.1195 33.5358C47.7963 33.7206 47.4325 33.8258 47.0647 33.8825C46.329 33.996 45.5765 33.9212 44.8354 33.9899C43.7597 34.0896 42.7336 34.4886 41.6661 34.6538C40.3954 34.8505 39.0975 34.7112 37.811 34.6597C37.2958 34.6392 36.7788 34.6327 36.2674 34.5685C35.756 34.5043 35.2457 34.3805 34.7907 34.1379C34.5122 33.9885 34.2523 33.7941 34.0431 33.5548C33.8339 33.3154 33.6741 33.0326 33.5945 32.7233C33.475 32.2615 33.538 31.7753 33.5397 31.2982C33.5415 30.862 33.4906 30.4274 33.4527 29.9928L33.4546 29.9914Z" fill="#020204"/>
<path d="M35.4791 29.4716C35.297 29.6996 35.1783 29.9741 35.1066 30.2573C35.0349 30.5405 35.0088 30.8331 34.9975 31.1249C34.9752 31.7085 35.0107 32.3032 34.8565 32.8665C34.6911 33.4687 34.3211 33.9902 33.9587 34.4988C33.3312 35.3796 32.6967 36.283 32.3874 37.319C32.2 37.9464 32.1375 38.611 32.205 39.2623C31.5027 40.2938 30.8943 41.3894 30.3908 42.5312C29.6274 44.2617 29.1034 46.1041 28.9191 47.9862C28.6935 50.2912 28.9884 52.6618 29.8985 54.7915C30.5565 56.3312 31.5378 57.7408 32.8029 58.8379C33.4461 59.3957 34.1606 59.8718 34.9264 60.2472C37.5744 61.5487 40.8468 61.5509 43.4507 60.1637C44.8115 59.4385 45.9603 58.3782 47.0677 57.3053C47.7347 56.6591 48.3982 55.9977 48.907 55.2207C49.8864 53.7252 50.2276 51.9073 50.4396 50.1322C50.8103 47.0282 50.8221 43.7494 49.4613 40.9352C48.9914 39.9644 48.3697 39.0748 47.6196 38.2998C47.4203 36.9456 47.0268 35.6198 46.4548 34.3761C46.0423 33.4788 45.5379 32.6247 45.1546 31.7147C44.9972 31.341 44.8587 30.9585 44.6858 30.5926C44.513 30.2267 44.2959 29.8746 44.0028 29.5943C43.7029 29.3071 43.3292 29.1038 42.9348 28.9736C42.5404 28.8434 42.1254 28.7844 41.7111 28.7636C40.8817 28.7218 40.0506 28.8302 39.221 28.7973C38.5605 28.7712 37.902 28.6553 37.242 28.6943C36.912 28.7138 36.5823 28.7726 36.2759 28.8971C35.9696 29.0215 35.6873 29.2133 35.4812 29.4715L35.4791 29.4716Z" fill="#FDFDFB"/>
<g filter="url(#filter0_f_1_279)">
<path d="M35.0725 32.5675C35.3689 33.427 35.9654 34.1605 36.6714 34.7335C36.9064 34.9241 37.1556 35.0997 37.4314 35.2238C37.7071 35.3479 38.0113 35.4187 38.3125 35.393C38.6075 35.3679 38.8881 35.252 39.1462 35.1065C39.4043 34.961 39.6433 34.785 39.8934 34.6266C40.3222 34.3551 40.7811 34.1357 41.2262 33.8921C41.7627 33.5984 42.2828 33.2654 42.7345 32.8547C42.9412 32.6658 43.1341 32.4599 43.3625 32.2977C43.5908 32.1354 43.8643 32.0181 44.1436 32.0371C44.3532 32.0514 44.5497 32.1405 44.7549 32.1847C44.8594 32.2068 44.9638 32.2178 45.0677 32.2018C45.1716 32.1857 45.2731 32.1419 45.3459 32.066C45.435 31.9732 45.474 31.8397 45.4677 31.7109C45.4615 31.5821 45.4183 31.458 45.3581 31.3442C45.238 31.1165 45.0561 30.9203 44.9751 30.6761C44.9031 30.4585 44.9177 30.2236 44.924 29.9949C44.9302 29.7661 44.9253 29.5266 44.8195 29.3235C44.7391 29.1686 44.6044 29.0459 44.4502 28.9642C44.2959 28.8826 44.1229 28.8424 43.9496 28.8243C43.6023 28.7917 43.2544 28.8591 42.9062 28.8788C42.4439 28.9049 41.9799 28.8471 41.5178 28.8749C40.9416 28.9098 40.3765 29.0769 39.7991 29.0779C39.1401 29.0791 38.4818 28.8635 37.8308 28.9665C37.5515 29.0107 37.2851 29.1124 37.0169 29.2018C36.7487 29.2913 36.4716 29.3701 36.1889 29.3661C35.8679 29.3614 35.5571 29.2504 35.2368 29.2274C35.0767 29.2159 34.9127 29.2274 34.7623 29.2836C34.6119 29.3399 34.476 29.4445 34.4024 29.587C34.3601 29.6688 34.3392 29.7606 34.3352 29.8525C34.3312 29.9444 34.3439 30.0365 34.3662 30.1257C34.4105 30.3043 34.4922 30.4709 34.5576 30.6422C34.8001 31.2608 34.8521 31.9386 35.0688 32.5666L35.0725 32.5675Z" fill="black" fill-opacity="0.26"/>
</g>
<g opacity="0.3" filter="url(#filter1_f_1_279)">
<path d="M34.246 30.1179C34.8218 30.4738 35.3386 30.9106 35.7725 31.4089C36.1751 31.8712 36.5175 32.3955 37.0432 32.738C37.4145 32.9797 37.8604 33.116 38.3128 33.1574C38.844 33.206 39.3815 33.1274 39.8936 32.9887C40.3683 32.8601 40.8271 32.6793 41.2481 32.4404C42.0485 31.9857 42.7172 31.3192 43.5979 31.0204C43.7906 30.9551 43.9913 30.9085 44.177 30.828C44.3628 30.7475 44.5374 30.6269 44.6261 30.4563C44.7132 30.2925 44.7079 30.1033 44.7358 29.9233C44.7654 29.7309 44.8322 29.5446 44.8688 29.3531C44.9053 29.1617 44.9097 28.9568 44.82 28.7808C44.7455 28.6349 44.6103 28.5197 44.4545 28.4465C44.2987 28.3732 44.1238 28.34 43.949 28.332C43.5999 28.316 43.2549 28.3985 42.9068 28.4279C42.4455 28.4667 41.9811 28.4118 41.5183 28.4247C40.9425 28.4407 40.375 28.5609 39.7996 28.5858C39.143 28.6143 38.4882 28.5188 37.8313 28.4976C37.5473 28.4883 37.2613 28.4928 36.9812 28.5382C36.7012 28.5836 36.4263 28.67 36.1892 28.8149C35.9595 28.9555 35.772 29.1463 35.5614 29.3103C35.4561 29.3924 35.3442 29.4682 35.2213 29.526C35.0984 29.5837 34.9637 29.623 34.8262 29.6291C34.7553 29.6323 34.6838 29.6266 34.6138 29.6366C34.5551 29.6457 34.499 29.6654 34.4486 29.6946C34.3982 29.7238 34.3546 29.7618 34.3203 29.8066C34.2859 29.8514 34.2616 29.902 34.2486 29.9555C34.2356 30.009 34.2343 30.0644 34.2446 30.1184L34.246 30.1179Z" fill="black"/>
</g>
<path d="M35.745 22.2565C35.4352 22.2734 35.1384 22.4166 34.9116 22.6285C34.6848 22.8403 34.5252 23.1179 34.4267 23.4124C34.23 24.0014 34.2744 24.6399 34.3188 25.2575C34.3593 25.8183 34.4006 26.3897 34.6107 26.9114C34.7156 27.1721 34.8631 27.4162 35.0598 27.6188C35.2565 27.8214 35.504 27.9742 35.7765 28.0424C36.0324 28.1065 36.3053 28.0933 36.5569 28.0142C36.8084 27.9352 37.038 27.7914 37.2263 27.6073C37.5013 27.3384 37.6863 26.9866 37.7925 26.6169C37.8987 26.2472 37.929 25.8594 37.9234 25.475C37.9164 24.9939 37.8538 24.5107 37.703 24.054C37.5523 23.5973 37.3121 23.1658 36.9767 22.8206C36.8143 22.6535 36.6289 22.5064 36.4197 22.4034C36.2105 22.3004 35.9771 22.2424 35.7443 22.2549L35.745 22.2565Z" fill="url(#paint0_radial_1_279)"/>
<path d="M41.2311 22.2565C40.7472 22.5872 40.3416 23.0528 40.1432 23.6055C39.8933 24.302 39.989 25.0815 40.2302 25.7812C40.4774 26.4978 40.8906 27.1806 41.5148 27.6109C41.8269 27.8261 42.1881 27.9735 42.5644 28.0182C42.9407 28.063 43.332 28.0017 43.6679 27.8268C44.0775 27.6134 44.3899 27.2397 44.5838 26.8207C44.7777 26.4017 44.8606 25.9382 44.8864 25.4769C44.9212 24.8895 44.862 24.2923 44.6688 23.7363C44.459 23.1324 44.077 22.5754 43.5421 22.2278C43.274 22.0541 42.9691 21.9346 42.6526 21.891C42.3362 21.8473 42.0077 21.88 41.7099 21.9957C41.5402 22.0619 41.3815 22.1536 41.2313 22.2568L41.2311 22.2565Z" fill="url(#paint1_radial_1_279)"/>
<g opacity="0.3" filter="url(#filter2_f_1_279)">
<path d="M35.642 27.268L34.748 28.0835C34.5907 28.2419 34.433 28.4114 34.3625 28.6231C34.2998 28.8111 34.3117 29.0152 34.2807 29.2114C34.2702 29.2786 34.2546 29.3454 34.2542 29.4133C34.2537 29.4474 34.2582 29.4813 34.2678 29.5139C34.2777 29.5465 34.2939 29.5771 34.3174 29.602C34.3561 29.6433 34.4111 29.6657 34.4664 29.6768C34.5218 29.688 34.5787 29.6894 34.6349 29.6955C34.8883 29.7228 35.1219 29.8457 35.3318 29.9905L35.9497 30.4405C36.4249 30.7423 36.9929 30.8765 37.5556 30.8979C38.1184 30.9193 38.6797 30.8335 39.2318 30.723C39.6705 30.6352 40.108 30.5315 40.5242 30.3672C41.1618 30.1158 41.7364 29.7289 42.2854 29.319C42.5348 29.1327 42.7807 28.9407 43.0048 28.7246C43.0808 28.6511 43.1545 28.5749 43.2359 28.5077C43.3174 28.4405 43.4079 28.382 43.5085 28.3496C43.6617 28.3004 43.8281 28.3145 43.9868 28.3409C44.1064 28.361 44.2263 28.3879 44.3475 28.3827C44.408 28.3803 44.4688 28.3698 44.525 28.3472C44.5812 28.3246 44.6333 28.2898 44.6717 28.2428C44.7219 28.1799 44.7491 28.1018 44.7487 28.0214C44.749 27.9416 44.7243 27.863 44.6843 27.7942C44.6033 27.6567 44.4636 27.5639 44.3179 27.4992C44.1184 27.4104 43.9026 27.3669 43.6902 27.3154C43.0384 27.158 42.4048 26.9255 41.8041 26.6271C41.5054 26.4788 41.2151 26.3145 40.9213 26.1572C40.6191 25.9953 40.3112 25.8397 39.9831 25.7403C39.2498 25.518 38.4479 25.591 37.7243 25.8423C36.9201 26.1215 36.1931 26.6191 35.6415 27.2675L35.642 27.268Z" fill="black"/>
</g>
<path d="M37.2016 26.3469C37.5092 26.001 37.7196 25.5793 38.0152 25.223C38.1631 25.0449 38.3333 24.8827 38.5342 24.7675C38.7351 24.6522 38.968 24.5864 39.1986 24.6063C39.4552 24.6286 39.6955 24.7563 39.8833 24.9327C40.0712 25.109 40.2106 25.333 40.322 25.5636C40.4285 25.7861 40.5131 26.0231 40.6666 26.2163C40.8302 26.4224 41.06 26.5631 41.2671 26.7251C41.3709 26.8061 41.4702 26.894 41.5522 26.9967C41.6342 27.0994 41.6984 27.2188 41.7246 27.3477C41.7502 27.4797 41.7391 27.6162 41.6923 27.7423C41.6467 27.8677 41.5693 27.9811 41.473 28.0737C41.2805 28.2591 41.018 28.3592 40.7535 28.3966C40.2243 28.4715 39.6891 28.3138 39.1549 28.3287C38.6141 28.3435 38.0858 28.5348 37.5452 28.515C37.2749 28.5051 37.0007 28.4391 36.7786 28.2847C36.6666 28.208 36.572 28.1086 36.5008 27.993C36.4309 27.8772 36.3882 27.7441 36.3837 27.609C36.3793 27.4802 36.4094 27.3514 36.461 27.233C36.5125 27.1147 36.5851 27.0064 36.6667 26.9065C36.8303 26.7067 37.03 26.5399 37.2014 26.3471L37.2016 26.3469Z" fill="url(#paint2_radial_1_279)"/>
<g filter="url(#filter3_f_1_279)">
<path d="M43.2314 16.7714C42.7852 17.0863 42.9801 17.4794 43.1721 17.8741C43.364 18.2688 42.7501 19.4063 42.7435 19.4552C42.7369 19.5042 43.9518 18.8786 44.283 18.4721C44.674 17.9922 45.6622 19.1215 45.6086 18.9494C45.609 18.642 43.6779 16.4565 43.2316 16.7714H43.2314Z" fill="#7C7C7C"/>
</g>
<path d="M42.3472 23.7178C42.1653 23.7308 41.9879 23.7929 41.8337 23.8918C41.6795 23.9907 41.5477 24.1207 41.4443 24.2713C41.2377 24.572 41.1467 24.9409 41.1322 25.3052C41.1213 25.5788 41.1514 25.8561 41.2422 26.1146C41.3331 26.373 41.4859 26.6124 41.697 26.787C41.9129 26.9657 42.1872 27.0731 42.4673 27.0863C42.7473 27.0996 43.0312 27.019 43.261 26.8588C43.4443 26.7313 43.592 26.5556 43.6973 26.3588C43.8026 26.1619 43.8662 25.944 43.8949 25.7226C43.9461 25.3315 43.8883 24.9231 43.7074 24.5726C43.5266 24.222 43.2201 23.9332 42.8498 23.7969C42.6897 23.7378 42.5174 23.7071 42.3472 23.7193V23.7178Z" fill="#020204"/>
<g filter="url(#filter4_f_1_279)">
<path d="M42.7813 24.9109C42.6305 24.9704 42.3919 24.933 42.3259 25.081C42.2868 25.1687 42.3421 25.313 42.4309 25.349C42.6105 25.4221 42.889 25.2898 42.9618 25.1097C42.9931 25.0314 42.9456 24.9078 42.8678 24.8747C42.839 24.8625 42.8103 24.8991 42.7814 24.9106L42.7813 24.9109Z" fill="#141413"/>
</g>
<g filter="url(#filter5_f_1_279)">
<path d="M43.4721 25.3026C43.674 25.1007 43.3283 24.5646 43.0587 24.3453C42.8634 24.1863 42.2946 24.0198 42.319 24.193C42.3433 24.3662 42.5975 24.5874 42.7707 24.7564C42.9816 24.9644 43.3764 25.3987 43.4721 25.3026Z" fill="url(#paint3_linear_1_279)"/>
</g>
<mask id="mask0_1_279" style="mask-type:luminance" maskUnits="userSpaceOnUse" x="39" y="21" width="6" height="7">
<path d="M41.2311 22.2565C40.7877 22.6267 40.3246 23.0572 40.1432 23.6055C39.9152 24.2947 39.8589 25.1576 40.2302 25.7812C40.9125 26.9269 42.3858 28.192 43.6679 27.8264C44.5165 27.5845 44.7309 26.3469 44.8863 25.4766C44.989 24.901 44.9901 24.2246 44.6688 23.736C44.0401 22.7799 42.8538 22.0139 41.7097 21.9954C41.528 21.9924 41.3703 22.1399 41.2311 22.2565Z" fill="white"/>
</mask>
<g mask="url(#mask0_1_279)">
<path d="M39.4034 24.0189C39.8199 23.6734 40.3003 23.4131 40.8172 23.253C41.8765 22.9258 43.0799 23.0551 44.016 23.649C44.3393 23.854 44.6273 24.1089 44.9281 24.3459C45.2289 24.583 45.5478 24.8054 45.9091 24.9325C46.1041 25.0011 46.3126 25.0409 46.5183 25.0195C46.7042 25 46.8839 24.9304 47.0377 24.8246C47.1916 24.7188 47.3206 24.5778 47.4172 24.4178C47.6107 24.0981 47.673 23.7103 47.6396 23.3381C47.573 22.5937 47.153 21.9364 46.801 21.2772C46.6908 21.0708 46.5859 20.8607 46.4529 20.668C46.0451 20.0769 45.3958 19.687 44.7149 19.4587C44.034 19.2303 43.3144 19.1478 42.6018 19.058C42.284 19.0179 41.9625 18.9762 41.6445 19.0145C41.2789 19.0585 40.935 19.2059 40.5783 19.2973C40.409 19.3408 40.2365 19.3713 40.0687 19.4198C39.9009 19.4684 39.7357 19.5365 39.5993 19.6454C39.4 19.8049 39.2746 20.044 39.2203 20.2935C39.166 20.5429 39.1786 20.8024 39.2182 21.0544C39.298 21.5585 39.4863 22.0508 39.4685 22.5608C39.4564 22.911 39.3463 23.2549 39.3598 23.6051C39.3638 23.7096 39.3784 23.81 39.4033 23.9097" fill="url(#paint4_linear_1_279)"/>
</g>
<g filter="url(#filter6_f_1_279)">
<path d="M42.9118 20.8228C42.8288 20.9272 42.7537 21.0407 42.6942 21.1657C43.0677 21.2461 43.4253 21.3999 43.7438 21.6118C44.3608 22.0215 44.8294 22.6206 45.158 23.2871C45.2346 23.2022 45.3046 23.111 45.3648 23.0096C45.0345 22.3155 44.5565 21.6877 43.918 21.2638C43.6113 21.0602 43.2697 20.9063 42.912 20.8234L42.9118 20.8228Z" fill="url(#paint5_linear_1_279)"/>
</g>
<g filter="url(#filter7_f_1_279)">
<path d="M35.7099 21.1631C35.6678 21.1622 35.6269 21.166 35.5846 21.168L35.5027 21.1728C35.7487 21.1951 35.9932 21.2612 36.2153 21.3608C36.5182 21.4966 36.7852 21.6903 37.0204 21.9108C37.4562 22.319 37.7802 22.8229 37.9995 23.3573C37.9459 22.9535 37.8245 22.5616 37.6406 22.1982C37.5546 22.099 37.4654 22.0015 37.3687 21.911C37.1337 21.6907 36.8663 21.4971 36.5636 21.361C36.2991 21.2421 36.0042 21.1681 35.7097 21.1629L35.7099 21.1631Z" fill="url(#paint6_linear_1_279)"/>
</g>
<path d="M34.998 24.8239C34.9332 25.2148 34.9308 25.6249 35.0652 25.9976C35.1522 26.2437 35.3002 26.467 35.478 26.659C35.5947 26.7847 35.7266 26.8989 35.8812 26.9728C36.0357 27.0468 36.2147 27.0783 36.3807 27.0367C36.5339 26.9984 36.6683 26.8992 36.7671 26.7761C36.866 26.6531 36.9321 26.5058 36.9791 26.3549C37.1179 25.9093 37.0958 25.4216 36.9579 24.9757C36.8575 24.6507 36.6912 24.3372 36.431 24.1181C36.3069 24.0136 36.1616 23.9318 36.0037 23.8941C35.8458 23.8563 35.6747 23.8653 35.5271 23.9323C35.3632 24.0068 35.2361 24.1487 35.1529 24.3083C35.0697 24.4679 35.0271 24.646 34.9976 24.8235L34.998 24.8239Z" fill="#020204"/>
<g filter="url(#filter8_f_1_279)">
<path d="M35.8244 24.5411C35.8666 24.6514 36.0079 24.6915 36.0855 24.7804C36.1609 24.8669 36.2399 24.9562 36.2813 25.0633C36.3605 25.2679 36.203 25.5715 36.3684 25.716C36.4202 25.7612 36.5242 25.7623 36.5752 25.716C36.7745 25.5346 36.7301 25.1687 36.6514 24.911C36.58 24.677 36.403 24.4556 36.1849 24.3444C36.084 24.293 35.9325 24.2504 35.8462 24.3235C35.7905 24.3705 35.7985 24.4732 35.8244 24.5411Z" fill="url(#paint7_linear_1_279)"/>
</g>
<path d="M34.269 29.6836C34.2795 29.735 34.2991 29.7846 34.3259 29.8299C34.3722 29.9073 34.4398 29.9701 34.5127 30.0231C34.5856 30.076 34.6646 30.1205 34.7411 30.1684C35.1473 30.4237 35.4782 30.7828 35.7724 31.1618C36.167 31.6704 36.516 32.2348 37.043 32.6047C37.4151 32.8658 37.8604 33.0146 38.3126 33.0601C38.8435 33.1135 39.3813 33.0277 39.8934 32.877C40.3679 32.7372 40.8269 32.541 41.248 32.2817C42.0486 31.788 42.717 31.0645 43.5978 30.74C43.7905 30.6692 43.9911 30.6185 44.1767 30.5311C44.3622 30.4438 44.537 30.3129 44.6258 30.1277C44.7128 29.9498 44.7076 29.7444 44.7354 29.5489C44.765 29.34 44.8319 29.1378 44.8684 28.93C44.905 28.7221 44.9093 28.4997 44.8197 28.3086C44.7452 28.1502 44.6099 28.0252 44.4541 27.9457C44.2984 27.8661 44.1234 27.8301 43.9487 27.8214C43.5995 27.804 43.2545 27.8936 42.9064 27.9255C42.4451 27.9676 41.9807 27.9084 41.5179 27.922C40.9421 27.9394 40.3747 28.0691 39.7993 28.0969C39.1427 28.1288 38.4877 28.0273 37.831 28.0012C37.5466 27.9897 37.2601 27.9925 36.9795 28.0403C36.6989 28.0882 36.4234 28.1838 36.1892 28.3455C35.9612 28.5032 35.7792 28.718 35.5696 28.8997C35.4648 28.9905 35.352 29.0737 35.2274 29.1341C35.1028 29.1945 34.9651 29.2323 34.8264 29.2293C34.7567 29.2276 34.6819 29.2159 34.614 29.2375C34.5715 29.2509 34.5339 29.277 34.5019 29.3082C34.4699 29.3394 34.4436 29.3756 34.4187 29.4126C34.3608 29.4986 34.3103 29.5893 34.2678 29.6838L34.269 29.6836Z" fill="url(#paint8_radial_1_279)"/>
<g filter="url(#filter9_f_1_279)">
<path d="M36.846 30.3912C36.7809 30.6721 36.8222 30.9672 36.9619 31.2194C37.1016 31.4717 37.3298 31.6632 37.6024 31.7571C37.9467 31.8719 38.3347 31.8155 38.6564 31.6478C38.8426 31.5503 39.0132 31.4135 39.1211 31.2328C39.1757 31.1425 39.2115 31.0421 39.2264 30.9376C39.2403 30.8332 39.2308 30.7252 39.1942 30.6269C39.1542 30.519 39.0828 30.4236 38.9947 30.3491C38.9067 30.2746 38.8024 30.2206 38.6931 30.1844C38.4741 30.112 38.2388 30.1106 38.0083 30.1218C37.6592 30.1385 37.3118 30.1824 36.9694 30.2528" fill="#D9B30D"/>
</g>
<g filter="url(#filter10_f_1_279)">
<path d="M35.7162 28.2299L35.0377 28.676C34.9233 28.7572 34.8055 28.8449 34.7452 28.9712C34.7024 29.0609 34.6927 29.1627 34.693 29.2619C34.6934 29.3611 34.6982 29.4611 34.685 29.5578C34.6763 29.625 34.6582 29.6912 34.6551 29.7589C34.6533 29.7928 34.6559 29.8268 34.6648 29.8598C34.6733 29.8928 34.6898 29.9232 34.7127 29.9484C34.7428 29.9803 34.7837 29.9999 34.8258 30.0128C34.868 30.0257 34.9111 30.032 34.9539 30.0424C35.1585 30.0905 35.3364 30.216 35.4925 30.3564L35.952 30.7874C36.3936 31.1467 36.979 31.2956 37.5464 31.3049C38.1138 31.3141 38.6785 31.1952 39.2339 31.0699L40.5263 30.7141C41.1709 30.4765 41.7691 30.1167 42.2874 29.6659C42.5224 29.4616 42.743 29.237 43.0068 29.0715C43.2401 28.9249 43.5017 28.8282 43.7389 28.6881C43.7602 28.6755 43.7812 28.6626 43.8002 28.6468C43.8192 28.631 43.8361 28.6123 43.8472 28.5902C43.8663 28.5519 43.8663 28.5067 43.8542 28.4656C43.842 28.4245 43.8183 28.3883 43.7915 28.3552C43.7619 28.3187 43.7283 28.2853 43.6923 28.2546C43.4444 28.0423 43.108 27.9654 42.7826 27.9396C42.4573 27.9138 42.1282 27.9321 41.8079 27.8783C41.505 27.8261 41.2173 27.7147 40.9251 27.6212C40.6185 27.5221 40.305 27.4459 39.9871 27.3932C39.2395 27.2714 38.4698 27.2947 37.7283 27.4489C37.022 27.596 36.341 27.8614 35.7196 28.2287L35.7162 28.2299Z" fill="#604405"/>
</g>
<path d="M35.642 27.4421C35.3061 27.6684 35.0039 27.9439 34.748 28.2576C34.6018 28.4368 34.4688 28.6318 34.3952 28.8515C34.3372 29.0241 34.3176 29.2069 34.281 29.3853C34.2671 29.4521 34.2514 29.5193 34.2514 29.5872C34.2516 29.6213 34.256 29.6556 34.2664 29.6882C34.2768 29.7207 34.2939 29.7512 34.3176 29.7757C34.3567 29.8164 34.4116 29.8384 34.4669 29.8499C34.5223 29.8614 34.579 29.8629 34.6351 29.8694C34.8883 29.8981 35.1214 30.0211 35.3313 30.1656L35.9499 30.6143C36.4258 30.9155 36.9934 31.0491 37.556 31.0709C38.1185 31.0927 38.6799 31.0072 39.2322 30.8968C39.6708 30.8093 40.1084 30.7054 40.5246 30.5411C41.162 30.2897 41.7367 29.9028 42.2857 29.4929C42.5351 29.3066 42.7811 29.1146 43.0051 28.8985C43.0812 28.825 43.1548 28.7488 43.2362 28.6816C43.3177 28.6144 43.4082 28.5559 43.5088 28.5235C43.662 28.4743 43.8284 28.4884 43.9871 28.5148C44.1067 28.5348 44.2267 28.5618 44.3478 28.5566C44.4084 28.5542 44.4691 28.5437 44.5253 28.5211C44.5816 28.4985 44.6336 28.4637 44.6721 28.4167C44.7223 28.3538 44.7494 28.2757 44.749 28.1953C44.7494 28.1155 44.7246 28.0369 44.6846 27.9681C44.6037 27.8306 44.4639 27.7378 44.3182 27.6731C44.1187 27.5843 43.9029 27.5408 43.6905 27.4893C43.0387 27.3319 42.4051 27.0994 41.8044 26.801C41.5057 26.6527 41.2154 26.4884 40.9216 26.3311C40.6194 26.1692 40.3115 26.0136 39.9834 25.9142C39.2501 25.6919 38.4482 25.7648 37.7246 26.0162C36.9205 26.2954 36.1934 26.793 35.6418 27.4414L35.642 27.4421Z" fill="url(#paint9_linear_1_279)"/>
<g filter="url(#filter11_f_1_279)">
<path d="M40.7942 27.6033C40.7549 27.5535 40.6985 27.5184 40.6375 27.5006C40.5766 27.4829 40.5113 27.4832 40.4489 27.4919C40.3235 27.5133 40.2114 27.5789 40.1067 27.6529C39.809 27.8576 39.5462 28.1103 39.3169 28.3892C39.0132 28.7582 38.7626 29.185 38.6785 29.6555C38.6646 29.7347 38.655 29.8156 38.6649 29.8957C38.6748 29.9757 38.7055 30.0549 38.7624 30.112C38.8122 30.1622 38.88 30.1928 38.95 30.2029C39.02 30.213 39.0921 30.2032 39.1589 30.1806C39.2929 30.1354 39.4043 30.0414 39.5095 29.9474C40.0901 29.4278 40.6153 28.8041 40.8253 28.0536C40.8462 27.9782 40.8643 27.9011 40.8636 27.823C40.8629 27.7448 40.8426 27.6646 40.7942 27.6033Z" fill="#F6DA4A"/>
</g>
<g opacity="0.8" filter="url(#filter12_f_1_279)">
<path d="M39.4034 26.5276C39.4435 26.6567 39.652 26.6355 39.7724 26.6973C39.8781 26.7516 39.9629 26.8708 40.0817 26.8743C40.1949 26.8778 40.3714 26.8351 40.3863 26.7229C40.4058 26.5744 40.189 26.4801 40.0495 26.4256C39.8703 26.3556 39.64 26.3201 39.4717 26.4137C39.433 26.4352 39.3909 26.4855 39.4041 26.5278L39.4034 26.5276Z" fill="url(#paint10_radial_1_279)"/>
</g>
<g opacity="0.8" filter="url(#filter13_f_1_279)">
<path d="M37.4152 26.4527C37.2606 26.4023 37.0049 26.675 37.0883 26.8148C37.1112 26.8531 37.1814 26.9018 37.2286 26.8757C37.2999 26.8365 37.3581 26.6964 37.4352 26.6416C37.4867 26.605 37.4752 26.4724 37.415 26.4529L37.4152 26.4527Z" fill="url(#paint11_radial_1_279)"/>
</g>
<g filter="url(#filter14_f_1_279)">
<path d="M44.2309 29.1059C44.5056 29.1059 44.7591 28.8305 44.7972 28.4907C44.8353 28.151 44.6435 27.8755 44.3688 27.8755C44.0941 27.8755 43.8406 28.151 43.8025 28.4907C43.7644 28.8305 43.9562 29.1059 44.2309 29.1059Z" fill="url(#paint12_linear_1_279)"/>
</g>
<mask id="mask1_1_279" style="mask-type:luminance" maskUnits="userSpaceOnUse" x="34" y="21" width="4" height="8">
<path d="M35.745 22.2565C35.085 23.0903 34.2624 24.2913 34.319 25.259C34.3755 26.2268 34.9908 27.6846 35.7767 28.044C36.5626 28.4034 36.7783 28.0463 37.2266 27.6089C37.675 27.1714 37.8985 26.3299 37.9239 25.4766C37.9493 24.6234 37.3956 23.4018 36.977 22.8222C36.5584 22.2426 36.4049 21.4228 35.7447 22.2565H35.745Z" fill="white"/>
</mask>
<g mask="url(#mask1_1_279)">
<path d="M35.0767 23.5037C35.544 23.2252 36.1132 23.1608 36.6549 23.2119C37.1965 23.2631 37.721 23.4222 38.2458 23.5653C38.6308 23.6701 39.0207 23.7672 39.3815 23.9374C39.7423 24.1077 40.0778 24.358 40.2765 24.7038L40.3705 24.8713C40.4043 24.9256 40.4441 24.9774 40.4951 25.0157C40.5461 25.054 40.6095 25.0791 40.6734 25.0756C40.7054 25.0739 40.7371 25.0652 40.7646 25.0488C40.7921 25.0324 40.8156 25.0088 40.8304 24.9806C40.8474 24.948 40.8527 24.9103 40.8508 24.8734C40.8479 24.8366 40.8411 24.8003 40.8304 24.7651C40.699 24.2859 40.3891 23.8795 40.1533 23.4422L39.7533 22.6423C39.2628 21.7441 38.4576 21.0381 37.5427 20.5802C36.6279 20.1222 35.606 19.902 34.5842 19.8421C33.4006 19.7729 32.2135 19.9135 31.0456 20.1189C30.5391 20.208 30.0256 20.313 29.5772 20.5648C29.3532 20.6907 29.1478 20.8533 28.9875 21.054C28.8272 21.2546 28.7132 21.4952 28.6763 21.7497C28.6408 21.9951 28.678 22.2475 28.7633 22.48C28.8486 22.7126 28.9823 22.9253 29.1388 23.1174C29.4515 23.5018 29.8524 23.8022 30.2218 24.1322C30.5911 24.4622 30.9354 24.8271 31.3467 25.1005C31.5532 25.2371 31.7772 25.3503 32.0156 25.4168C32.2541 25.4833 32.5082 25.5021 32.7509 25.4523C33.0024 25.4008 33.2353 25.2773 33.4391 25.1212C33.6429 24.9651 33.8196 24.7766 33.987 24.582C34.3221 24.1928 34.6351 23.7663 35.0761 23.5035L35.0767 23.5037Z" fill="url(#paint13_radial_1_279)"/>
</g>
<path d="M51.5619 40.2C52.6211 41.0521 53.2931 42.3386 53.5009 43.6818C53.6632 44.7296 53.5577 45.8044 53.3217 46.8378C53.0856 47.8712 52.7208 48.8702 52.3588 49.8665C52.2143 50.2639 52.0695 50.6649 52.012 51.0837C51.9546 51.5025 51.9911 51.946 52.193 52.3174C52.4246 52.7432 52.8567 53.0363 53.3213 53.1743C53.78 53.3106 54.2752 53.3077 54.7396 53.1921C55.2039 53.0765 55.6372 52.8504 56.0151 52.5568C56.9752 51.8113 57.5545 50.6508 57.7786 49.4564C58.0028 48.262 57.8998 47.0283 57.6916 45.8307C57.4074 44.198 56.9289 42.6019 56.32 41.0601C55.8722 39.9261 55.3481 38.8112 54.616 37.8365C53.8994 36.8826 52.996 36.0797 52.294 35.1151C51.8061 34.4449 51.4153 33.6965 50.8309 33.1088C50.5384 32.815 50.1973 32.5637 49.8109 32.4135C49.4244 32.2632 48.9905 32.2192 48.5916 32.3317C48.0659 32.4796 47.6342 32.8939 47.4074 33.3903C47.1806 33.8867 47.1389 34.4561 47.2278 34.9951C47.3427 35.6905 47.6605 36.3359 48.0191 36.9429C48.4241 37.6281 48.8932 38.2878 49.5049 38.7973C50.1431 39.3291 50.9151 39.6798 51.5623 40.2002L51.5619 40.2Z" fill="#020204"/>
<mask id="mask2_1_279" style="mask-type:luminance" maskUnits="userSpaceOnUse" x="47" y="32" width="11" height="22">
<path d="M51.5618 40.2C52.6278 41.0569 53.2943 42.3439 53.5009 43.6818C53.8243 45.7757 53.0852 47.8723 52.3587 49.8666C52.2139 50.2644 52.068 50.6673 52.0104 51.0842C51.9529 51.5011 51.9892 51.9454 52.193 52.3176C52.4239 52.7397 52.8543 53.0356 53.3212 53.1745C53.7802 53.3109 54.2771 53.3068 54.7415 53.1905C55.206 53.0742 55.6382 52.8479 56.0151 52.5569C56.9862 51.8085 57.5671 50.6447 57.7872 49.451C58.0073 48.2573 57.9006 47.0263 57.6897 45.8309C57.4021 44.1999 56.926 42.6038 56.3181 41.0602C55.8719 39.9276 55.3492 38.8131 54.6138 37.8366C53.8968 36.8845 52.9902 36.0786 52.2919 35.1152C51.8077 34.4461 51.4235 33.7001 50.8402 33.1121C50.5485 32.818 50.2063 32.5664 49.8177 32.4159C49.4291 32.2653 48.9912 32.2202 48.5891 32.332C48.3224 32.4061 48.0766 32.5473 47.8736 32.7323C47.6705 32.9173 47.5098 33.1459 47.3964 33.3943C47.1695 33.8909 47.1346 34.4581 47.2254 34.9953C47.3423 35.6886 47.6584 36.3343 48.0168 36.943C48.4197 37.6274 48.8883 38.2868 49.5024 38.7975C50.1404 39.3278 50.9134 39.6806 51.5598 40.2004" fill="white"/>
</mask>
<g mask="url(#mask2_1_279)">
<g filter="url(#filter15_f_1_279)">
<path d="M49.069 38.5583L49.3348 38.7976C49.9846 39.3294 50.3307 39.9264 50.9896 40.4472C52.0679 41.2992 53.1621 42.7698 53.3737 44.1129C53.5388 45.1607 53.3205 45.7299 53.0538 46.9654C52.7871 48.2009 52.0314 49.9502 51.6231 51.1414C51.46 51.6166 51.9527 51.4205 51.8882 51.9212C51.8558 52.1672 51.8537 52.4161 51.882 52.6626L51.8944 52.5195C51.9729 51.8366 52.182 51.1801 52.41 50.5361C52.8485 49.2964 53.3517 48.0818 53.6987 46.8098C54.0457 45.5378 54.007 44.6229 53.8263 43.5298C53.5986 42.1554 52.799 40.8863 51.6667 40.0486C50.8657 39.4563 49.9217 39.0765 49.0695 38.5583H49.069Z" fill="#838384"/>
</g>
</g>
<g opacity="0.25" filter="url(#filter16_f_1_279)">
<path d="M32.5571 37.7881C32.7339 38.0533 32.4472 38.9679 36.5682 38.3825C36.5682 38.3825 35.8445 38.462 35.131 38.6269C34.022 38.9981 33.0555 39.4131 32.3101 39.9628C31.5715 40.5062 31.0309 41.2155 30.3532 41.8247C30.3532 41.8247 31.4506 39.8195 31.724 39.2161C31.9975 38.6126 31.6782 38.6417 31.8948 37.7515C32.1114 36.8614 32.6408 36.0097 32.6408 36.0097C32.6408 36.0097 32.2085 37.2647 32.5571 37.7879V37.7881Z" fill="url(#paint14_radial_1_279)"/>
</g>
<g opacity="0.42" filter="url(#filter17_f_1_279)">
<path d="M45.8089 37.5487C44.969 38.1336 44.4769 38.0645 43.4578 38.1788C42.4387 38.2932 39.6811 38.2519 39.6811 38.2519C39.6811 38.2519 40.0804 38.2445 40.9653 38.4093C41.8502 38.5741 43.655 38.7316 44.6714 39.1186C45.6877 39.5055 46.0583 39.6159 46.676 40.0063C47.555 40.5622 48.2004 41.4331 49.041 42.0423C49.041 42.0423 49.0817 41.2339 48.7423 40.6303C48.4029 40.0267 47.4891 39.0751 47.2224 38.1865C46.9557 37.2979 46.8266 35.5526 46.8266 35.5526C46.8266 35.5526 46.649 36.9634 45.809 37.5484L45.8089 37.5487Z" fill="url(#paint15_radial_1_279)"/>
</g>
<g opacity="0.2" filter="url(#filter18_f_1_279)">
<path d="M37.91 36.2993L37.7887 37.0555C37.7643 37.179 37.7373 37.3026 37.6912 37.4198C37.6451 37.5369 37.5791 37.6481 37.4858 37.7324C37.404 37.8062 37.3041 37.857 37.2038 37.903C36.8125 38.0822 36.3938 38.2011 35.9666 38.2546L36.4775 38.3012C36.5845 38.3129 36.6919 38.3259 36.7964 38.3527C36.9008 38.3795 37.0026 38.4224 37.0895 38.4842C37.1849 38.5538 37.2597 38.6492 37.3158 38.7532C37.4272 38.9607 37.4644 39.1994 37.4851 39.4321C37.5112 39.732 37.5133 40.0343 37.4909 40.3344C37.5111 40.1335 37.5532 39.9348 37.6162 39.743C37.7298 39.3973 37.9128 39.0732 38.1593 38.8055C38.2571 38.6993 38.3646 38.6018 38.483 38.5186C38.8498 38.2628 39.2991 38.1534 39.7425 38.2121C39.2928 38.2304 38.8506 38.0931 38.4903 37.8234C38.3089 37.6868 38.1509 37.5166 38.0412 37.3178C37.8709 37.0063 37.8243 36.642 37.9105 36.2976L37.91 36.2993Z" fill="url(#paint16_radial_1_279)"/>
</g>
<g opacity="0.1" filter="url(#filter19_f_1_279)">
<path d="M36.8361 42.2244C36.6219 43.0393 36.4749 43.8705 36.3964 44.7094C36.2855 45.8951 36.3121 47.0892 36.2484 48.2785C36.1962 49.2877 36.0761 50.3074 36.2512 51.3026C36.3348 51.7773 36.485 52.24 36.6959 52.6734C36.7294 52.508 36.754 52.3408 36.7694 52.1728C36.8437 51.3658 36.7078 50.5563 36.6618 49.7472C36.5814 48.3292 36.7778 46.9101 36.8576 45.4936C36.919 44.4045 36.9118 43.3127 36.8359 42.2245L36.8361 42.2244Z" fill="black"/>
</g>
<g filter="url(#filter20_f_1_279)">
<path d="M46.6161 30.0022C46.2398 30.3451 46.7926 30.86 47.0548 31.465C47.2177 31.841 47.6687 32.371 48.1047 32.2862C48.4328 32.2223 48.6363 31.7501 48.6053 31.4176C48.5454 30.7754 48.0036 30.6251 47.6102 30.4046C47.2986 30.2299 46.8804 29.7616 46.6163 30.0025L46.6161 30.0022Z" fill="#838384"/>
</g>
<g opacity="0.2" filter="url(#filter21_f_1_279)">
<path d="M58.6904 58.0729C58.6076 58.345 58.4841 58.6037 58.3239 58.8407C57.97 59.365 57.4563 59.7597 56.9428 60.1235C56.067 60.7442 55.1549 61.3137 54.3398 62.0208C53.7936 62.4933 53.296 63.0234 52.8343 63.5812C52.4397 64.0582 52.0686 64.5594 51.6189 64.9836C51.1649 65.4118 50.6305 65.7577 50.0546 65.9462C49.3543 66.1754 48.6143 66.1643 47.9397 65.9914C47.467 65.8703 47.006 65.6595 46.7132 65.2783C46.4192 64.8957 46.3239 64.3816 46.29 63.8768C46.2297 62.9839 46.3364 62.0718 46.4335 61.1658C46.5143 60.4128 46.5886 59.6593 46.6194 58.9079C46.673 57.5412 46.5842 56.1863 46.3992 54.857C46.3682 54.6342 46.3345 54.41 46.3532 54.1806C46.372 53.9512 46.4489 53.7127 46.6099 53.5357C46.7586 53.3721 46.9661 53.2753 47.1729 53.2276C47.3797 53.1799 47.5894 53.1754 47.7973 53.1719C48.287 53.1588 48.7796 53.1301 49.262 53.1729C49.5664 53.2001 49.8649 53.2556 50.1688 53.2849C50.676 53.3336 51.2019 53.308 51.7108 53.1588C52.2584 52.9984 52.7807 52.6972 53.3373 52.6146C53.5655 52.5806 53.7949 52.5844 54.0165 52.6156C54.243 52.6473 54.4684 52.7099 54.6425 52.8481C54.7747 52.9533 54.8716 53.0976 54.9474 53.2514C55.06 53.4807 55.1297 53.7336 55.169 53.9929C55.2042 54.2227 55.2166 54.4594 55.2759 54.6817C55.3733 55.0472 55.5941 55.3581 55.8598 55.6112C56.1256 55.8643 56.4363 56.0641 56.7464 56.2611C57.0556 56.4573 57.3663 56.6522 57.6964 56.8139C57.8514 56.8898 58.0106 56.9584 58.1586 57.046C58.3066 57.1335 58.4446 57.2409 58.5429 57.3828C58.6762 57.5751 58.7299 57.8271 58.6898 58.0747" fill="url(#paint17_linear_1_279)"/>
</g>
<mask id="mask3_1_279" style="mask-type:luminance" maskUnits="userSpaceOnUse" x="47" y="50" width="16" height="17">
<path d="M62.1628 58.7246C62.3212 59.0026 61.8896 59.3143 61.6727 59.5493C61.1954 60.0668 60.55 60.4025 59.9502 60.7712C58.9208 61.4039 57.7536 61.7987 56.744 62.4625C56.0681 62.9069 55.4685 63.4585 54.8537 63.9842C54.3277 64.4339 53.8995 65.0069 53.3164 65.3798C52.7333 65.7526 52.0903 66.1028 51.4035 66.1892C50.571 66.2936 49.6852 66.1446 48.9144 65.8125C48.3757 65.5803 47.8422 65.2242 47.5284 64.7281C47.2128 64.2294 47.1698 63.5901 47.1397 63.0007C47.0863 61.9459 47.377 60.9016 47.5188 59.8549C47.6372 58.9843 47.8414 58.1242 47.9122 57.2484C48.041 55.6571 47.7764 54.0443 47.9679 52.4595C48.0297 51.9482 47.9366 51.3002 48.3181 50.9549C48.6728 50.6337 49.2632 50.7599 49.7419 50.7699C50.3241 50.782 50.8963 50.9352 51.4634 51.0687C51.8212 51.1528 52.1593 51.3141 52.5203 51.3838C53.119 51.4992 53.7328 51.5693 54.3422 51.5495C55.001 51.5279 55.6366 51.2369 56.2958 51.2423C56.5659 51.2445 56.8396 51.2913 57.094 51.3815C57.3522 51.4729 57.6141 51.5914 57.8117 51.781C57.9623 51.9254 58.0606 52.1216 58.1389 52.3153C58.2559 52.6046 58.2945 52.9207 58.3421 53.2291C58.3842 53.5031 58.3154 53.7983 58.4141 54.0577C58.7326 54.8932 59.3849 55.5767 60.0198 56.2061C60.3232 56.5429 60.7213 56.8212 61.0933 57.0465C61.4884 57.2856 61.8535 57.4729 62.0441 57.8847C62.159 58.1432 61.9495 58.5392 62.163 58.7248L62.1628 58.7246Z" fill="white"/>
</mask>
<g mask="url(#mask3_1_279)">
<path d="M62.1629 58.7246C62.0462 59.024 61.8797 59.3037 61.6727 59.5493C61.216 60.0915 60.5817 60.4492 59.9502 60.7712C58.8728 61.3202 57.7567 61.802 56.744 62.4625C56.0655 62.905 55.4393 63.4245 54.8537 63.9841C54.3529 64.4628 53.8779 64.974 53.3164 65.3798C52.7497 65.7888 52.0945 66.0854 51.4035 66.1891C50.5628 66.3153 49.6942 66.1521 48.9144 65.8125C48.3682 65.5745 47.8429 65.2341 47.5284 64.7281C47.2126 64.2202 47.1406 63.5988 47.1397 63.0007C47.1383 61.9429 47.3343 60.8946 47.5188 59.8549C47.672 58.9895 47.8182 58.1221 47.9122 57.2484C48.0833 55.6592 48.0821 54.0538 47.9679 52.4594C47.9505 52.1924 47.9265 51.9228 47.9665 51.6581C48.0065 51.3933 48.1153 51.1295 48.3181 50.9549C48.5056 50.7935 48.7567 50.7223 49.0039 50.7087C49.2511 50.6952 49.4972 50.7343 49.7419 50.77C50.3186 50.8543 50.8998 50.9206 51.4634 51.0689C51.819 51.1624 52.1654 51.2882 52.5203 51.3839C53.1126 51.5441 53.7328 51.6206 54.3422 51.5496C54.9984 51.473 55.6354 51.2264 56.2958 51.2424C56.5668 51.249 56.8354 51.3002 57.094 51.3817C57.3577 51.4649 57.618 51.5839 57.8117 51.7811C57.959 51.9308 58.0616 52.1197 58.1389 52.3155C58.2538 52.6069 58.3156 52.9172 58.3421 53.2293C58.3656 53.5057 58.3617 53.7853 58.4141 54.0578C58.5003 54.506 58.7356 54.9147 59.0282 55.2649C59.3208 55.6152 59.6722 55.9125 60.0197 56.2063C60.3678 56.4987 60.7176 56.7902 61.0931 57.0466C61.2692 57.1671 61.451 57.2799 61.6182 57.4122C61.7855 57.5444 61.9394 57.6988 62.0438 57.8847C62.1857 58.1371 62.229 58.4431 62.1627 58.7247L62.1629 58.7246Z" fill="url(#paint18_linear_1_279)"/>
</g>
<mask id="mask4_1_279" style="mask-type:luminance" maskUnits="userSpaceOnUse" x="47" y="50" width="16" height="17">
<path d="M62.1628 58.7246C62.3212 59.0026 61.8896 59.3143 61.6727 59.5493C61.1954 60.0668 60.55 60.4025 59.9502 60.7712C58.9208 61.4039 57.7536 61.7987 56.744 62.4625C56.0681 62.9069 55.4685 63.4585 54.8537 63.9842C54.3277 64.4339 53.8995 65.0069 53.3164 65.3798C52.7333 65.7526 52.0903 66.1028 51.4035 66.1892C50.571 66.2936 49.6852 66.1446 48.9144 65.8125C48.3757 65.5803 47.8422 65.2242 47.5284 64.7281C47.2128 64.2294 47.1698 63.5901 47.1397 63.0007C47.0863 61.9459 47.377 60.9016 47.5188 59.8549C47.6372 58.9843 47.8414 58.1242 47.9122 57.2484C48.041 55.6571 47.7764 54.0443 47.9679 52.4595C48.0297 51.9482 47.9366 51.3002 48.3181 50.9549C48.6728 50.6337 49.2632 50.7599 49.7419 50.7699C50.3241 50.782 50.8963 50.9352 51.4634 51.0687C51.8212 51.1528 52.1593 51.3141 52.5203 51.3838C53.119 51.4992 53.7328 51.5693 54.3422 51.5495C55.001 51.5279 55.6366 51.2369 56.2958 51.2423C56.5659 51.2445 56.8396 51.2913 57.094 51.3815C57.3522 51.4729 57.6141 51.5914 57.8117 51.781C57.9623 51.9254 58.0606 52.1216 58.1389 52.3153C58.2559 52.6046 58.2945 52.9207 58.3421 53.2291C58.3842 53.5031 58.3154 53.7983 58.4141 54.0577C58.7326 54.8932 59.3849 55.5767 60.0198 56.2061C60.3232 56.5429 60.7213 56.8212 61.0933 57.0465C61.4884 57.2856 61.8535 57.4729 62.0441 57.8847C62.159 58.1432 61.9495 58.5392 62.163 58.7248L62.1628 58.7246Z" fill="white"/>
</mask>
<g mask="url(#mask4_1_279)">
<g filter="url(#filter22_f_1_279)">
<path d="M61.6205 58.1759C61.5127 58.4458 61.3616 58.6963 61.173 58.9174C60.7549 59.4072 60.1756 59.7275 59.5998 60.0157C58.6159 60.5083 57.5976 60.9414 56.6721 61.5362C56.0535 61.9337 55.4815 62.4005 54.9458 62.9043C54.488 63.3347 54.0537 63.7948 53.5418 64.1589C53.0231 64.5279 52.4247 64.7937 51.7948 64.8865C51.0272 64.9996 50.2352 64.8529 49.5219 64.5478C49.0246 64.3351 48.5442 64.0308 48.2561 63.573C47.9696 63.1175 47.9028 62.5582 47.9011 62.02C47.8988 61.0688 48.0782 60.128 48.2474 59.1919C48.3879 58.4139 48.5216 57.6344 48.6067 56.8485C48.7616 55.4199 48.7543 53.9769 48.6575 52.5432C48.6413 52.303 48.6227 52.0603 48.6596 51.8226C48.6965 51.5848 48.795 51.3479 48.9774 51.1907C49.1485 51.0433 49.3783 50.9787 49.6041 50.9669C49.8298 50.955 50.0544 50.9916 50.2777 51.0243C50.8039 51.1018 51.3346 51.1601 51.8494 51.2929C52.1741 51.3768 52.4907 51.4899 52.8146 51.5763C53.3559 51.7207 53.922 51.7895 54.4786 51.7253C55.0774 51.6562 55.66 51.4346 56.2627 51.449C56.5099 51.4551 56.7553 51.5012 56.992 51.5743C57.2326 51.6485 57.4707 51.7543 57.6474 51.9334C57.7807 52.0683 57.8728 52.2387 57.9461 52.4138C58.055 52.6744 58.1259 52.9529 58.1316 53.2354C58.1377 53.5303 58.0731 53.8263 58.1132 54.1184C58.1455 54.3557 58.246 54.5793 58.3743 54.7816C58.5025 54.9838 58.6587 55.1663 58.8134 55.349C59.1123 55.7024 59.4122 56.0621 59.7869 56.3333C60.2137 56.6421 60.7202 56.8224 61.1611 57.1109C61.2926 57.1968 61.4198 57.294 61.5124 57.4207C61.5897 57.5287 61.6399 57.6536 61.6588 57.7851C61.6777 57.9165 61.6647 58.0506 61.621 58.1759H61.6205Z" fill="#CD8907"/>
</g>
</g>
<mask id="mask5_1_279" style="mask-type:luminance" maskUnits="userSpaceOnUse" x="47" y="50" width="16" height="17">
<path d="M62.1629 58.7246C62.321 59.0025 61.8895 59.3144 61.6727 59.5493C61.1952 60.0669 60.5498 60.4025 59.9498 60.7713C58.9204 61.404 57.7534 61.8008 56.7436 62.4626C56.0677 62.907 55.4683 63.4587 54.8532 63.9842C54.3272 64.434 53.899 65.0073 53.3157 65.3797C52.7324 65.7521 52.0896 66.1025 51.4027 66.1892C50.5701 66.2939 49.6844 66.1446 48.9158 65.8126C48.3771 65.5803 47.8415 65.224 47.5298 64.7283C47.2142 64.2296 47.1711 63.5904 47.1412 63.0009C47.0875 61.9461 47.3784 60.9017 47.5204 59.8552C47.6386 58.9843 47.8427 58.1242 47.9137 57.2486C48.0425 55.6575 47.7781 54.0445 47.9695 52.4596C48.0291 51.9484 47.938 51.3004 48.3196 50.9551C48.6743 50.634 49.2646 50.7621 49.7433 50.7702C50.3256 50.7827 50.8977 50.9358 51.4645 51.069C51.8226 51.1531 52.1604 51.3146 52.5215 51.3843C53.1184 51.4997 53.7339 51.5698 54.3435 51.5499C55.0024 51.5284 55.6378 51.2372 56.2971 51.2427C56.5673 51.2449 56.8408 51.2921 57.0955 51.3822C57.3535 51.4735 57.6155 51.5924 57.8131 51.7816C57.9637 51.9261 58.0618 52.1222 58.1402 52.3178C58.2571 52.6074 58.2957 52.9231 58.3431 53.2315C58.3853 53.5055 58.3164 53.801 58.4153 54.0599C58.7336 54.8954 59.3862 55.579 60.0208 56.2083C60.3242 56.5451 60.7223 56.8235 61.0943 57.0487C61.4892 57.2879 61.8543 57.4751 62.0453 57.887C62.1601 58.1454 61.9506 58.5416 62.1642 58.7271L62.1629 58.7246Z" fill="white"/>
</mask>
<g mask="url(#mask5_1_279)">
<g filter="url(#filter23_f_1_279)">
<path d="M61.5593 57.872C61.4395 58.1433 61.2843 58.3962 61.0997 58.6205C60.6714 59.1413 60.093 59.5 59.4836 59.7299C58.4806 60.1089 57.3856 60.1598 56.401 60.5913C55.801 60.8543 55.261 61.2505 54.7139 61.6252C54.2719 61.9276 53.8203 62.2193 53.3348 62.4308C52.7867 62.67 52.2036 62.8041 51.6187 62.8984C51.2467 62.9585 50.8701 63.0023 50.4943 62.9814C50.1185 62.9606 49.7415 62.8727 49.41 62.6812C49.1586 62.5357 48.9325 62.3266 48.7981 62.0553C48.6488 61.7537 48.623 61.3998 48.6266 61.0579C48.6357 60.1471 48.8307 59.2462 48.8247 58.3355C48.8195 57.5427 48.6626 56.76 48.6174 55.9687C48.5305 54.4469 48.8571 52.8987 48.5697 51.4058C48.5239 51.1668 48.4618 50.9281 48.4648 50.684C48.4664 50.5617 48.4847 50.4395 48.5275 50.3264C48.5703 50.2134 48.6395 50.1109 48.7314 50.0394C48.809 49.9794 48.9005 49.9429 48.9946 49.9264C49.0887 49.9099 49.185 49.9131 49.2795 49.9279C49.4681 49.9573 49.648 50.0313 49.8316 50.086C50.3572 50.2426 50.9125 50.2391 51.4464 50.3573C51.7817 50.4315 52.1063 50.5525 52.438 50.6435C52.995 50.7936 53.5759 50.8607 54.1473 50.7936C54.7621 50.7218 55.3623 50.4987 55.9802 50.5148C56.2335 50.5212 56.4849 50.5684 56.7292 50.6413C56.9735 50.7142 57.2177 50.8172 57.4025 51.0038C57.5358 51.1385 57.6313 51.3105 57.7093 51.4886C57.8226 51.7485 57.9016 52.0312 57.8998 52.3182C57.8988 52.4677 57.876 52.616 57.8626 52.7644C57.8493 52.9128 57.8451 53.0655 57.8805 53.2099C57.916 53.3543 57.9908 53.486 58.0761 53.6046C58.1615 53.7232 58.2581 53.8319 58.3463 53.9482C58.5934 54.2736 58.77 54.6528 58.9624 55.0185C59.1548 55.3842 59.3706 55.7463 59.6746 56.0095C60.0884 56.3681 60.6252 56.5114 61.0864 56.7945C61.2216 56.8776 61.3523 56.9747 61.4472 57.1077C61.5234 57.2147 61.5735 57.3406 61.5929 57.4738C61.6124 57.607 61.6007 57.7434 61.5589 57.8705L61.5593 57.872Z" fill="#F5C021"/>
</g>
</g>
<g filter="url(#filter24_f_1_279)">
<path d="M48.465 51.5488C49.0353 51.3944 49.5209 51.8268 49.9344 52.1531C50.2016 52.3811 50.5877 52.3237 50.9156 52.3345C51.4587 52.3148 51.9991 52.4255 52.5426 52.3582C53.6122 52.2677 54.6605 52.0048 55.7352 51.9578C56.2487 51.9255 56.8248 51.8957 57.2683 52.1954C57.4481 52.32 57.7116 52.8464 57.889 52.6489C57.8159 52.0957 57.4056 51.5599 56.8551 51.4127C56.4243 51.3448 55.9848 51.4631 55.5514 51.4249C54.2593 51.394 52.9765 51.1542 51.6813 51.223C50.7804 51.2308 49.8803 51.189 48.9808 51.1538C48.6274 51.0816 48.5026 51.3958 48.3106 51.5159" fill="url(#paint19_linear_1_279)"/>
</g>
<g opacity="0.75" filter="url(#filter25_f_1_279)">
<path d="M51.0215 41.0308C51.2282 40.9988 52.5039 42.0835 52.3296 42.4881C52.1552 42.8928 51.8275 42.6482 51.5931 42.6509C51.3586 42.6536 50.7175 42.9447 50.61 42.761C50.5026 42.5774 50.8936 42.1483 51.0983 41.7899C51.2631 41.5012 50.8147 41.0648 51.0215 41.0328L51.0215 41.0308Z" fill="#7C7C7C"/>
</g>
<g opacity="0.25" filter="url(#filter26_f_1_279)">
<path d="M33.0196 34.2042C32.999 33.9543 32.6421 33.9169 32.483 34.0415C32.3486 34.1469 32.2225 34.5064 32.3385 34.6471C32.5269 34.8751 33.0477 34.547 33.0196 34.2046L33.0196 34.2042Z" fill="#7C7C7C"/>
</g>
<g opacity="0.35" filter="url(#filter27_f_1_279)">
<path d="M56.154 52.4173C56.056 52.2255 55.8777 52.0821 55.6788 51.999C55.4798 51.916 55.2616 51.8894 55.0463 51.8911C54.6155 51.8946 54.1873 52.0067 53.7582 51.9694C53.3956 51.9381 53.0515 51.8018 52.6964 51.7158C52.3314 51.6288 51.9442 51.594 51.5816 51.691C51.1941 51.7964 50.8523 52.0554 50.6382 52.395C50.4495 52.6944 50.3597 53.0483 50.3318 53.4011C50.304 53.7539 50.3341 54.1088 50.3698 54.4611C50.3955 54.7159 50.4244 54.9711 50.4861 55.22C50.5477 55.4689 50.6434 55.7114 50.7934 55.9189C51.0093 56.2176 51.3301 56.4306 51.6759 56.5585C52.2473 56.7673 52.8758 56.7564 53.4395 56.5277C54.4247 56.1001 55.2584 55.333 55.7667 54.3868C55.9486 54.0481 56.0899 53.6871 56.1813 53.3137C56.2175 53.1652 56.2461 53.014 56.2475 52.8612C56.2488 52.7083 56.2219 52.5531 56.1524 52.4173H56.154Z" fill="url(#paint20_radial_1_279)"/>
</g>
<g opacity="0.35" filter="url(#filter28_f_1_279)">
<path d="M56.154 52.2161C56.056 52.0774 55.8777 51.9737 55.6788 51.9137C55.4798 51.8537 55.2616 51.8344 55.0463 51.8357C54.6155 51.8382 54.1873 51.9192 53.7582 51.8923C53.3956 51.8696 53.0515 51.7711 52.6964 51.709C52.3314 51.646 51.9442 51.6209 51.5816 51.691C51.1941 51.7672 50.8523 51.9545 50.6382 52.2C50.4495 52.4164 50.3597 52.6722 50.3318 52.9273C50.304 53.1823 50.3341 53.4389 50.3698 53.6936C50.3955 53.8778 50.4244 54.0623 50.4861 54.2422C50.5477 54.4222 50.6434 54.5974 50.7934 54.7474C51.0093 54.9634 51.3301 55.1174 51.6759 55.2099C52.2473 55.3608 52.8758 55.3529 53.4395 55.1876C54.4247 54.8784 55.2584 54.3239 55.7667 53.6399C55.9486 53.395 56.0899 53.134 56.1813 52.8641C56.2175 52.7568 56.2461 52.6474 56.2475 52.5369C56.2488 52.4265 56.2219 52.3142 56.1524 52.2161H56.154Z" fill="url(#paint21_radial_1_279)"/>
</g>
<path d="M56.9727 50.6224C56.9023 50.4302 56.7781 50.26 56.6264 50.1228C56.4746 49.9857 56.2957 49.8805 56.1071 49.8005C55.7303 49.6403 55.3204 49.5812 54.918 49.5053L53.7817 49.283C53.3866 49.2158 52.9779 49.173 52.5868 49.2612C52.2446 49.3384 51.9281 49.5154 51.6691 49.7521C51.4101 49.9888 51.2079 50.284 51.0625 50.605C50.8063 51.1672 50.7257 51.7999 50.7746 52.4157C50.8112 52.874 50.9269 53.3463 51.2289 53.6933C51.4726 53.9736 51.8185 54.1485 52.1748 54.2538C52.7883 54.4354 53.4571 54.4258 54.0651 54.2268C55.0762 53.8851 55.9506 53.2273 56.5594 52.3506C56.7578 52.0634 56.927 51.7505 57.0037 51.4102C57.0622 51.1491 57.0643 50.8741 56.9727 50.6243V50.6224Z" fill="#020204"/>
<mask id="mask6_1_279" style="mask-type:luminance" maskUnits="userSpaceOnUse" x="50" y="49" width="8" height="6">
<path d="M56.9727 50.6224C56.9023 50.4302 56.7781 50.26 56.6264 50.1228C56.4746 49.9857 56.2957 49.8805 56.1071 49.8005C55.7303 49.6403 55.3204 49.5812 54.918 49.5053L53.7817 49.283C53.3866 49.2158 52.9779 49.173 52.5868 49.2612C52.2446 49.3384 51.9281 49.5154 51.6691 49.7521C51.4101 49.9888 51.2079 50.284 51.0625 50.605C50.8063 51.1672 50.7257 51.7999 50.7746 52.4157C50.8112 52.874 50.9269 53.3463 51.2289 53.6933C51.4726 53.9736 51.8185 54.1485 52.1748 54.2538C52.7883 54.4354 53.4571 54.4258 54.0651 54.2268C55.0762 53.8851 55.9506 53.2273 56.5594 52.3506C56.7578 52.0634 56.927 51.7505 57.0037 51.4102C57.0622 51.1491 57.0643 50.8741 56.9727 50.6243" fill="white"/>
</mask>
<g mask="url(#mask6_1_279)">
<g filter="url(#filter29_f_1_279)">
<path d="M52.8009 49.0781C52.706 49.0833 52.6116 49.0942 52.518 49.1109C51.914 49.2183 51.361 49.6 51.0495 50.1281C50.8296 50.5045 50.7291 50.9389 50.7612 51.3736C50.7739 51.0704 50.8535 50.7737 51.0006 50.5086C51.2502 50.0591 51.7024 49.7201 52.2082 49.6275C52.5215 49.5704 52.8404 49.6048 53.1547 49.6438C53.4564 49.6814 53.7605 49.7209 54.0578 49.7853C54.5173 49.8849 54.9723 50.0377 55.358 50.3075C55.4478 50.3702 55.532 50.4415 55.6027 50.5251C55.6734 50.6086 55.7284 50.7058 55.7496 50.8133C55.7806 50.9707 55.7357 51.1359 55.6574 51.2756C55.579 51.4154 55.472 51.538 55.358 51.6509C55.2657 51.7425 55.1674 51.8309 55.0697 51.9172C55.5153 51.8309 55.9665 51.7087 56.3369 51.4495C56.4936 51.3399 56.6354 51.2085 56.7285 51.0415C56.8217 50.8746 56.8612 50.6725 56.8156 50.4868C56.7848 50.3615 56.7164 50.2463 56.6307 50.1496C56.5451 50.053 56.4427 49.9735 56.3371 49.8995C55.8706 49.5728 55.3249 49.3634 54.7597 49.2955C54.3977 49.2289 54.0322 49.1726 53.6666 49.1267C53.3807 49.0908 53.0888 49.0618 52.8016 49.078L52.8009 49.0781Z" fill="url(#paint22_radial_1_279)"/>
</g>
</g>
<mask id="mask7_1_279" style="mask-type:luminance" maskUnits="userSpaceOnUse" x="50" y="49" width="8" height="6">
<path d="M56.9727 50.6224C56.9023 50.4302 56.7781 50.26 56.6264 50.1228C56.4746 49.9857 56.2957 49.8805 56.1071 49.8005C55.7303 49.6403 55.3204 49.5812 54.918 49.5053L53.7817 49.283C53.3866 49.2158 52.9779 49.173 52.5868 49.2612C52.2446 49.3384 51.9281 49.5154 51.6691 49.7521C51.4101 49.9888 51.2079 50.284 51.0625 50.605C50.8063 51.1672 50.7257 51.7999 50.7746 52.4157C50.8112 52.874 50.9269 53.3463 51.2289 53.6933C51.4726 53.9736 51.8185 54.1485 52.1748 54.2538C52.7883 54.4354 53.4571 54.4258 54.0651 54.2268C55.0762 53.8851 55.9506 53.2273 56.5594 52.3506C56.7578 52.0634 56.927 51.7505 57.0037 51.4102C57.0622 51.1491 57.0643 50.8741 56.9727 50.6243" fill="white"/>
</mask>
<g mask="url(#mask7_1_279)">
<g filter="url(#filter30_f_1_279)">
<path d="M52.8009 49.0781C52.706 49.0833 52.6116 49.0942 52.518 49.1109C51.914 49.2183 51.361 49.6 51.0495 50.1281C50.8296 50.5045 50.7291 50.9389 50.7612 51.3736C50.7739 51.0704 50.8535 50.7737 51.0006 50.5086C51.2502 50.0591 51.7024 49.7201 52.2082 49.6275C52.5215 49.5704 52.8404 49.6048 53.1547 49.6438C53.4564 49.6814 53.7605 49.7209 54.0578 49.7853C54.5173 49.8849 54.9723 50.0377 55.358 50.3075C55.4478 50.3702 55.532 50.4415 55.6027 50.5251C55.6734 50.6086 55.7284 50.7058 55.7496 50.8133C55.7806 50.9707 55.7357 51.1359 55.6574 51.2756C55.579 51.4154 55.472 51.538 55.358 51.6509C55.2657 51.7425 55.1674 51.8309 55.0697 51.9172C55.5153 51.8309 55.9665 51.7087 56.3369 51.4495C56.4936 51.3399 56.6354 51.2085 56.7285 51.0415C56.8217 50.8746 56.8612 50.6725 56.8156 50.4868C56.7848 50.3615 56.7164 50.2463 56.6307 50.1496C56.5451 50.053 56.4427 49.9735 56.3371 49.8995C55.8706 49.5728 55.3249 49.3634 54.7597 49.2955C54.3977 49.2289 54.0322 49.1726 53.6666 49.1267C53.3807 49.0908 53.0888 49.0618 52.8016 49.078L52.8009 49.0781Z" fill="url(#paint23_linear_1_279)"/>
</g>
</g>
<path d="M33.0064 33.0592L30.0609 36.7468C29.446 37.5092 28.8164 38.2775 28.4161 39.1715C28.0721 39.9396 27.9095 40.7741 27.6737 41.5822C27.406 42.4999 27.0426 43.3872 26.6346 44.2516C26.2577 45.0497 25.8426 45.8291 25.4266 46.6077C25.1241 47.1741 24.8165 47.753 24.7115 48.3866C24.6287 48.8872 24.6767 49.4038 24.8045 49.895C24.9322 50.3862 25.1352 50.8541 25.3681 51.3059C26.3545 53.2337 27.8345 54.8954 29.5877 56.1666C30.3831 56.7434 31.2355 57.2423 32.1293 57.6506C32.6135 57.8717 33.1239 58.069 33.6561 58.0783C33.9225 58.0828 34.1912 58.0391 34.4349 57.9321C34.6786 57.825 34.8962 57.6529 35.0411 57.4296C35.2192 57.1549 35.2796 56.8137 35.2439 56.4884C35.2082 56.1631 35.0812 55.8526 34.9109 55.5729C34.4932 54.89 33.8379 54.3962 33.2059 53.9066C31.8412 52.8493 30.521 51.7343 29.2578 50.5577C28.901 50.2252 28.5445 49.8826 28.2953 49.4639C28.0526 49.0559 27.9214 48.5911 27.8326 48.1248C27.5889 46.8455 27.6516 45.4995 28.0867 44.2723C28.257 43.7923 28.4819 43.3338 28.6991 42.8729C29.0751 42.074 29.4314 41.2601 29.9262 40.5288C30.542 39.6185 31.3652 38.8474 31.867 37.8695C32.2906 37.0445 32.4623 36.1164 32.6262 35.2033L33.0064 33.0592Z" fill="#020204"/>
<mask id="mask8_1_279" style="mask-type:luminance" maskUnits="userSpaceOnUse" x="24" y="33" width="12" height="25">
<path d="M32.9301 33.0917C32.9301 33.0917 32.0414 34.1961 31.5556 34.8753C31.0698 35.5545 30.557 36.0328 30.0609 36.7465C29.5649 37.4601 28.779 38.3882 28.4161 39.1711C28.0531 39.9541 28.0122 40.7439 27.6737 41.5819C27.3351 42.4198 27.0297 43.4342 26.6346 44.2513C26.2394 45.0683 25.6999 45.937 25.4266 46.6073C25.1533 47.2776 24.7634 47.6037 24.7115 48.3862C24.6597 49.1688 24.6111 49.8339 25.3681 51.3056C26.1251 52.7773 28.3682 55.1361 29.5877 56.1662C30.8071 57.1963 31.2221 57.4238 32.1293 57.6502C33.0365 57.8767 34.5411 58.1721 35.0413 57.4292C35.5416 56.6863 35.4368 56.3909 34.9108 55.5727C34.3848 54.7544 34.0709 54.6498 33.2057 53.9064C32.3404 53.163 29.9617 51.3176 29.2576 50.5575C28.5536 49.7973 28.0206 49.9636 28.2951 49.4637C28.5696 48.9638 27.9109 48.7657 27.8324 48.1246C27.6995 47.0376 27.9968 44.8697 28.0866 44.2721C28.1764 43.6746 28.2996 43.7632 28.6989 42.8727C29.0982 41.9822 29.4167 41.3716 29.926 40.5286C30.4353 39.6857 31.4273 38.7658 31.8668 37.8693C32.3063 36.9729 32.4767 36.0034 32.6261 35.2031C32.7754 34.4028 32.9301 33.0917 32.9301 33.0917Z" fill="white"/>
</mask>
<g mask="url(#mask8_1_279)">
<g opacity="0.95" filter="url(#filter31_f_1_279)">
<path d="M30.1922 39.9946C29.7876 40.3674 29.4386 40.7964 29.156 41.2684C28.6916 42.0447 28.418 42.9164 28.0806 43.7557C27.8293 44.3806 27.5367 45.0077 27.5015 45.6801C27.4836 46.0255 27.5346 46.3704 27.5463 46.7161C27.5579 47.0618 27.5257 47.4211 27.3548 47.7229C27.2133 47.9753 26.9778 48.1737 26.705 48.2701C27.0757 48.395 27.3996 48.6296 27.6337 48.9429C27.8277 49.204 27.9518 49.5093 28.1203 49.7871C28.2573 50.013 28.4255 50.2222 28.6326 50.3867C28.8397 50.5512 29.0869 50.6687 29.3492 50.7023C29.5297 50.7242 29.7127 50.7069 29.8859 50.6515C30.0591 50.5962 30.2183 50.5041 30.3527 50.3817C30.0176 47.2423 30.3245 44.036 31.2491 41.0172C31.3074 40.8266 31.3686 40.6346 31.3831 40.4359C31.3975 40.2371 31.3605 40.0272 31.2397 39.8688C31.1753 39.7844 31.0886 39.7173 30.9908 39.6759C30.8929 39.6345 30.7843 39.6193 30.6792 39.6321C30.5741 39.6448 30.4721 39.6853 30.3868 39.7487C30.3015 39.812 30.2332 39.8978 30.1906 39.995L30.1922 39.9946Z" fill="#7C7C7C"/>
</g>
</g>
<mask id="mask9_1_279" style="mask-type:luminance" maskUnits="userSpaceOnUse" x="18" y="49" width="18" height="18">
<path d="M25.8837 49.8725C26.1622 49.7571 26.4751 49.7361 26.7714 49.7907C27.0676 49.8454 27.3475 49.9735 27.5969 50.1427C28.0955 50.4814 28.4652 50.9743 28.8194 51.4621C29.6326 52.582 30.4155 53.7252 31.1248 54.9137C31.7002 55.8776 32.229 56.8731 32.8939 57.7775C33.3281 58.3679 33.8177 58.9158 34.2539 59.5045C34.6901 60.0932 35.0768 60.7327 35.2704 61.4395C35.5217 62.3581 35.4244 63.3704 34.9872 64.2163C34.6796 64.8116 34.2081 65.322 33.6344 65.668C33.0607 66.014 32.3864 66.1926 31.7169 66.1675C30.6527 66.1275 29.6804 65.5958 28.6911 65.2015C26.6755 64.3987 24.4858 64.1467 22.408 63.5215C21.7692 63.3293 21.1416 63.102 20.4986 62.9251C20.2131 62.8468 19.9225 62.7775 19.6527 62.6554C19.3829 62.5332 19.1305 62.3507 18.9804 62.0954C18.8645 61.898 18.8154 61.6655 18.8186 61.4364C18.8217 61.2073 18.8753 60.9812 18.9533 60.7659C19.1092 60.3353 19.3611 59.9454 19.5312 59.5202C19.8088 58.8257 19.8587 58.0602 19.8213 57.3131C19.7839 56.566 19.6629 55.8258 19.6116 55.0799C19.589 54.7468 19.5802 54.4092 19.6438 54.0815C19.7073 53.7537 19.8485 53.4331 20.089 53.2016C20.3108 52.988 20.6051 52.8613 20.9064 52.7983C21.2077 52.7353 21.5182 52.7327 21.8261 52.7395C22.1341 52.7463 22.4423 52.7628 22.7494 52.7377C23.0564 52.7127 23.3643 52.6438 23.6318 52.4909C23.886 52.3458 24.0938 52.1298 24.2661 51.8932C24.4384 51.6567 24.5777 51.3978 24.7204 51.1423C24.8632 50.8868 25.0108 50.632 25.1977 50.4067C25.3846 50.1815 25.6137 49.985 25.884 49.8729" fill="white"/>
</mask>
<g mask="url(#mask9_1_279)">
<path d="M25.8837 49.8725C26.1622 49.7571 26.4751 49.7361 26.7714 49.7907C27.0676 49.8454 27.3475 49.9735 27.5969 50.1427C28.0955 50.4814 28.4652 50.9743 28.8194 51.4621C29.6326 52.582 30.4155 53.7252 31.1248 54.9137C31.7002 55.8776 32.229 56.8731 32.8939 57.7775C33.3281 58.3679 33.8177 58.9158 34.2539 59.5045C34.6901 60.0932 35.0768 60.7327 35.2704 61.4395C35.5217 62.3581 35.4244 63.3704 34.9872 64.2163C34.6796 64.8116 34.2081 65.322 33.6344 65.668C33.0607 66.014 32.3864 66.1926 31.7169 66.1675C30.6527 66.1275 29.6804 65.5958 28.6911 65.2015C26.6755 64.3987 24.4858 64.1467 22.408 63.5215C21.7692 63.3293 21.1416 63.102 20.4986 62.9251C20.2131 62.8468 19.9225 62.7775 19.6527 62.6554C19.3829 62.5332 19.1305 62.3507 18.9804 62.0954C18.8645 61.898 18.8154 61.6655 18.8186 61.4364C18.8217 61.2073 18.8753 60.9812 18.9533 60.7659C19.1092 60.3353 19.3611 59.9454 19.5312 59.5202C19.8088 58.8257 19.8587 58.0602 19.8213 57.3131C19.7839 56.566 19.6629 55.8258 19.6116 55.0799C19.589 54.7468 19.5802 54.4092 19.6438 54.0815C19.7073 53.7537 19.8485 53.4331 20.089 53.2016C20.3108 52.988 20.6051 52.8613 20.9064 52.7983C21.2077 52.7353 21.5182 52.7327 21.8261 52.7395C22.1341 52.7463 22.4423 52.7628 22.7494 52.7377C23.0564 52.7127 23.3643 52.6438 23.6318 52.4909C23.886 52.3458 24.0938 52.1298 24.2661 51.8932C24.4384 51.6567 24.5777 51.3978 24.7204 51.1423C24.8632 50.8868 25.0108 50.632 25.1977 50.4067C25.3846 50.1815 25.6137 49.985 25.884 49.8729L25.8837 49.8725Z" fill="url(#paint24_linear_1_279)"/>
<g filter="url(#filter32_f_1_279)">
<path d="M26.3228 50.3529C26.5761 50.2509 26.8614 50.2398 27.1275 50.3C27.3936 50.3602 27.641 50.4915 27.8565 50.6563C28.2878 50.9895 28.5875 51.4594 28.8754 51.9217C29.5664 53.0415 30.2418 54.173 30.8799 55.3276C31.3633 56.1966 31.8242 57.0844 32.4181 57.8828C32.8121 58.4123 33.2617 58.8975 33.664 59.4209C34.0662 59.9443 34.4246 60.5144 34.6027 61.1499C34.8318 61.969 34.739 62.8731 34.3425 63.6273C34.0554 64.1711 33.6222 64.624 33.0917 64.935C32.5598 65.2441 31.9505 65.3944 31.3359 65.3681C30.3615 65.3232 29.4717 64.8365 28.5545 64.5065C26.7959 63.8684 24.89 63.7827 23.0862 63.2846C22.4395 63.1091 21.8091 62.875 21.1593 62.7112C20.8718 62.6386 20.5792 62.5794 20.3061 62.464C20.033 62.3486 19.7757 62.1699 19.6276 61.9131C19.5174 61.7222 19.4734 61.4975 19.4802 61.2771C19.487 61.0568 19.5428 60.842 19.6194 60.6341C19.7764 60.2221 20.0232 59.8509 20.1816 59.4375C20.4218 58.8154 20.4514 58.1313 20.4069 57.4661C20.3623 56.8008 20.2467 56.1415 20.2062 55.4759C20.1881 55.1782 20.1853 54.8771 20.2455 54.5854C20.3057 54.2936 20.4328 54.011 20.645 53.8C20.8747 53.572 21.1915 53.4477 21.5113 53.399C21.831 53.3502 22.1563 53.3715 22.4782 53.4002C22.8 53.4289 23.1231 53.4651 23.446 53.4458C23.7688 53.4265 24.0962 53.3478 24.3633 53.1661C24.6064 53.0016 24.789 52.7616 24.9279 52.505C25.0668 52.2484 25.166 51.9733 25.2718 51.7014C25.3777 51.4295 25.4924 51.158 25.6586 50.9181C25.8248 50.6782 26.0478 50.4647 26.3211 50.355" fill="#D99A03"/>
</g>
<g filter="url(#filter33_f_1_279)">
<path d="M26.0884 49.7203C26.3338 49.5985 26.6227 49.5736 26.8918 49.6285C27.1609 49.6833 27.4102 49.8148 27.6222 49.9867C28.046 50.3286 28.3149 50.8201 28.5656 51.3004C29.1409 52.4038 29.6766 53.5311 30.365 54.57C30.8646 55.3222 31.4407 56.0259 31.9458 56.776C32.6309 57.793 33.1879 58.912 33.4177 60.1104C33.5723 60.9165 33.5674 61.7856 33.1789 62.5134C32.923 62.9913 32.5088 63.3852 32.0191 63.6288C31.5295 63.8723 30.9673 63.9735 30.4195 63.9252C29.5572 63.8491 28.7739 63.4252 27.9623 63.1295C26.5219 62.6047 24.9653 62.4794 23.483 62.0833C22.8578 61.9163 22.2472 61.7013 21.6119 61.5705C21.3323 61.5121 21.0472 61.4697 20.7804 61.3688C20.5136 61.268 20.2607 61.1011 20.1242 60.8543C20.0285 60.6806 19.9959 60.4774 20.0104 60.2805C20.0248 60.0836 20.0835 59.8916 20.1609 59.7092C20.3155 59.3444 20.5438 59.0101 20.6657 58.633C20.842 58.0788 20.7696 57.478 20.6371 56.912C20.5047 56.3461 20.3139 55.7907 20.2553 55.2129C20.2291 54.9557 20.2297 54.6933 20.2883 54.4412C20.347 54.189 20.4671 53.9468 20.6556 53.766C20.8981 53.5331 21.2377 53.4173 21.5752 53.3848C21.9127 53.3523 22.2526 53.3967 22.5882 53.4446C22.9238 53.4925 23.2615 53.5472 23.6003 53.5301C23.9392 53.513 24.2841 53.4258 24.5495 53.2183C24.812 53.0132 24.977 52.7077 25.0717 52.3916C25.1664 52.0756 25.197 51.7452 25.2358 51.418C25.2746 51.0908 25.3228 50.7606 25.4499 50.4556C25.577 50.1507 25.7911 49.8697 26.0905 49.7211L26.0884 49.7203Z" fill="#F5BD0C"/>
</g>
<g filter="url(#filter34_f_1_279)">
<path d="M29.1612 52.4747C29.6148 53.2951 29.8916 54.2366 30.3414 55.0639C30.7553 55.8249 31.2263 56.6085 31.6468 57.3103C31.8339 57.6227 32.2705 58.1031 32.7121 58.8485C33.112 59.5238 33.5159 60.4667 33.742 60.7833C33.6121 60.4126 33.3451 59.4175 33.0266 58.708C32.7307 58.0448 32.3826 57.6668 32.169 57.3103C31.7485 56.6085 31.2957 55.9777 30.8635 55.3086C30.2674 54.3857 29.8129 53.353 29.1612 52.4749V52.4747Z" fill="url(#paint25_linear_1_279)"/>
</g>
</g>
</g>
<defs>
<filter id="filter0_f_1_279" x="33.4621" y="27.9432" width="12.8786" height="8.32738" filterUnits="userSpaceOnUse" color-interpolation-filters="sRGB">
<feFlood flood-opacity="0" result="BackgroundImageFix"/>
<feBlend mode="normal" in="SourceGraphic" in2="BackgroundImageFix" result="shape"/>
<feGaussianBlur stdDeviation="0.436168" result="effect1_foregroundBlur_1_279"/>
</filter>
<filter id="filter1_f_1_279" x="33.8545" y="27.9467" width="11.4219" height="5.60835" filterUnits="userSpaceOnUse" color-interpolation-filters="sRGB">
<feFlood flood-opacity="0" result="BackgroundImageFix"/>
<feBlend mode="normal" in="SourceGraphic" in2="BackgroundImageFix" result="shape"/>
<feGaussianBlur stdDeviation="0.191623" result="effect1_foregroundBlur_1_279"/>
</filter>
<filter id="filter2_f_1_279" x="33.6711" y="25.0246" width="11.6608" height="6.45971" filterUnits="userSpaceOnUse" color-interpolation-filters="sRGB">
<feFlood flood-opacity="0" result="BackgroundImageFix"/>
<feBlend mode="normal" in="SourceGraphic" in2="BackgroundImageFix" result="shape"/>
<feGaussianBlur stdDeviation="0.291564" result="effect1_foregroundBlur_1_279"/>
</filter>
<filter id="filter3_f_1_279" x="41.8845" y="15.8815" width="4.58523" height="4.43545" filterUnits="userSpaceOnUse" color-interpolation-filters="sRGB">
<feFlood flood-opacity="0" result="BackgroundImageFix"/>
<feBlend mode="normal" in="SourceGraphic" in2="BackgroundImageFix" result="shape"/>
<feGaussianBlur stdDeviation="0.429496" result="effect1_foregroundBlur_1_279"/>
</filter>
<filter id="filter4_f_1_279" x="42.2065" y="24.7656" width="0.871757" height="0.710625" filterUnits="userSpaceOnUse" color-interpolation-filters="sRGB">
<feFlood flood-opacity="0" result="BackgroundImageFix"/>
<feBlend mode="normal" in="SourceGraphic" in2="BackgroundImageFix" result="shape"/>
<feGaussianBlur stdDeviation="0.0533428" result="effect1_foregroundBlur_1_279"/>
</filter>
<filter id="filter5_f_1_279" x="42.0958" y="23.8971" width="1.65918" height="1.64158" filterUnits="userSpaceOnUse" color-interpolation-filters="sRGB">
<feFlood flood-opacity="0" result="BackgroundImageFix"/>
<feBlend mode="normal" in="SourceGraphic" in2="BackgroundImageFix" result="shape"/>
<feGaussianBlur stdDeviation="0.111184" result="effect1_foregroundBlur_1_279"/>
</filter>
<filter id="filter6_f_1_279" x="42.6308" y="20.7593" width="2.79742" height="2.59118" filterUnits="userSpaceOnUse" color-interpolation-filters="sRGB">
<feFlood flood-opacity="0" result="BackgroundImageFix"/>
<feBlend mode="normal" in="SourceGraphic" in2="BackgroundImageFix" result="shape"/>
<feGaussianBlur stdDeviation="0.0317057" result="effect1_foregroundBlur_1_279"/>
</filter>
<filter id="filter7_f_1_279" x="35.4449" y="21.1051" width="2.61242" height="2.31008" filterUnits="userSpaceOnUse" color-interpolation-filters="sRGB">
<feFlood flood-opacity="0" result="BackgroundImageFix"/>
<feBlend mode="normal" in="SourceGraphic" in2="BackgroundImageFix" result="shape"/>
<feGaussianBlur stdDeviation="0.0289208" result="effect1_foregroundBlur_1_279"/>
</filter>
<filter id="filter8_f_1_279" x="35.5847" y="24.0646" width="1.35299" height="1.90548" filterUnits="userSpaceOnUse" color-interpolation-filters="sRGB">
<feFlood flood-opacity="0" result="BackgroundImageFix"/>
<feBlend mode="normal" in="SourceGraphic" in2="BackgroundImageFix" result="shape"/>
<feGaussianBlur stdDeviation="0.109899" result="effect1_foregroundBlur_1_279"/>
</filter>
<filter id="filter9_f_1_279" x="36.4307" y="29.7315" width="3.18699" height="2.47105" filterUnits="userSpaceOnUse" color-interpolation-filters="sRGB">
<feFlood flood-opacity="0" result="BackgroundImageFix"/>
<feBlend mode="normal" in="SourceGraphic" in2="BackgroundImageFix" result="shape"/>
<feGaussianBlur stdDeviation="0.192591" result="effect1_foregroundBlur_1_279"/>
</filter>
<filter id="filter10_f_1_279" x="34.3298" y="26.9907" width="9.85755" height="4.63947" filterUnits="userSpaceOnUse" color-interpolation-filters="sRGB">
<feFlood flood-opacity="0" result="BackgroundImageFix"/>
<feBlend mode="normal" in="SourceGraphic" in2="BackgroundImageFix" result="shape"/>
<feGaussianBlur stdDeviation="0.162385" result="effect1_foregroundBlur_1_279"/>
</filter>
<filter id="filter11_f_1_279" x="38.2971" y="27.1223" width="2.93034" height="3.44828" filterUnits="userSpaceOnUse" color-interpolation-filters="sRGB">
<feFlood flood-opacity="0" result="BackgroundImageFix"/>
<feBlend mode="normal" in="SourceGraphic" in2="BackgroundImageFix" result="shape"/>
<feGaussianBlur stdDeviation="0.18188" result="effect1_foregroundBlur_1_279"/>
</filter>
<filter id="filter12_f_1_279" x="39.3545" y="26.3099" width="1.08019" height="0.611716" filterUnits="userSpaceOnUse" color-interpolation-filters="sRGB">
<feFlood flood-opacity="0" result="BackgroundImageFix"/>
<feBlend mode="normal" in="SourceGraphic" in2="BackgroundImageFix" result="shape"/>
<feGaussianBlur stdDeviation="0.0235651" result="effect1_foregroundBlur_1_279"/>
</filter>
<filter id="filter13_f_1_279" x="37.0248" y="26.3995" width="0.490134" height="0.530723" filterUnits="userSpaceOnUse" color-interpolation-filters="sRGB">
<feFlood flood-opacity="0" result="BackgroundImageFix"/>
<feBlend mode="normal" in="SourceGraphic" in2="BackgroundImageFix" result="shape"/>
<feGaussianBlur stdDeviation="0.0235651" result="effect1_foregroundBlur_1_279"/>
</filter>
<filter id="filter14_f_1_279" x="43.6513" y="27.7292" width="1.29704" height="1.52302" filterUnits="userSpaceOnUse" color-interpolation-filters="sRGB">
<feFlood flood-opacity="0" result="BackgroundImageFix"/>
<feBlend mode="normal" in="SourceGraphic" in2="BackgroundImageFix" result="shape"/>
<feGaussianBlur stdDeviation="0.073168" result="effect1_foregroundBlur_1_279"/>
</filter>
<filter id="filter15_f_1_279" x="48.4845" y="37.9738" width="6.06176" height="15.2732" filterUnits="userSpaceOnUse" color-interpolation-filters="sRGB">
<feFlood flood-opacity="0" result="BackgroundImageFix"/>
<feBlend mode="normal" in="SourceGraphic" in2="BackgroundImageFix" result="shape"/>
<feGaussianBlur stdDeviation="0.292242" result="effect1_foregroundBlur_1_279"/>
</filter>
<filter id="filter16_f_1_279" x="30.0572" y="35.7137" width="6.80698" height="6.40698" filterUnits="userSpaceOnUse" color-interpolation-filters="sRGB">
<feFlood flood-opacity="0" result="BackgroundImageFix"/>
<feBlend mode="normal" in="SourceGraphic" in2="BackgroundImageFix" result="shape"/>
<feGaussianBlur stdDeviation="0.147995" result="effect1_foregroundBlur_1_279"/>
</filter>
<filter id="filter17_f_1_279" x="39.1935" y="35.065" width="10.3366" height="7.46485" filterUnits="userSpaceOnUse" color-interpolation-filters="sRGB">
<feFlood flood-opacity="0" result="BackgroundImageFix"/>
<feBlend mode="normal" in="SourceGraphic" in2="BackgroundImageFix" result="shape"/>
<feGaussianBlur stdDeviation="0.243791" result="effect1_foregroundBlur_1_279"/>
</filter>
<filter id="filter18_f_1_279" x="35.6303" y="35.9613" width="4.44855" height="4.70948" filterUnits="userSpaceOnUse" color-interpolation-filters="sRGB">
<feFlood flood-opacity="0" result="BackgroundImageFix"/>
<feBlend mode="normal" in="SourceGraphic" in2="BackgroundImageFix" result="shape"/>
<feGaussianBlur stdDeviation="0.168169" result="effect1_foregroundBlur_1_279"/>
</filter>
<filter id="filter19_f_1_279" x="35.54" y="41.6048" width="1.97838" height="11.6881" filterUnits="userSpaceOnUse" color-interpolation-filters="sRGB">
<feFlood flood-opacity="0" result="BackgroundImageFix"/>
<feBlend mode="normal" in="SourceGraphic" in2="BackgroundImageFix" result="shape"/>
<feGaussianBlur stdDeviation="0.309774" result="effect1_foregroundBlur_1_279"/>
</filter>
<filter id="filter20_f_1_279" x="46.1029" y="29.549" width="2.89158" height="3.13225" filterUnits="userSpaceOnUse" color-interpolation-filters="sRGB">
<feFlood flood-opacity="0" result="BackgroundImageFix"/>
<feBlend mode="normal" in="SourceGraphic" in2="BackgroundImageFix" result="shape"/>
<feGaussianBlur stdDeviation="0.193019" result="effect1_foregroundBlur_1_279"/>
</filter>
<filter id="filter21_f_1_279" x="45.3133" y="51.6315" width="14.3486" height="15.4474" filterUnits="userSpaceOnUse" color-interpolation-filters="sRGB">
<feFlood flood-opacity="0" result="BackgroundImageFix"/>
<feBlend mode="normal" in="SourceGraphic" in2="BackgroundImageFix" result="shape"/>
<feGaussianBlur stdDeviation="0.479548" result="effect1_foregroundBlur_1_279"/>
</filter>
<filter id="filter22_f_1_279" x="45.8534" y="48.917" width="17.8614" height="18.0551" filterUnits="userSpaceOnUse" color-interpolation-filters="sRGB">
<feFlood flood-opacity="0" result="BackgroundImageFix"/>
<feBlend mode="normal" in="SourceGraphic" in2="BackgroundImageFix" result="shape"/>
<feGaussianBlur stdDeviation="1.0238" result="effect1_foregroundBlur_1_279"/>
</filter>
<filter id="filter23_f_1_279" x="46.8513" y="48.3019" width="16.3643" height="16.2982" filterUnits="userSpaceOnUse" color-interpolation-filters="sRGB">
<feFlood flood-opacity="0" result="BackgroundImageFix"/>
<feBlend mode="normal" in="SourceGraphic" in2="BackgroundImageFix" result="shape"/>
<feGaussianBlur stdDeviation="0.806721" result="effect1_foregroundBlur_1_279"/>
</filter>
<filter id="filter24_f_1_279" x="48.1054" y="50.938" width="9.98883" height="1.96002" filterUnits="userSpaceOnUse" color-interpolation-filters="sRGB">
<feFlood flood-opacity="0" result="BackgroundImageFix"/>
<feBlend mode="normal" in="SourceGraphic" in2="BackgroundImageFix" result="shape"/>
<feGaussianBlur stdDeviation="0.102615" result="effect1_foregroundBlur_1_279"/>
</filter>
<filter id="filter25_f_1_279" x="49.6096" y="40.048" width="3.71836" height="3.75586" filterUnits="userSpaceOnUse" color-interpolation-filters="sRGB">
<feFlood flood-opacity="0" result="BackgroundImageFix"/>
<feBlend mode="normal" in="SourceGraphic" in2="BackgroundImageFix" result="shape"/>
<feGaussianBlur stdDeviation="0.491044" result="effect1_foregroundBlur_1_279"/>
</filter>
<filter id="filter26_f_1_279" x="32.0187" y="33.6982" width="1.27608" height="1.29869" filterUnits="userSpaceOnUse" color-interpolation-filters="sRGB">
<feFlood flood-opacity="0" result="BackgroundImageFix"/>
<feBlend mode="normal" in="SourceGraphic" in2="BackgroundImageFix" result="shape"/>
<feGaussianBlur stdDeviation="0.137066" result="effect1_foregroundBlur_1_279"/>
</filter>
<filter id="filter27_f_1_279" x="49.1024" y="50.4141" width="8.36363" height="7.51201" filterUnits="userSpaceOnUse" color-interpolation-filters="sRGB">
<feFlood flood-opacity="0" result="BackgroundImageFix"/>
<feBlend mode="normal" in="SourceGraphic" in2="BackgroundImageFix" result="shape"/>
<feGaussianBlur stdDeviation="0.609264" result="effect1_foregroundBlur_1_279"/>
</filter>
<filter id="filter28_f_1_279" x="49.8484" y="51.1763" width="6.87156" height="4.61374" filterUnits="userSpaceOnUse" color-interpolation-filters="sRGB">
<feFlood flood-opacity="0" result="BackgroundImageFix"/>
<feBlend mode="normal" in="SourceGraphic" in2="BackgroundImageFix" result="shape"/>
<feGaussianBlur stdDeviation="0.236245" result="effect1_foregroundBlur_1_279"/>
</filter>
<filter id="filter29_f_1_279" x="50.3162" y="48.6342" width="6.95753" height="3.72221" filterUnits="userSpaceOnUse" color-interpolation-filters="sRGB">
<feFlood flood-opacity="0" result="BackgroundImageFix"/>
<feBlend mode="normal" in="SourceGraphic" in2="BackgroundImageFix" result="shape"/>
<feGaussianBlur stdDeviation="0.219584" result="effect1_foregroundBlur_1_279"/>
</filter>
<filter id="filter30_f_1_279" x="50.3162" y="48.6342" width="6.95753" height="3.72221" filterUnits="userSpaceOnUse" color-interpolation-filters="sRGB">
<feFlood flood-opacity="0" result="BackgroundImageFix"/>
<feBlend mode="normal" in="SourceGraphic" in2="BackgroundImageFix" result="shape"/>
<feGaussianBlur stdDeviation="0.219584" result="effect1_foregroundBlur_1_279"/>
</filter>
<filter id="filter31_f_1_279" x="26.22" y="39.1427" width="5.65102" height="12.0538" filterUnits="userSpaceOnUse" color-interpolation-filters="sRGB">
<feFlood flood-opacity="0" result="BackgroundImageFix"/>
<feBlend mode="normal" in="SourceGraphic" in2="BackgroundImageFix" result="shape"/>
<feGaussianBlur stdDeviation="0.242506" result="effect1_foregroundBlur_1_279"/>
</filter>
<filter id="filter32_f_1_279" x="17.7982" y="48.582" width="18.6088" height="18.4703" filterUnits="userSpaceOnUse" color-interpolation-filters="sRGB">
<feFlood flood-opacity="0" result="BackgroundImageFix"/>
<feBlend mode="normal" in="SourceGraphic" in2="BackgroundImageFix" result="shape"/>
<feGaussianBlur stdDeviation="0.840631" result="effect1_foregroundBlur_1_279"/>
</filter>
<filter id="filter33_f_1_279" x="18.9723" y="48.5661" width="15.5749" height="16.4056" filterUnits="userSpaceOnUse" color-interpolation-filters="sRGB">
<feFlood flood-opacity="0" result="BackgroundImageFix"/>
<feBlend mode="normal" in="SourceGraphic" in2="BackgroundImageFix" result="shape"/>
<feGaussianBlur stdDeviation="0.517366" result="effect1_foregroundBlur_1_279"/>
</filter>
<filter id="filter34_f_1_279" x="29.0027" y="52.3162" width="4.89781" height="8.62565" filterUnits="userSpaceOnUse" color-interpolation-filters="sRGB">
<feFlood flood-opacity="0" result="BackgroundImageFix"/>
<feBlend mode="normal" in="SourceGraphic" in2="BackgroundImageFix" result="shape"/>
<feGaussianBlur stdDeviation="0.0792644" result="effect1_foregroundBlur_1_279"/>
</filter>
<radialGradient id="paint0_radial_1_279" cx="0" cy="0" r="1" gradientUnits="userSpaceOnUse" gradientTransform="translate(686.353 994.823) rotate(-2.41003) scale(43.3201 106.032)">
<stop stop-color="#FEFEFC"/>
<stop offset="0.757" stop-color="#FEFEFC"/>
<stop offset="1" stop-color="#D4D4D4"/>
</radialGradient>
<radialGradient id="paint1_radial_1_279" cx="0" cy="0" r="1" gradientUnits="userSpaceOnUse" gradientTransform="translate(1220.89 1041.24) rotate(-1.81001) scale(77.5581 112.079)">
<stop stop-color="#FEFEFC"/>
<stop offset="0.757" stop-color="#FEFEFC"/>
<stop offset="1" stop-color="#D4D4D4"/>
</radialGradient>
<radialGradient id="paint2_radial_1_279" cx="0" cy="0" r="1" gradientUnits="userSpaceOnUse" gradientTransform="translate(1301.51 -324.621) rotate(-36.0085) scale(71.0561 47.1374)">
<stop stop-color="#020204"/>
<stop offset="0.734" stop-color="#020204"/>
<stop offset="1" stop-color="#5C5C5C"/>
</radialGradient>
<linearGradient id="paint3_linear_1_279" x1="410.313" y1="183.023" x2="418.332" y2="192.659" gradientUnits="userSpaceOnUse">
<stop stop-color="#949494" stop-opacity="0.392"/>
<stop offset="0.5" stop-color="#949494"/>
<stop offset="1" stop-color="#949494" stop-opacity="0.392"/>
</linearGradient>
<linearGradient id="paint4_linear_1_279" x1="777.691" y1="742.042" x2="922.668" y2="861.128" gradientUnits="userSpaceOnUse">
<stop stop-color="#747474"/>
<stop offset="0.125" stop-color="#8C8C8C"/>
<stop offset="0.25" stop-color="#A4A4A4"/>
<stop offset="0.5" stop-color="#D4D4D4"/>
<stop offset="0.619" stop-color="#D4D4D4"/>
<stop offset="1" stop-color="#7C7C7C"/>
</linearGradient>
<linearGradient id="paint5_linear_1_279" x1="84.1153" y1="280.964" x2="119.234" y2="316.894" gradientUnits="userSpaceOnUse">
<stop stop-color="#646464" stop-opacity="0"/>
<stop offset="0.306" stop-color="#646464" stop-opacity="0.583"/>
<stop offset="0.47" stop-color="#646464"/>
<stop offset="0.728" stop-color="#646464" stop-opacity="0.257"/>
<stop offset="1" stop-color="#646464" stop-opacity="0"/>
</linearGradient>
<linearGradient id="paint6_linear_1_279" x1="-28.8452" y1="255.228" x2="0.457673" y2="287.337" gradientUnits="userSpaceOnUse">
<stop stop-color="#646464" stop-opacity="0"/>
<stop offset="0.306" stop-color="#646464" stop-opacity="0.583"/>
<stop offset="0.47" stop-color="#646464"/>
<stop offset="0.728" stop-color="#646464" stop-opacity="0.257"/>
<stop offset="1" stop-color="#646464" stop-opacity="0"/>
</linearGradient>
<linearGradient id="paint7_linear_1_279" x1="185.644" y1="217.874" x2="195.621" y2="228.991" gradientUnits="userSpaceOnUse">
<stop stop-color="#757574" stop-opacity="0"/>
<stop offset="0.263" stop-color="#757574"/>
<stop offset="0.5" stop-color="#757574"/>
<stop offset="1" stop-color="#757574" stop-opacity="0"/>
</linearGradient>
<radialGradient id="paint8_radial_1_279" cx="0" cy="0" r="1" gradientUnits="userSpaceOnUse" gradientTransform="translate(3203.18 -500.642) rotate(-22.428) scale(334.786 116.311)">
<stop stop-color="#D2940A"/>
<stop offset="0.751" stop-color="#D89C08"/>
<stop offset="0.866" stop-color="#B67E07"/>
<stop offset="1" stop-color="#946106"/>
</radialGradient>
<linearGradient id="paint9_linear_1_279" x1="526.136" y1="863.688" x2="1118.93" y2="854.487" gradientUnits="userSpaceOnUse">
<stop stop-color="#AD780A"/>
<stop offset="0.12" stop-color="#D89E08"/>
<stop offset="0.255" stop-color="#EDB80B"/>
<stop offset="0.392" stop-color="#EBC80D"/>
<stop offset="0.527" stop-color="#F5D838"/>
<stop offset="0.769" stop-color="#F6D811"/>
<stop offset="1" stop-color="#F5CD31"/>
</linearGradient>
<radialGradient id="paint10_radial_1_279" cx="0" cy="0" r="1" gradientUnits="userSpaceOnUse" gradientTransform="translate(115.981 70.8628) scale(3.18457 0.974946)">
<stop stop-color="#3A2903"/>
<stop offset="0.555" stop-color="#735208"/>
<stop offset="1" stop-color="#AC8C04"/>
</radialGradient>
<radialGradient id="paint11_radial_1_279" cx="0" cy="0" r="1" gradientUnits="userSpaceOnUse" gradientTransform="translate(62.0606 95.6201) scale(0.607645 0.720332)">
<stop stop-color="#3A2903"/>
<stop offset="0.555" stop-color="#735208"/>
<stop offset="1" stop-color="#AC8C04"/>
</radialGradient>
<linearGradient id="paint12_linear_1_279" x1="263.962" y1="221.06" x2="264.593" y2="224.333" gradientUnits="userSpaceOnUse">
<stop stop-color="#F5CE2D"/>
<stop offset="1" stop-color="#D79B08"/>
</linearGradient>
<radialGradient id="paint13_radial_1_279" cx="0" cy="0" r="1" gradientUnits="userSpaceOnUse" gradientTransform="translate(706.822 49.1323) rotate(-9.34942) scale(88.3477 37.8953)">
<stop stop-color="#C8C8C8"/>
<stop offset="1" stop-color="#797978"/>
</radialGradient>
<radialGradient id="paint14_radial_1_279" cx="0" cy="0" r="1" gradientUnits="userSpaceOnUse" gradientTransform="translate(-1371.16 1015.41) rotate(180) scale(118.9 121.587)">
<stop/>
<stop offset="1" stop-opacity="0.25"/>
</radialGradient>
<radialGradient id="paint15_radial_1_279" cx="0" cy="0" r="1" gradientUnits="userSpaceOnUse" gradientTransform="translate(2911.51 1205.85) scale(256.419 135.693)">
<stop/>
<stop offset="1" stop-opacity="0.25"/>
</radialGradient>
<radialGradient id="paint16_radial_1_279" cx="0" cy="0" r="1" gradientUnits="userSpaceOnUse" gradientTransform="translate(1026.12 1006.23) scale(40.9495 46.8102)">
<stop/>
<stop offset="1" stop-opacity="0.25"/>
</radialGradient>
<linearGradient id="paint17_linear_1_279" x1="397.878" y1="4434.72" x2="452.126" y2="4806.73" gradientUnits="userSpaceOnUse">
<stop/>
<stop offset="1" stop-opacity="0"/>
</linearGradient>
<linearGradient id="paint18_linear_1_279" x1="6701.32" y1="5819.17" x2="7457.97" y2="4629.7" gradientUnits="userSpaceOnUse">
<stop stop-color="#3E2A06"/>
<stop offset="1" stop-color="#AD780A"/>
</linearGradient>
<linearGradient id="paint19_linear_1_279" x1="480.908" y1="499.873" x2="480.549" y2="519.833" gradientUnits="userSpaceOnUse">
<stop stop-color="#F3CD0C"/>
<stop offset="1" stop-color="#F3CD0C" stop-opacity="0"/>
</linearGradient>
<radialGradient id="paint20_radial_1_279" cx="0" cy="0" r="1" gradientUnits="userSpaceOnUse" gradientTransform="translate(2230.13 2900.35) rotate(15) scale(135.218 121.541)">
<stop stop-color="#110800"/>
<stop offset="0.591" stop-color="#A65A00" stop-opacity="0.8"/>
<stop offset="1" stop-color="#FF921E" stop-opacity="0"/>
</radialGradient>
<radialGradient id="paint21_radial_1_279" cx="0" cy="0" r="1" gradientUnits="userSpaceOnUse" gradientTransform="translate(2230.13 2111.06) rotate(10.9628) scale(133.038 89.3047)">
<stop stop-color="#110800"/>
<stop offset="0.591" stop-color="#A65A00" stop-opacity="0.8"/>
<stop offset="1" stop-color="#FF921E" stop-opacity="0"/>
</radialGradient>
<radialGradient id="paint22_radial_1_279" cx="0" cy="0" r="1" gradientUnits="userSpaceOnUse" gradientTransform="translate(839.84 531.448) rotate(23.5217) scale(49.055 10.6056)">
<stop stop-color="#7C7C7C"/>
<stop offset="1" stop-color="#7C7C7C" stop-opacity="0.33"/>
</radialGradient>
<linearGradient id="paint23_linear_1_279" x1="2230.14" y1="843.541" x2="2248.27" y2="841.927" gradientUnits="userSpaceOnUse">
<stop stop-color="#7C7C7C"/>
<stop offset="1" stop-color="#7C7C7C" stop-opacity="0.33"/>
</linearGradient>
<linearGradient id="paint24_linear_1_279" x1="2061.4" y1="4997.4" x2="2840.45" y2="6318.84" gradientUnits="userSpaceOnUse">
<stop stop-color="#B98309"/>
<stop offset="1" stop-color="#382605"/>
</linearGradient>
<linearGradient id="paint25_linear_1_279" x1="812.652" y1="2729.69" x2="963.213" y2="2885.95" gradientUnits="userSpaceOnUse">
<stop stop-color="#EBC40C"/>
<stop offset="1" stop-color="#EBC40C" stop-opacity="0"/>
</linearGradient>
<clipPath id="clip0_1_279">
<rect width="52" height="52" fill="white" transform="translate(14 14.1846)"/>
</clipPath>
</defs>
</svg>
