<svg width="80" height="81" viewBox="0 0 80 81" fill="none" xmlns="http://www.w3.org/2000/svg">
<g id="image 19 (traced)">
<rect y="0.832764" width="80" height="80" rx="40" fill="#A3A3A3"/>
<g id="Group">
<path id="Vector" fill-rule="evenodd" clip-rule="evenodd" d="M42.009 54.1371C35.3566 54.3961 28.1866 53.1437 22.1398 50.1198L23.3922 48.133C29.2665 50.8974 36.0049 51.848 42.009 51.5885C42.009 51.8043 42.267 47.5279 42.6558 45.1956H33.6288C34.4492 35.7793 37.3433 27.3997 41.6629 20.2729H14.667V61.3936H43.0446C42.3968 58.931 42.009 54.0506 42.009 54.1371Z" fill="#D0E9FB"/>
<path id="Vector_2" fill-rule="evenodd" clip-rule="evenodd" d="M44.7297 51.4154C49.6538 50.9401 53.9729 49.6445 56.608 47.96L58.1632 49.9468C54.5343 52.0638 49.8264 53.4455 44.7297 53.964C44.8594 56.5126 45.2482 58.931 45.8961 61.3936H65.3327V20.2729H44.6432C40.2376 27.0114 37.7322 34.5269 36.7821 42.4745H46.0691C45.291 45.4979 44.8162 48.4785 44.7297 51.4154ZM26.9337 26.4928H29.5689V32.5834H26.9337V26.4928Z" fill="#00ACEC"/>
<path id="Vector_3" fill-rule="evenodd" clip-rule="evenodd" d="M48.876 26.4928H51.5116V32.5834H48.876V26.4928Z" fill="black"/>
<path id="Vector_4" fill-rule="evenodd" clip-rule="evenodd" d="M44.7295 51.4155C49.6536 50.9402 53.9727 49.6445 56.6078 47.96L58.163 49.9468C54.534 52.0638 49.8262 53.4455 44.7295 53.9641C44.9452 58.5422 46.0689 63.0776 48.3142 67.4404L46.0689 68.6491C41.9656 62.1707 41.2312 53.4455 42.6562 45.1956H33.6287C34.7518 32.3671 39.6755 21.4821 46.846 13.0165L48.789 14.701C41.7926 22.8216 37.9483 32.2811 36.7819 42.4745H46.0689C45.2908 45.4979 44.816 48.4786 44.7295 51.4155Z" fill="black"/>
<path id="Vector_5" fill-rule="evenodd" clip-rule="evenodd" d="M42.009 51.5885V54.1371C35.3566 54.3961 28.1866 53.1437 22.1398 50.1198L23.3922 48.133C29.266 50.8974 36.0044 51.8475 42.009 51.5885Z" fill="#00ACEC"/>
</g>
</g>
</svg>
